M48
;Layer_Color=9474304
;FILE_FORMAT=2:5
INCH,TZ
;TYPE=PLATED
T1F00S00C0.01500
T2F00S00C0.03937
T3F00S00C0.04331
;TYPE=NON_PLATED
T4F00S00C0.14500
%
T01
X26500Y10000
X48000Y17000
X56000
Y25000
X49771Y29725
X76500Y28500
X70500Y40000
X77500Y62000
X74000Y69500
X56000Y68500
X49000
Y60000
X50500Y92000
X65500
X81000Y92500
X113500Y83500
X126500Y68000
X132500Y49500
X140000Y38000
X137500Y13000
X127000Y19000
X98000Y9000
X94195Y29305
X154224Y61386
X135724Y101386
X137528Y140707
X76500Y133500
Y150500
X171500Y149000
X169500Y109000
X172000Y71500
X187500Y71000
X158000Y38000
X171000Y12500
X168000Y188500
X137528Y178707
T02
X183500Y91079
Y100921
X184000Y131500
Y141343
Y174079
Y183921
X69500Y179421
Y169579
T03
X171000Y28500
Y38500
Y48500
Y58500
T04
X12500Y12500
X200000
Y212500
X12500
M30
