G04*
G04 #@! TF.GenerationSoftware,Altium Limited,Altium Designer,20.2.4 (192)*
G04*
G04 Layer_Color=8421504*
%FSLAX25Y25*%
%MOIN*%
G70*
G04*
G04 #@! TF.SameCoordinates,916D3FFB-3ED2-40BB-BA98-F56BCE00B8A7*
G04*
G04*
G04 #@! TF.FilePolarity,Positive*
G04*
G01*
G75*
%ADD15O,0.05709X0.00984*%
%ADD16R,0.12205X0.03937*%
%ADD17R,0.02953X0.03347*%
%ADD18R,0.03150X0.03543*%
%ADD19R,0.03543X0.03937*%
%ADD20R,0.03347X0.03740*%
%ADD21R,0.02756X0.03347*%
%ADD22R,0.03765X0.04749*%
%ADD23R,0.02953X0.03543*%
%ADD24R,0.05118X0.02756*%
%ADD25R,0.02362X0.01575*%
%ADD26R,0.06299X0.06299*%
%ADD27R,0.06299X0.04331*%
%ADD28R,0.02480X0.03268*%
%ADD29R,0.07480X0.02362*%
D15*
X77028Y49937D02*
D03*
Y47969D02*
D03*
Y46000D02*
D03*
Y44032D02*
D03*
Y42063D02*
D03*
X92972Y49937D02*
D03*
Y47969D02*
D03*
Y46000D02*
D03*
Y44032D02*
D03*
Y42063D02*
D03*
X77028Y21937D02*
D03*
Y19969D02*
D03*
Y18000D02*
D03*
Y16032D02*
D03*
Y14063D02*
D03*
X92972Y21937D02*
D03*
Y19969D02*
D03*
Y18000D02*
D03*
Y16032D02*
D03*
Y14063D02*
D03*
D16*
X15370Y48500D02*
D03*
X36630D02*
D03*
X15370Y38500D02*
D03*
X36630D02*
D03*
X15370Y28500D02*
D03*
X36630D02*
D03*
Y58500D02*
D03*
X15370D02*
D03*
X36630Y68500D02*
D03*
Y78500D02*
D03*
X15370Y68500D02*
D03*
Y78500D02*
D03*
D17*
X102941Y40500D02*
D03*
X108059D02*
D03*
X140941Y114500D02*
D03*
X146059D02*
D03*
X142941Y191500D02*
D03*
X148059D02*
D03*
X108559Y15500D02*
D03*
X103441D02*
D03*
X142441Y152500D02*
D03*
X147559D02*
D03*
D18*
X145547Y68000D02*
D03*
X151453D02*
D03*
X146047Y38000D02*
D03*
X151953D02*
D03*
X126547Y151000D02*
D03*
X132453D02*
D03*
X124047Y112000D02*
D03*
X129953D02*
D03*
X126547Y189000D02*
D03*
X132453D02*
D03*
X108453Y68500D02*
D03*
X102547D02*
D03*
D19*
X62843Y25000D02*
D03*
X68157D02*
D03*
X108157Y57500D02*
D03*
X102843D02*
D03*
X108157Y23500D02*
D03*
X102843D02*
D03*
X62343Y56500D02*
D03*
X67657D02*
D03*
D20*
X68157Y18000D02*
D03*
X62843D02*
D03*
X102843Y49000D02*
D03*
X108157D02*
D03*
X67657Y49500D02*
D03*
X62343D02*
D03*
X102843Y31500D02*
D03*
X108157D02*
D03*
D21*
X145461Y94000D02*
D03*
X140539D02*
D03*
X146961Y132500D02*
D03*
X142039D02*
D03*
X147461Y171000D02*
D03*
X142539D02*
D03*
D22*
X146535Y85500D02*
D03*
X138465D02*
D03*
X149535Y163000D02*
D03*
X141465D02*
D03*
X148535Y123500D02*
D03*
X140465D02*
D03*
D23*
X62276Y74000D02*
D03*
X67000D02*
D03*
D24*
X154224Y56740D02*
D03*
Y49260D02*
D03*
X144776D02*
D03*
Y53000D02*
D03*
Y56740D02*
D03*
X120776Y140740D02*
D03*
Y137000D02*
D03*
Y133260D02*
D03*
X130224D02*
D03*
Y140740D02*
D03*
X121776Y178740D02*
D03*
Y175000D02*
D03*
Y171260D02*
D03*
X131224D02*
D03*
Y178740D02*
D03*
X153724Y27240D02*
D03*
Y19760D02*
D03*
X144276D02*
D03*
Y23500D02*
D03*
Y27240D02*
D03*
X118776Y101740D02*
D03*
Y98000D02*
D03*
Y94260D02*
D03*
X128224D02*
D03*
Y101740D02*
D03*
D25*
X148634Y104000D02*
D03*
X140366Y101441D02*
D03*
Y106559D02*
D03*
X150134Y142500D02*
D03*
X141866Y139941D02*
D03*
Y145059D02*
D03*
X149634Y181000D02*
D03*
X141366Y178441D02*
D03*
Y183559D02*
D03*
D26*
X107709Y136000D02*
D03*
X108209Y96500D02*
D03*
Y174000D02*
D03*
D27*
X96291Y131472D02*
D03*
Y140528D02*
D03*
X96791Y91972D02*
D03*
Y101028D02*
D03*
Y169472D02*
D03*
Y178528D02*
D03*
D28*
X90610Y187000D02*
D03*
X99390D02*
D03*
D29*
X90780Y70000D02*
D03*
X83220Y66220D02*
D03*
Y73780D02*
D03*
M02*
