G04*
G04 #@! TF.GenerationSoftware,Altium Limited,Altium Designer,20.2.4 (192)*
G04*
G04 Layer_Physical_Order=2*
G04 Layer_Color=16711680*
%FSLAX25Y25*%
%MOIN*%
G70*
G04*
G04 #@! TF.SameCoordinates,916D3FFB-3ED2-40BB-BA98-F56BCE00B8A7*
G04*
G04*
G04 #@! TF.FilePolarity,Positive*
G04*
G01*
G75*
%ADD13C,0.01000*%
%ADD48C,0.01600*%
%ADD49R,0.05906X0.05906*%
%ADD50C,0.05906*%
%ADD51C,0.06000*%
%ADD52C,0.06299*%
%ADD53R,0.06299X0.06299*%
%ADD54C,0.02900*%
G36*
X203384Y223980D02*
X205119Y223635D01*
X206754Y222958D01*
X208225Y221976D01*
X209476Y220725D01*
X210458Y219254D01*
X211135Y217619D01*
X211480Y215884D01*
X211480Y215000D01*
X211480Y205000D01*
X211480Y27000D01*
Y10000D01*
X211480Y9116D01*
X211135Y7380D01*
X210458Y5746D01*
X209476Y4275D01*
X208225Y3024D01*
X206754Y2042D01*
X205119Y1365D01*
X203384Y1020D01*
X9116D01*
X7380Y1365D01*
X5746Y2042D01*
X4275Y3024D01*
X3024Y4275D01*
X2042Y5746D01*
X1365Y7380D01*
X1020Y9116D01*
Y10000D01*
Y215000D01*
Y215884D01*
X1365Y217619D01*
X2042Y219254D01*
X3024Y220725D01*
X4275Y221976D01*
X5746Y222958D01*
X7380Y223635D01*
X9116Y223980D01*
X10000D01*
X27500Y223980D01*
X178500Y223980D01*
X202500D01*
X203384Y223980D01*
D02*
G37*
%LPC*%
G36*
X200000Y220589D02*
X198422Y220433D01*
X196905Y219973D01*
X195506Y219226D01*
X194280Y218220D01*
X193274Y216994D01*
X192527Y215596D01*
X192067Y214078D01*
X191911Y212500D01*
X192067Y210922D01*
X192527Y209404D01*
X193274Y208006D01*
X194280Y206780D01*
X195506Y205774D01*
X196905Y205027D01*
X198422Y204567D01*
X200000Y204411D01*
X201578Y204567D01*
X203096Y205027D01*
X204494Y205774D01*
X205720Y206780D01*
X206726Y208006D01*
X207473Y209404D01*
X207933Y210922D01*
X208089Y212500D01*
X207933Y214078D01*
X207473Y215596D01*
X206726Y216994D01*
X205720Y218220D01*
X204494Y219226D01*
X203096Y219973D01*
X201578Y220433D01*
X200000Y220589D01*
D02*
G37*
G36*
X12500D02*
X10922Y220433D01*
X9404Y219973D01*
X8006Y219226D01*
X6780Y218220D01*
X5774Y216994D01*
X5027Y215596D01*
X4566Y214078D01*
X4411Y212500D01*
X4566Y210922D01*
X5027Y209404D01*
X5774Y208006D01*
X6780Y206780D01*
X8006Y205774D01*
X9404Y205027D01*
X10922Y204567D01*
X12500Y204411D01*
X14078Y204567D01*
X15596Y205027D01*
X16994Y205774D01*
X18220Y206780D01*
X19226Y208006D01*
X19973Y209404D01*
X20434Y210922D01*
X20589Y212500D01*
X20434Y214078D01*
X19973Y215596D01*
X19226Y216994D01*
X18220Y218220D01*
X16994Y219226D01*
X15596Y219973D01*
X14078Y220433D01*
X12500Y220589D01*
D02*
G37*
G36*
X168500Y190899D02*
Y189000D01*
X170398D01*
X170308Y189456D01*
X169766Y190266D01*
X168956Y190808D01*
X168500Y190899D01*
D02*
G37*
G36*
X167500D02*
X167044Y190808D01*
X166234Y190266D01*
X165692Y189456D01*
X165602Y189000D01*
X167500D01*
Y190899D01*
D02*
G37*
G36*
X170398Y188000D02*
X168500D01*
Y186101D01*
X168956Y186192D01*
X169766Y186734D01*
X170308Y187544D01*
X170398Y188000D01*
D02*
G37*
G36*
X167500D02*
X165602D01*
X165692Y187544D01*
X166234Y186734D01*
X167044Y186192D01*
X167500Y186101D01*
Y188000D01*
D02*
G37*
G36*
X184000Y187706D02*
X183020Y187577D01*
X182107Y187199D01*
X181324Y186598D01*
X180722Y185814D01*
X180344Y184901D01*
X180215Y183921D01*
X180344Y182941D01*
X180722Y182029D01*
X181324Y181245D01*
X182107Y180643D01*
X183020Y180265D01*
X184000Y180136D01*
X184980Y180265D01*
X185893Y180643D01*
X186677Y181245D01*
X187278Y182029D01*
X187656Y182941D01*
X187785Y183921D01*
X187656Y184901D01*
X187278Y185814D01*
X186677Y186598D01*
X185893Y187199D01*
X184980Y187577D01*
X184000Y187706D01*
D02*
G37*
G36*
X69500Y183206D02*
X68520Y183077D01*
X67607Y182699D01*
X66824Y182098D01*
X66222Y181314D01*
X65844Y180401D01*
X65715Y179421D01*
X65844Y178442D01*
X66222Y177529D01*
X66824Y176745D01*
X67607Y176143D01*
X68520Y175765D01*
X69500Y175636D01*
X70480Y175765D01*
X71393Y176143D01*
X72176Y176745D01*
X72778Y177529D01*
X73156Y178442D01*
X73285Y179421D01*
X73156Y180401D01*
X72778Y181314D01*
X72176Y182098D01*
X71393Y182699D01*
X70480Y183077D01*
X69500Y183206D01*
D02*
G37*
G36*
X187753Y177831D02*
X180247D01*
Y170326D01*
X187753D01*
Y177831D01*
D02*
G37*
G36*
X73453Y173531D02*
X70000D01*
Y170079D01*
X73453D01*
Y173531D01*
D02*
G37*
G36*
X69000D02*
X65547D01*
Y170079D01*
X69000D01*
Y173531D01*
D02*
G37*
G36*
X73453Y169079D02*
X70000D01*
Y165626D01*
X73453D01*
Y169079D01*
D02*
G37*
G36*
X69000D02*
X65547D01*
Y165626D01*
X69000D01*
Y169079D01*
D02*
G37*
G36*
X77000Y152899D02*
Y151000D01*
X78899D01*
X78808Y151456D01*
X78266Y152266D01*
X77456Y152808D01*
X77000Y152899D01*
D02*
G37*
G36*
X76000D02*
X75544Y152808D01*
X74734Y152266D01*
X74192Y151456D01*
X74102Y151000D01*
X76000D01*
Y152899D01*
D02*
G37*
G36*
X172000Y151399D02*
Y149500D01*
X173898D01*
X173808Y149956D01*
X173266Y150766D01*
X172456Y151308D01*
X172000Y151399D01*
D02*
G37*
G36*
X171000D02*
X170544Y151308D01*
X169734Y150766D01*
X169192Y149956D01*
X169102Y149500D01*
X171000D01*
Y151399D01*
D02*
G37*
G36*
X78899Y150000D02*
X77000D01*
Y148101D01*
X77456Y148192D01*
X78266Y148734D01*
X78808Y149544D01*
X78899Y150000D01*
D02*
G37*
G36*
X76000D02*
X74102D01*
X74192Y149544D01*
X74734Y148734D01*
X75544Y148192D01*
X76000Y148101D01*
Y150000D01*
D02*
G37*
G36*
X173898Y148500D02*
X172000D01*
Y146601D01*
X172456Y146692D01*
X173266Y147234D01*
X173808Y148044D01*
X173898Y148500D01*
D02*
G37*
G36*
X171000D02*
X169102D01*
X169192Y148044D01*
X169734Y147234D01*
X170544Y146692D01*
X171000Y146601D01*
Y148500D01*
D02*
G37*
G36*
X184000Y145128D02*
X183020Y144999D01*
X182107Y144621D01*
X181324Y144019D01*
X180722Y143235D01*
X180344Y142322D01*
X180215Y141343D01*
X180344Y140363D01*
X180722Y139450D01*
X181324Y138666D01*
X182107Y138065D01*
X183020Y137686D01*
X184000Y137557D01*
X184980Y137686D01*
X185893Y138065D01*
X186677Y138666D01*
X187278Y139450D01*
X187656Y140363D01*
X187785Y141343D01*
X187656Y142322D01*
X187278Y143235D01*
X186677Y144019D01*
X185893Y144621D01*
X184980Y144999D01*
X184000Y145128D01*
D02*
G37*
G36*
X77000Y135898D02*
Y134000D01*
X78899D01*
X78808Y134456D01*
X78266Y135266D01*
X77456Y135808D01*
X77000Y135898D01*
D02*
G37*
G36*
X76000D02*
X75544Y135808D01*
X74734Y135266D01*
X74192Y134456D01*
X74102Y134000D01*
X76000D01*
Y135898D01*
D02*
G37*
G36*
X78899Y133000D02*
X77000D01*
Y131102D01*
X77456Y131192D01*
X78266Y131734D01*
X78808Y132544D01*
X78899Y133000D01*
D02*
G37*
G36*
X76000D02*
X74102D01*
X74192Y132544D01*
X74734Y131734D01*
X75544Y131192D01*
X76000Y131102D01*
Y133000D01*
D02*
G37*
G36*
X187753Y135253D02*
X180247D01*
Y127747D01*
X187753D01*
Y135253D01*
D02*
G37*
G36*
X170000Y111398D02*
Y109500D01*
X171898D01*
X171808Y109956D01*
X171266Y110766D01*
X170456Y111308D01*
X170000Y111398D01*
D02*
G37*
G36*
X169000D02*
X168544Y111308D01*
X167734Y110766D01*
X167192Y109956D01*
X167102Y109500D01*
X169000D01*
Y111398D01*
D02*
G37*
G36*
X171898Y108500D02*
X170000D01*
Y106602D01*
X170456Y106692D01*
X171266Y107234D01*
X171808Y108044D01*
X171898Y108500D01*
D02*
G37*
G36*
X169000D02*
X167102D01*
X167192Y108044D01*
X167734Y107234D01*
X168544Y106692D01*
X169000Y106602D01*
Y108500D01*
D02*
G37*
G36*
X183500Y104706D02*
X182520Y104577D01*
X181607Y104199D01*
X180824Y103598D01*
X180222Y102814D01*
X179844Y101901D01*
X179715Y100921D01*
X179844Y99941D01*
X180222Y99029D01*
X180824Y98245D01*
X181607Y97643D01*
X182520Y97265D01*
X183500Y97136D01*
X184480Y97265D01*
X185393Y97643D01*
X186177Y98245D01*
X186778Y99029D01*
X187156Y99941D01*
X187285Y100921D01*
X187156Y101901D01*
X186778Y102814D01*
X186177Y103598D01*
X185393Y104199D01*
X184480Y104577D01*
X183500Y104706D01*
D02*
G37*
G36*
X81500Y94898D02*
Y93000D01*
X83398D01*
X83308Y93456D01*
X82766Y94266D01*
X81956Y94808D01*
X81500Y94898D01*
D02*
G37*
G36*
X80500D02*
X80044Y94808D01*
X79234Y94266D01*
X78692Y93456D01*
X78601Y93000D01*
X80500D01*
Y94898D01*
D02*
G37*
G36*
X66000Y94398D02*
Y92500D01*
X67898D01*
X67808Y92956D01*
X67266Y93766D01*
X66456Y94308D01*
X66000Y94398D01*
D02*
G37*
G36*
X65000D02*
X64544Y94308D01*
X63734Y93766D01*
X63192Y92956D01*
X63102Y92500D01*
X65000D01*
Y94398D01*
D02*
G37*
G36*
X51000D02*
Y92500D01*
X52899D01*
X52808Y92956D01*
X52266Y93766D01*
X51456Y94308D01*
X51000Y94398D01*
D02*
G37*
G36*
X50000D02*
X49544Y94308D01*
X48734Y93766D01*
X48192Y92956D01*
X48101Y92500D01*
X50000D01*
Y94398D01*
D02*
G37*
G36*
X83398Y92000D02*
X81500D01*
Y90101D01*
X81956Y90192D01*
X82766Y90734D01*
X83308Y91544D01*
X83398Y92000D01*
D02*
G37*
G36*
X80500D02*
X78601D01*
X78692Y91544D01*
X79234Y90734D01*
X80044Y90192D01*
X80500Y90101D01*
Y92000D01*
D02*
G37*
G36*
X67898Y91500D02*
X66000D01*
Y89601D01*
X66456Y89692D01*
X67266Y90234D01*
X67808Y91044D01*
X67898Y91500D01*
D02*
G37*
G36*
X65000D02*
X63102D01*
X63192Y91044D01*
X63734Y90234D01*
X64544Y89692D01*
X65000Y89601D01*
Y91500D01*
D02*
G37*
G36*
X52899D02*
X51000D01*
Y89601D01*
X51456Y89692D01*
X52266Y90234D01*
X52808Y91044D01*
X52899Y91500D01*
D02*
G37*
G36*
X50000D02*
X48101D01*
X48192Y91044D01*
X48734Y90234D01*
X49544Y89692D01*
X50000Y89601D01*
Y91500D01*
D02*
G37*
G36*
X187253Y94832D02*
X179747D01*
Y87326D01*
X187253D01*
Y94832D01*
D02*
G37*
G36*
X114000Y85899D02*
Y84000D01*
X115899D01*
X115808Y84456D01*
X115266Y85266D01*
X114456Y85808D01*
X114000Y85899D01*
D02*
G37*
G36*
X113000D02*
X112544Y85808D01*
X111734Y85266D01*
X111192Y84456D01*
X111101Y84000D01*
X113000D01*
Y85899D01*
D02*
G37*
G36*
X115899Y83000D02*
X114000D01*
Y81102D01*
X114456Y81192D01*
X115266Y81734D01*
X115808Y82544D01*
X115899Y83000D01*
D02*
G37*
G36*
X113000D02*
X111101D01*
X111192Y82544D01*
X111734Y81734D01*
X112544Y81192D01*
X113000Y81102D01*
Y83000D01*
D02*
G37*
G36*
X172500Y73899D02*
Y72000D01*
X174399D01*
X174308Y72456D01*
X173766Y73266D01*
X172956Y73808D01*
X172500Y73899D01*
D02*
G37*
G36*
X171500D02*
X171044Y73808D01*
X170234Y73266D01*
X169692Y72456D01*
X169602Y72000D01*
X171500D01*
Y73899D01*
D02*
G37*
G36*
X188000Y73399D02*
Y71500D01*
X189899D01*
X189808Y71956D01*
X189266Y72766D01*
X188456Y73308D01*
X188000Y73399D01*
D02*
G37*
G36*
X187000D02*
X186544Y73308D01*
X185734Y72766D01*
X185192Y71956D01*
X185101Y71500D01*
X187000D01*
Y73399D01*
D02*
G37*
G36*
X174399Y71000D02*
X172500D01*
Y69102D01*
X172956Y69192D01*
X173766Y69734D01*
X174308Y70544D01*
X174399Y71000D01*
D02*
G37*
G36*
X171500D02*
X169602D01*
X169692Y70544D01*
X170234Y69734D01*
X171044Y69192D01*
X171500Y69102D01*
Y71000D01*
D02*
G37*
G36*
X56500Y70898D02*
Y69000D01*
X58398D01*
X58308Y69456D01*
X57766Y70266D01*
X56956Y70808D01*
X56500Y70898D01*
D02*
G37*
G36*
X55500D02*
X55044Y70808D01*
X54234Y70266D01*
X53692Y69456D01*
X53601Y69000D01*
X55500D01*
Y70898D01*
D02*
G37*
G36*
X49500D02*
Y69000D01*
X51398D01*
X51308Y69456D01*
X50766Y70266D01*
X49956Y70808D01*
X49500Y70898D01*
D02*
G37*
G36*
X48500D02*
X48044Y70808D01*
X47234Y70266D01*
X46692Y69456D01*
X46602Y69000D01*
X48500D01*
Y70898D01*
D02*
G37*
G36*
X189899Y70500D02*
X188000D01*
Y68602D01*
X188456Y68692D01*
X189266Y69234D01*
X189808Y70044D01*
X189899Y70500D01*
D02*
G37*
G36*
X187000D02*
X185101D01*
X185192Y70044D01*
X185734Y69234D01*
X186544Y68692D01*
X187000Y68602D01*
Y70500D01*
D02*
G37*
G36*
X127000Y70398D02*
Y68500D01*
X128899D01*
X128808Y68956D01*
X128266Y69766D01*
X127456Y70308D01*
X127000Y70398D01*
D02*
G37*
G36*
X126000D02*
X125544Y70308D01*
X124734Y69766D01*
X124192Y68956D01*
X124101Y68500D01*
X126000D01*
Y70398D01*
D02*
G37*
G36*
X58398Y68000D02*
X56500D01*
Y66101D01*
X56956Y66192D01*
X57766Y66734D01*
X58308Y67544D01*
X58398Y68000D01*
D02*
G37*
G36*
X55500D02*
X53601D01*
X53692Y67544D01*
X54234Y66734D01*
X55044Y66192D01*
X55500Y66101D01*
Y68000D01*
D02*
G37*
G36*
X51398D02*
X49500D01*
Y66101D01*
X49956Y66192D01*
X50766Y66734D01*
X51308Y67544D01*
X51398Y68000D01*
D02*
G37*
G36*
X48500D02*
X46602D01*
X46692Y67544D01*
X47234Y66734D01*
X48044Y66192D01*
X48500Y66101D01*
Y68000D01*
D02*
G37*
G36*
X128899Y67500D02*
X127000D01*
Y65601D01*
X127456Y65692D01*
X128266Y66234D01*
X128808Y67044D01*
X128899Y67500D01*
D02*
G37*
G36*
X126000D02*
X124101D01*
X124192Y67044D01*
X124734Y66234D01*
X125544Y65692D01*
X126000Y65601D01*
Y67500D01*
D02*
G37*
G36*
X78000Y64398D02*
Y62500D01*
X79899D01*
X79808Y62956D01*
X79266Y63766D01*
X78456Y64308D01*
X78000Y64398D01*
D02*
G37*
G36*
X49500Y62398D02*
Y60500D01*
X51398D01*
X51308Y60956D01*
X50766Y61766D01*
X49956Y62308D01*
X49500Y62398D01*
D02*
G37*
G36*
X48500D02*
X48044Y62308D01*
X47234Y61766D01*
X46692Y60956D01*
X46602Y60500D01*
X48500D01*
Y62398D01*
D02*
G37*
G36*
X79899Y61500D02*
X78000D01*
Y59601D01*
X78456Y59692D01*
X79266Y60234D01*
X79808Y61044D01*
X79899Y61500D01*
D02*
G37*
G36*
X137528Y181001D02*
X136650Y180827D01*
X135906Y180329D01*
X135408Y179585D01*
X135234Y178707D01*
X135408Y177829D01*
X135896Y177099D01*
Y142316D01*
X135408Y141585D01*
X135234Y140707D01*
X135408Y139829D01*
X135896Y139099D01*
Y104379D01*
X135066Y103549D01*
X134846Y103505D01*
X134102Y103008D01*
X133605Y102264D01*
X133430Y101386D01*
X133605Y100508D01*
X134093Y99778D01*
Y79886D01*
X134217Y79262D01*
X134571Y78732D01*
X151934Y61370D01*
X152105Y60508D01*
X152593Y59777D01*
Y41776D01*
X152717Y41151D01*
X153071Y40622D01*
X155693Y38000D01*
X138324Y20631D01*
X128608D01*
X127878Y21120D01*
X127000Y21294D01*
X126122Y21120D01*
X125392Y20631D01*
X100862D01*
X94810Y26684D01*
X94955Y27163D01*
X95073Y27186D01*
X95817Y27683D01*
X96314Y28428D01*
X96489Y29305D01*
X96314Y30183D01*
X95817Y30928D01*
X95073Y31425D01*
X94295Y31580D01*
X75326Y50549D01*
Y60013D01*
X75826Y60172D01*
X76544Y59692D01*
X77000Y59601D01*
Y62000D01*
Y64398D01*
X76544Y64308D01*
X75826Y63828D01*
X75326Y63987D01*
Y67680D01*
X75622Y67878D01*
X76119Y68622D01*
X76294Y69500D01*
X76119Y70378D01*
X75622Y71122D01*
X74878Y71619D01*
X74000Y71794D01*
X73122Y71619D01*
X72378Y71122D01*
X71881Y70378D01*
X71706Y69500D01*
X71881Y68622D01*
X72378Y67878D01*
X72675Y67680D01*
Y50000D01*
X72775Y49493D01*
X73063Y49063D01*
X91699Y30427D01*
X91679Y30363D01*
X91311Y30007D01*
X90687Y30131D01*
X78108D01*
X77378Y30619D01*
X76500Y30794D01*
X75622Y30619D01*
X74878Y30122D01*
X74381Y29378D01*
X74206Y28500D01*
X74381Y27622D01*
X74878Y26878D01*
X75622Y26381D01*
X76500Y26206D01*
X77378Y26381D01*
X78108Y26869D01*
X90011D01*
X99033Y17846D01*
X99562Y17493D01*
X100187Y17369D01*
X125392D01*
X126122Y16881D01*
X127000Y16706D01*
X127878Y16881D01*
X128608Y17369D01*
X139000D01*
X139624Y17493D01*
X140154Y17846D01*
X158016Y35709D01*
X158878Y35881D01*
X159622Y36378D01*
X160119Y37122D01*
X160294Y38000D01*
X160119Y38878D01*
X159622Y39622D01*
X158878Y40119D01*
X158016Y40291D01*
X155856Y42451D01*
Y59777D01*
X156344Y60508D01*
X156518Y61386D01*
X156344Y62264D01*
X155847Y63008D01*
X155102Y63505D01*
X154241Y63677D01*
X137356Y80562D01*
Y99778D01*
X137844Y100508D01*
X138019Y101386D01*
X137935Y101804D01*
X138681Y102550D01*
X139035Y103079D01*
X139159Y103703D01*
Y139099D01*
X139647Y139829D01*
X139822Y140707D01*
X139647Y141585D01*
X139159Y142316D01*
Y177099D01*
X139647Y177829D01*
X139822Y178707D01*
X139647Y179585D01*
X139150Y180329D01*
X138406Y180827D01*
X137528Y181001D01*
D02*
G37*
G36*
X171500Y62620D02*
Y59000D01*
X175120D01*
X175043Y59583D01*
X174625Y60593D01*
X173960Y61459D01*
X173093Y62125D01*
X172083Y62543D01*
X171500Y62620D01*
D02*
G37*
G36*
X170500D02*
X169917Y62543D01*
X168907Y62125D01*
X168041Y61459D01*
X167375Y60593D01*
X166957Y59583D01*
X166880Y59000D01*
X170500D01*
Y62620D01*
D02*
G37*
G36*
X51398Y59500D02*
X49500D01*
Y57601D01*
X49956Y57692D01*
X50766Y58234D01*
X51308Y59044D01*
X51398Y59500D01*
D02*
G37*
G36*
X48500D02*
X46602D01*
X46692Y59044D01*
X47234Y58234D01*
X48044Y57692D01*
X48500Y57601D01*
Y59500D01*
D02*
G37*
G36*
X175120Y58000D02*
X171500D01*
Y54380D01*
X172083Y54457D01*
X173093Y54875D01*
X173960Y55541D01*
X174625Y56407D01*
X175043Y57417D01*
X175120Y58000D01*
D02*
G37*
G36*
X170500D02*
X166880D01*
X166957Y57417D01*
X167375Y56407D01*
X168041Y55541D01*
X168907Y54875D01*
X169917Y54457D01*
X170500Y54380D01*
Y58000D01*
D02*
G37*
G36*
X133000Y51898D02*
Y50000D01*
X134898D01*
X134808Y50456D01*
X134266Y51266D01*
X133456Y51808D01*
X133000Y51898D01*
D02*
G37*
G36*
X132000D02*
X131544Y51808D01*
X130734Y51266D01*
X130192Y50456D01*
X130102Y50000D01*
X132000D01*
Y51898D01*
D02*
G37*
G36*
X134898Y49000D02*
X133000D01*
Y47102D01*
X133456Y47192D01*
X134266Y47734D01*
X134808Y48544D01*
X134898Y49000D01*
D02*
G37*
G36*
X132000D02*
X130102D01*
X130192Y48544D01*
X130734Y47734D01*
X131544Y47192D01*
X132000Y47102D01*
Y49000D01*
D02*
G37*
G36*
X171000Y52484D02*
X169969Y52348D01*
X169008Y51950D01*
X168183Y51317D01*
X167550Y50492D01*
X167152Y49531D01*
X167016Y48500D01*
X167152Y47469D01*
X167550Y46508D01*
X168183Y45683D01*
X169008Y45050D01*
X169969Y44652D01*
X171000Y44516D01*
X172031Y44652D01*
X172992Y45050D01*
X173817Y45683D01*
X174450Y46508D01*
X174848Y47469D01*
X174984Y48500D01*
X174848Y49531D01*
X174450Y50492D01*
X173817Y51317D01*
X172992Y51950D01*
X172031Y52348D01*
X171000Y52484D01*
D02*
G37*
G36*
X171500Y42620D02*
Y39000D01*
X175120D01*
X175043Y39583D01*
X174625Y40593D01*
X173960Y41460D01*
X173093Y42125D01*
X172083Y42543D01*
X171500Y42620D01*
D02*
G37*
G36*
X170500D02*
X169917Y42543D01*
X168907Y42125D01*
X168041Y41460D01*
X167375Y40593D01*
X166957Y39583D01*
X166880Y39000D01*
X170500D01*
Y42620D01*
D02*
G37*
G36*
X140500Y40398D02*
Y38500D01*
X142399D01*
X142308Y38956D01*
X141766Y39766D01*
X140956Y40308D01*
X140500Y40398D01*
D02*
G37*
G36*
X139500D02*
X139044Y40308D01*
X138234Y39766D01*
X137692Y38956D01*
X137601Y38500D01*
X139500D01*
Y40398D01*
D02*
G37*
G36*
X142399Y37500D02*
X140500D01*
Y35601D01*
X140956Y35692D01*
X141766Y36234D01*
X142308Y37044D01*
X142399Y37500D01*
D02*
G37*
G36*
X139500D02*
X137601D01*
X137692Y37044D01*
X138234Y36234D01*
X139044Y35692D01*
X139500Y35601D01*
Y37500D01*
D02*
G37*
G36*
X175120Y38000D02*
X171500D01*
Y34380D01*
X172083Y34457D01*
X173093Y34875D01*
X173960Y35541D01*
X174625Y36407D01*
X175043Y37417D01*
X175120Y38000D01*
D02*
G37*
G36*
X170500D02*
X166880D01*
X166957Y37417D01*
X167375Y36407D01*
X168041Y35541D01*
X168907Y34875D01*
X169917Y34457D01*
X170500Y34380D01*
Y38000D01*
D02*
G37*
G36*
X50271Y32123D02*
Y30225D01*
X52170D01*
X52079Y30681D01*
X51537Y31491D01*
X50727Y32032D01*
X50271Y32123D01*
D02*
G37*
G36*
X49271D02*
X48815Y32032D01*
X48005Y31491D01*
X47463Y30681D01*
X47373Y30225D01*
X49271D01*
Y32123D01*
D02*
G37*
G36*
X52170Y29225D02*
X50271D01*
Y27326D01*
X50727Y27417D01*
X51537Y27958D01*
X52079Y28769D01*
X52170Y29225D01*
D02*
G37*
G36*
X49271D02*
X47373D01*
X47463Y28769D01*
X48005Y27958D01*
X48815Y27417D01*
X49271Y27326D01*
Y29225D01*
D02*
G37*
G36*
X56500Y27398D02*
Y25500D01*
X58398D01*
X58308Y25956D01*
X57766Y26766D01*
X56956Y27308D01*
X56500Y27398D01*
D02*
G37*
G36*
X55500D02*
X55044Y27308D01*
X54234Y26766D01*
X53692Y25956D01*
X53601Y25500D01*
X55500D01*
Y27398D01*
D02*
G37*
G36*
X174950Y32450D02*
X167050D01*
Y24550D01*
X174950D01*
Y32450D01*
D02*
G37*
G36*
X58398Y24500D02*
X56500D01*
Y22602D01*
X56956Y22692D01*
X57766Y23234D01*
X58308Y24044D01*
X58398Y24500D01*
D02*
G37*
G36*
X55500D02*
X53601D01*
X53692Y24044D01*
X54234Y23234D01*
X55044Y22692D01*
X55500Y22602D01*
Y24500D01*
D02*
G37*
G36*
X70500Y42294D02*
X69622Y42120D01*
X68878Y41622D01*
X68381Y40878D01*
X68206Y40000D01*
X68381Y39122D01*
X68878Y38378D01*
X69174Y38180D01*
Y32049D01*
X56350Y19225D01*
X56000Y19294D01*
X55122Y19119D01*
X54378Y18622D01*
X53881Y17878D01*
X53706Y17000D01*
X53881Y16122D01*
X54378Y15378D01*
X55122Y14881D01*
X56000Y14706D01*
X56878Y14881D01*
X57622Y15378D01*
X58119Y16122D01*
X58294Y17000D01*
X58224Y17350D01*
X71437Y30563D01*
X71725Y30993D01*
X71825Y31500D01*
Y38180D01*
X72122Y38378D01*
X72619Y39122D01*
X72794Y40000D01*
X72619Y40878D01*
X72122Y41622D01*
X71378Y42120D01*
X70500Y42294D01*
D02*
G37*
G36*
X48500Y19399D02*
Y17500D01*
X50398D01*
X50308Y17956D01*
X49766Y18766D01*
X48956Y19308D01*
X48500Y19399D01*
D02*
G37*
G36*
X47500D02*
X47044Y19308D01*
X46234Y18766D01*
X45692Y17956D01*
X45601Y17500D01*
X47500D01*
Y19399D01*
D02*
G37*
G36*
X50398Y16500D02*
X48500D01*
Y14602D01*
X48956Y14692D01*
X49766Y15234D01*
X50308Y16044D01*
X50398Y16500D01*
D02*
G37*
G36*
X47500D02*
X45601D01*
X45692Y16044D01*
X46234Y15234D01*
X47044Y14692D01*
X47500Y14602D01*
Y16500D01*
D02*
G37*
G36*
X138000Y15398D02*
Y13500D01*
X139899D01*
X139808Y13956D01*
X139266Y14766D01*
X138456Y15308D01*
X138000Y15398D01*
D02*
G37*
G36*
X137000D02*
X136544Y15308D01*
X135734Y14766D01*
X135192Y13956D01*
X135101Y13500D01*
X137000D01*
Y15398D01*
D02*
G37*
G36*
X171500Y14898D02*
Y13000D01*
X173398D01*
X173308Y13456D01*
X172766Y14266D01*
X171956Y14808D01*
X171500Y14898D01*
D02*
G37*
G36*
X170500D02*
X170044Y14808D01*
X169234Y14266D01*
X168692Y13456D01*
X168602Y13000D01*
X170500D01*
Y14898D01*
D02*
G37*
G36*
X139899Y12500D02*
X138000D01*
Y10601D01*
X138456Y10692D01*
X139266Y11234D01*
X139808Y12044D01*
X139899Y12500D01*
D02*
G37*
G36*
X137000D02*
X135101D01*
X135192Y12044D01*
X135734Y11234D01*
X136544Y10692D01*
X137000Y10601D01*
Y12500D01*
D02*
G37*
G36*
X27000Y12398D02*
Y10500D01*
X28899D01*
X28808Y10956D01*
X28266Y11766D01*
X27456Y12308D01*
X27000Y12398D01*
D02*
G37*
G36*
X26000D02*
X25544Y12308D01*
X24734Y11766D01*
X24192Y10956D01*
X24102Y10500D01*
X26000D01*
Y12398D01*
D02*
G37*
G36*
X173398Y12000D02*
X171500D01*
Y10102D01*
X171956Y10192D01*
X172766Y10734D01*
X173308Y11544D01*
X173398Y12000D01*
D02*
G37*
G36*
X170500D02*
X168602D01*
X168692Y11544D01*
X169234Y10734D01*
X170044Y10192D01*
X170500Y10102D01*
Y12000D01*
D02*
G37*
G36*
X98500Y11399D02*
Y9500D01*
X100399D01*
X100308Y9956D01*
X99766Y10766D01*
X98956Y11308D01*
X98500Y11399D01*
D02*
G37*
G36*
X97500D02*
X97044Y11308D01*
X96234Y10766D01*
X95692Y9956D01*
X95601Y9500D01*
X97500D01*
Y11399D01*
D02*
G37*
G36*
X28899Y9500D02*
X27000D01*
Y7602D01*
X27456Y7692D01*
X28266Y8234D01*
X28808Y9044D01*
X28899Y9500D01*
D02*
G37*
G36*
X26000D02*
X24102D01*
X24192Y9044D01*
X24734Y8234D01*
X25544Y7692D01*
X26000Y7602D01*
Y9500D01*
D02*
G37*
G36*
X100399Y8500D02*
X98500D01*
Y6601D01*
X98956Y6692D01*
X99766Y7234D01*
X100308Y8044D01*
X100399Y8500D01*
D02*
G37*
G36*
X97500D02*
X95601D01*
X95692Y8044D01*
X96234Y7234D01*
X97044Y6692D01*
X97500Y6601D01*
Y8500D01*
D02*
G37*
G36*
X200000Y20589D02*
X198422Y20434D01*
X196905Y19973D01*
X195506Y19226D01*
X194280Y18220D01*
X193274Y16994D01*
X192527Y15596D01*
X192067Y14078D01*
X191911Y12500D01*
X192067Y10922D01*
X192527Y9404D01*
X193274Y8006D01*
X194280Y6780D01*
X195506Y5774D01*
X196905Y5027D01*
X198422Y4566D01*
X200000Y4411D01*
X201578Y4566D01*
X203096Y5027D01*
X204494Y5774D01*
X205720Y6780D01*
X206726Y8006D01*
X207473Y9404D01*
X207933Y10922D01*
X208089Y12500D01*
X207933Y14078D01*
X207473Y15596D01*
X206726Y16994D01*
X205720Y18220D01*
X204494Y19226D01*
X203096Y19973D01*
X201578Y20434D01*
X200000Y20589D01*
D02*
G37*
G36*
X12500D02*
X10922Y20434D01*
X9404Y19973D01*
X8006Y19226D01*
X6780Y18220D01*
X5774Y16994D01*
X5027Y15596D01*
X4566Y14078D01*
X4411Y12500D01*
X4566Y10922D01*
X5027Y9404D01*
X5774Y8006D01*
X6780Y6780D01*
X8006Y5774D01*
X9404Y5027D01*
X10922Y4566D01*
X12500Y4411D01*
X14078Y4566D01*
X15596Y5027D01*
X16994Y5774D01*
X18220Y6780D01*
X19226Y8006D01*
X19973Y9404D01*
X20434Y10922D01*
X20589Y12500D01*
X20434Y14078D01*
X19973Y15596D01*
X19226Y16994D01*
X18220Y18220D01*
X16994Y19226D01*
X15596Y19973D01*
X14078Y20434D01*
X12500Y20589D01*
D02*
G37*
%LPD*%
D13*
X70500Y31500D02*
Y40000D01*
X56000Y17000D02*
X70500Y31500D01*
X74000Y50000D02*
Y69500D01*
Y50000D02*
X94000Y30000D01*
Y29500D02*
Y30000D01*
Y29500D02*
X94195Y29305D01*
X135724Y101386D02*
Y101900D01*
D48*
Y79886D02*
Y101386D01*
Y79886D02*
X154224Y61386D01*
X137528Y103703D02*
Y140707D01*
X135724Y101900D02*
X137528Y103703D01*
Y140707D02*
Y178707D01*
X76500Y28500D02*
X90687D01*
X154224Y41776D02*
Y61386D01*
Y41776D02*
X158000Y38000D01*
X90687Y28500D02*
X100187Y19000D01*
X127000D01*
X139000D02*
X158000Y38000D01*
X127000Y19000D02*
X139000D01*
D49*
X69500Y169579D02*
D03*
X184000Y131500D02*
D03*
X183500Y91079D02*
D03*
X184000Y174079D02*
D03*
D50*
X69500Y179421D02*
D03*
X184000Y141343D02*
D03*
X183500Y100921D02*
D03*
X184000Y183921D02*
D03*
D51*
X12500Y212500D02*
D03*
Y12500D02*
D03*
X200000D02*
D03*
Y212500D02*
D03*
D52*
X171000Y58500D02*
D03*
Y48500D02*
D03*
Y38500D02*
D03*
D53*
Y28500D02*
D03*
D54*
X187500Y71000D02*
D03*
X26500Y10000D02*
D03*
X168000Y188500D02*
D03*
X76500Y150500D02*
D03*
X113500Y83500D02*
D03*
X81000Y92500D02*
D03*
X50500Y92000D02*
D03*
X49000Y60000D02*
D03*
X56000Y68500D02*
D03*
X49000D02*
D03*
X49771Y29725D02*
D03*
X56000Y25000D02*
D03*
X70500Y40000D02*
D03*
X56000Y17000D02*
D03*
X98000Y9000D02*
D03*
X171500Y149000D02*
D03*
X169500Y109000D02*
D03*
X171000Y12500D02*
D03*
X172000Y71500D02*
D03*
X76500Y133500D02*
D03*
X65500Y92000D02*
D03*
X77500Y62000D02*
D03*
X126500Y68000D02*
D03*
X140000Y38000D02*
D03*
X132500Y49500D02*
D03*
X137528Y178707D02*
D03*
Y140707D02*
D03*
X135724Y101386D02*
D03*
X74000Y69500D02*
D03*
X94195Y29305D02*
D03*
X76500Y28500D02*
D03*
X158000Y38000D02*
D03*
X154224Y61386D02*
D03*
X48000Y17000D02*
D03*
X137500Y13000D02*
D03*
X127000Y19000D02*
D03*
M02*
