G04*
G04 #@! TF.GenerationSoftware,Altium Limited,Altium Designer,20.2.4 (192)*
G04*
G04 Layer_Color=8388736*
%FSLAX25Y25*%
%MOIN*%
G70*
G04*
G04 #@! TF.SameCoordinates,916D3FFB-3ED2-40BB-BA98-F56BCE00B8A7*
G04*
G04*
G04 #@! TF.FilePolarity,Negative*
G04*
G01*
G75*
%ADD18R,0.03150X0.03543*%
%ADD22R,0.03765X0.04749*%
%ADD23R,0.02953X0.03543*%
%ADD30O,0.06509X0.01784*%
%ADD31R,0.13005X0.04737*%
%ADD32R,0.03753X0.04147*%
%ADD33R,0.04343X0.04737*%
%ADD34R,0.04147X0.04540*%
%ADD35R,0.03556X0.04147*%
%ADD36R,0.05918X0.03556*%
%ADD37R,0.03162X0.02375*%
%ADD38R,0.07099X0.07099*%
%ADD39R,0.07099X0.05131*%
%ADD40R,0.03280X0.04068*%
%ADD41R,0.08280X0.03162*%
%ADD42R,0.06706X0.06706*%
%ADD43C,0.06706*%
%ADD44C,0.06800*%
%ADD45C,0.07099*%
%ADD46R,0.07099X0.07099*%
%ADD47C,0.01500*%
D18*
X145547Y68000D02*
D03*
X151453D02*
D03*
X146047Y38000D02*
D03*
X151953D02*
D03*
X126547Y151000D02*
D03*
X132453D02*
D03*
X124047Y112000D02*
D03*
X129953D02*
D03*
X126547Y189000D02*
D03*
X132453D02*
D03*
X108453Y68500D02*
D03*
X102547D02*
D03*
D22*
X146535Y85500D02*
D03*
X138465D02*
D03*
X149535Y163000D02*
D03*
X141465D02*
D03*
X148535Y123500D02*
D03*
X140465D02*
D03*
D23*
X62276Y74000D02*
D03*
X67000D02*
D03*
D30*
X77028Y49937D02*
D03*
Y47969D02*
D03*
Y46000D02*
D03*
Y44032D02*
D03*
Y42063D02*
D03*
X92972Y49937D02*
D03*
Y47969D02*
D03*
Y46000D02*
D03*
Y44032D02*
D03*
Y42063D02*
D03*
X77028Y21937D02*
D03*
Y19969D02*
D03*
Y18000D02*
D03*
Y16032D02*
D03*
Y14063D02*
D03*
X92972Y21937D02*
D03*
Y19969D02*
D03*
Y18000D02*
D03*
Y16032D02*
D03*
Y14063D02*
D03*
D31*
X15370Y48500D02*
D03*
X36630D02*
D03*
X15370Y38500D02*
D03*
X36630D02*
D03*
X15370Y28500D02*
D03*
X36630D02*
D03*
Y58500D02*
D03*
X15370D02*
D03*
X36630Y68500D02*
D03*
Y78500D02*
D03*
X15370Y68500D02*
D03*
Y78500D02*
D03*
D32*
X102941Y40500D02*
D03*
X108059D02*
D03*
X140941Y114500D02*
D03*
X146059D02*
D03*
X142941Y191500D02*
D03*
X148059D02*
D03*
X108559Y15500D02*
D03*
X103441D02*
D03*
X142441Y152500D02*
D03*
X147559D02*
D03*
D33*
X62843Y25000D02*
D03*
X68157D02*
D03*
X108157Y57500D02*
D03*
X102843D02*
D03*
X108157Y23500D02*
D03*
X102843D02*
D03*
X62343Y56500D02*
D03*
X67657D02*
D03*
D34*
X68157Y18000D02*
D03*
X62843D02*
D03*
X102843Y49000D02*
D03*
X108157D02*
D03*
X67657Y49500D02*
D03*
X62343D02*
D03*
X102843Y31500D02*
D03*
X108157D02*
D03*
D35*
X145461Y94000D02*
D03*
X140539D02*
D03*
X146961Y132500D02*
D03*
X142039D02*
D03*
X147461Y171000D02*
D03*
X142539D02*
D03*
D36*
X154224Y56740D02*
D03*
Y49260D02*
D03*
X144776D02*
D03*
Y53000D02*
D03*
Y56740D02*
D03*
X120776Y140740D02*
D03*
Y137000D02*
D03*
Y133260D02*
D03*
X130224D02*
D03*
Y140740D02*
D03*
X121776Y178740D02*
D03*
Y175000D02*
D03*
Y171260D02*
D03*
X131224D02*
D03*
Y178740D02*
D03*
X153724Y27240D02*
D03*
Y19760D02*
D03*
X144276D02*
D03*
Y23500D02*
D03*
Y27240D02*
D03*
X118776Y101740D02*
D03*
Y98000D02*
D03*
Y94260D02*
D03*
X128224D02*
D03*
Y101740D02*
D03*
D37*
X148634Y104000D02*
D03*
X140366Y101441D02*
D03*
Y106559D02*
D03*
X150134Y142500D02*
D03*
X141866Y139941D02*
D03*
Y145059D02*
D03*
X149634Y181000D02*
D03*
X141366Y178441D02*
D03*
Y183559D02*
D03*
D38*
X107709Y136000D02*
D03*
X108209Y96500D02*
D03*
Y174000D02*
D03*
D39*
X96291Y131472D02*
D03*
Y140528D02*
D03*
X96791Y91972D02*
D03*
Y101028D02*
D03*
Y169472D02*
D03*
Y178528D02*
D03*
D40*
X90610Y187000D02*
D03*
X99390D02*
D03*
D41*
X90780Y70000D02*
D03*
X83220Y66220D02*
D03*
Y73780D02*
D03*
D42*
X69500Y169579D02*
D03*
X184000Y131500D02*
D03*
X183500Y91079D02*
D03*
X184000Y174079D02*
D03*
D43*
X69500Y179421D02*
D03*
X184000Y141343D02*
D03*
X183500Y100921D02*
D03*
X184000Y183921D02*
D03*
D44*
X12500Y212500D02*
D03*
Y12500D02*
D03*
X200000D02*
D03*
Y212500D02*
D03*
D45*
X171000Y58500D02*
D03*
Y48500D02*
D03*
Y38500D02*
D03*
D46*
Y28500D02*
D03*
D47*
X187500Y71000D02*
D03*
X26500Y10000D02*
D03*
X168000Y188500D02*
D03*
X76500Y150500D02*
D03*
X113500Y83500D02*
D03*
X81000Y92500D02*
D03*
X50500Y92000D02*
D03*
X49000Y60000D02*
D03*
X56000Y68500D02*
D03*
X49000D02*
D03*
X49771Y29725D02*
D03*
X56000Y25000D02*
D03*
X70500Y40000D02*
D03*
X56000Y17000D02*
D03*
X98000Y9000D02*
D03*
X171500Y149000D02*
D03*
X169500Y109000D02*
D03*
X171000Y12500D02*
D03*
X172000Y71500D02*
D03*
X76500Y133500D02*
D03*
X65500Y92000D02*
D03*
X77500Y62000D02*
D03*
X126500Y68000D02*
D03*
X140000Y38000D02*
D03*
X132500Y49500D02*
D03*
X137528Y178707D02*
D03*
Y140707D02*
D03*
X135724Y101386D02*
D03*
X74000Y69500D02*
D03*
X94195Y29305D02*
D03*
X76500Y28500D02*
D03*
X158000Y38000D02*
D03*
X154224Y61386D02*
D03*
X48000Y17000D02*
D03*
X137500Y13000D02*
D03*
X127000Y19000D02*
D03*
M02*
