G04*
G04 #@! TF.GenerationSoftware,Altium Limited,Altium Designer,20.2.4 (192)*
G04*
G04 Layer_Color=16711935*
%FSLAX25Y25*%
%MOIN*%
G70*
G04*
G04 #@! TF.SameCoordinates,916D3FFB-3ED2-40BB-BA98-F56BCE00B8A7*
G04*
G04*
G04 #@! TF.FilePolarity,Negative*
G04*
G01*
G75*
%ADD42R,0.06706X0.06706*%
%ADD43C,0.06706*%
%ADD44C,0.06800*%
%ADD45C,0.07099*%
%ADD46R,0.07099X0.07099*%
%ADD47C,0.01500*%
D42*
X69500Y169579D02*
D03*
X184000Y131500D02*
D03*
X183500Y91079D02*
D03*
X184000Y174079D02*
D03*
D43*
X69500Y179421D02*
D03*
X184000Y141343D02*
D03*
X183500Y100921D02*
D03*
X184000Y183921D02*
D03*
D44*
X12500Y212500D02*
D03*
Y12500D02*
D03*
X200000D02*
D03*
Y212500D02*
D03*
D45*
X171000Y58500D02*
D03*
Y48500D02*
D03*
Y38500D02*
D03*
D46*
Y28500D02*
D03*
D47*
X187500Y71000D02*
D03*
X26500Y10000D02*
D03*
X168000Y188500D02*
D03*
X76500Y150500D02*
D03*
X113500Y83500D02*
D03*
X81000Y92500D02*
D03*
X50500Y92000D02*
D03*
X49000Y60000D02*
D03*
X56000Y68500D02*
D03*
X49000D02*
D03*
X49771Y29725D02*
D03*
X56000Y25000D02*
D03*
X70500Y40000D02*
D03*
X56000Y17000D02*
D03*
X98000Y9000D02*
D03*
X171500Y149000D02*
D03*
X169500Y109000D02*
D03*
X171000Y12500D02*
D03*
X172000Y71500D02*
D03*
X76500Y133500D02*
D03*
X65500Y92000D02*
D03*
X77500Y62000D02*
D03*
X126500Y68000D02*
D03*
X140000Y38000D02*
D03*
X132500Y49500D02*
D03*
X137528Y178707D02*
D03*
Y140707D02*
D03*
X135724Y101386D02*
D03*
X74000Y69500D02*
D03*
X94195Y29305D02*
D03*
X76500Y28500D02*
D03*
X158000Y38000D02*
D03*
X154224Y61386D02*
D03*
X48000Y17000D02*
D03*
X137500Y13000D02*
D03*
X127000Y19000D02*
D03*
M02*
