G04*
G04 #@! TF.GenerationSoftware,Altium Limited,Altium Designer,20.2.4 (192)*
G04*
G04 Layer_Color=32896*
%FSLAX25Y25*%
%MOIN*%
G70*
G04*
G04 #@! TF.SameCoordinates,916D3FFB-3ED2-40BB-BA98-F56BCE00B8A7*
G04*
G04*
G04 #@! TF.FilePolarity,Positive*
G04*
G01*
G75*
G36*
X154637Y158025D02*
X155563D01*
Y157716D01*
X155872D01*
Y157407D01*
X156181D01*
Y157098D01*
X156490D01*
Y156789D01*
Y156481D01*
Y156172D01*
X156181D01*
Y155863D01*
X155872D01*
Y156172D01*
Y156481D01*
Y156789D01*
Y157098D01*
X155563D01*
Y157407D01*
Y157716D01*
X154637D01*
Y158025D01*
X152475D01*
Y157716D01*
X149386D01*
Y157407D01*
X148460D01*
Y157098D01*
X146607D01*
Y156789D01*
X144445D01*
Y157098D01*
X145989D01*
Y157407D01*
X146298D01*
Y157716D01*
X148768D01*
Y158025D01*
X152166D01*
Y158334D01*
X154637D01*
Y158025D01*
D02*
G37*
G36*
X144445Y156481D02*
X142592D01*
Y156172D01*
X142283D01*
Y155863D01*
X140429D01*
Y155554D01*
X138576D01*
Y155863D01*
X140121D01*
Y156172D01*
X140429D01*
Y156481D01*
X142283D01*
Y156789D01*
X144445D01*
Y156481D01*
D02*
G37*
G36*
X106456Y190454D02*
Y190145D01*
X108001D01*
Y189836D01*
X109236D01*
Y189527D01*
X110162D01*
Y189218D01*
Y188910D01*
X110780D01*
Y188601D01*
X111089D01*
Y188292D01*
Y187983D01*
Y187674D01*
X111398D01*
Y187365D01*
X111707D01*
Y187057D01*
X112015D01*
Y186748D01*
X112324D01*
Y186439D01*
Y186130D01*
X112633D01*
Y185821D01*
X112942D01*
Y185512D01*
X113251D01*
Y185204D01*
X113560D01*
Y184895D01*
Y184586D01*
Y184277D01*
X113869D01*
Y183968D01*
Y183659D01*
Y183350D01*
X114486D01*
Y183042D01*
X114795D01*
Y182733D01*
Y182424D01*
Y182115D01*
X115104D01*
Y181806D01*
Y181497D01*
X115413D01*
Y181188D01*
X115722D01*
Y180880D01*
Y180571D01*
X116031D01*
Y180262D01*
Y179953D01*
Y179644D01*
X116648D01*
Y179335D01*
X116339D01*
Y179026D01*
Y178718D01*
X116957D01*
Y178409D01*
Y178100D01*
X117266D01*
Y177791D01*
Y177482D01*
Y177173D01*
X117884D01*
Y176865D01*
Y176556D01*
Y176247D01*
X118193D01*
Y175938D01*
Y175629D01*
Y175320D01*
X118501D01*
Y175012D01*
Y174703D01*
Y174394D01*
Y174085D01*
X119119D01*
Y173776D01*
Y173467D01*
Y173158D01*
X119428D01*
Y172850D01*
Y172541D01*
Y172232D01*
Y171923D01*
X120045D01*
Y171614D01*
X119737D01*
Y171305D01*
X120354D01*
Y170996D01*
Y170688D01*
Y170379D01*
Y170070D01*
Y169761D01*
X120663D01*
Y169452D01*
Y169143D01*
X121281D01*
Y168834D01*
Y168526D01*
X120972D01*
Y168217D01*
Y167908D01*
X121590D01*
Y167599D01*
Y167290D01*
Y166981D01*
Y166673D01*
Y166364D01*
X121899D01*
Y166055D01*
Y165746D01*
X122516D01*
Y165437D01*
Y165128D01*
Y164820D01*
Y164511D01*
X122825D01*
Y164202D01*
Y163893D01*
Y163584D01*
X123443D01*
Y163275D01*
X123134D01*
Y162966D01*
Y162657D01*
Y162349D01*
X123752D01*
Y162040D01*
Y161731D01*
Y161422D01*
X124061D01*
Y161113D01*
Y160804D01*
Y160496D01*
Y160187D01*
X124678D01*
Y159878D01*
X124987D01*
Y159569D01*
Y159260D01*
X125296D01*
Y158951D01*
Y158642D01*
Y158334D01*
Y158025D01*
Y157716D01*
X126223D01*
Y157407D01*
Y157098D01*
X127149D01*
Y156789D01*
X127458D01*
Y156481D01*
X128384D01*
Y156172D01*
Y155863D01*
X131473D01*
Y155554D01*
X132708D01*
Y155245D01*
Y154936D01*
X136106D01*
Y155245D01*
X136415D01*
Y155554D01*
X138576D01*
Y155245D01*
X136723D01*
Y154936D01*
X136415D01*
Y154628D01*
X134870D01*
Y154319D01*
X133635D01*
Y154010D01*
X131782D01*
Y153701D01*
Y153392D01*
X126223D01*
Y153083D01*
X125914D01*
Y153392D01*
X113560D01*
Y153083D01*
X106147D01*
Y152774D01*
X105839D01*
Y152465D01*
X101823D01*
Y152157D01*
X98426D01*
Y151848D01*
X95338D01*
Y151539D01*
Y151230D01*
X92249D01*
Y150921D01*
X89778D01*
Y150612D01*
X87925D01*
Y150304D01*
X87616D01*
Y149995D01*
X85763D01*
Y149686D01*
X83601D01*
Y149377D01*
X83293D01*
Y149068D01*
X81439D01*
Y148759D01*
X79586D01*
Y148451D01*
X77733D01*
Y148142D01*
X77424D01*
Y147833D01*
X75880D01*
Y147524D01*
X74336D01*
Y147215D01*
X72174D01*
Y146906D01*
X71865D01*
Y146597D01*
X69394D01*
Y146289D01*
X66924D01*
Y145980D01*
X64762D01*
Y145671D01*
X64453D01*
Y145362D01*
X61055D01*
Y145053D01*
X57967D01*
Y144744D01*
Y144436D01*
X54261D01*
Y144127D01*
X49319D01*
Y144436D01*
X49937D01*
Y144744D01*
Y145053D01*
Y145362D01*
X48702D01*
Y145671D01*
Y145980D01*
Y146289D01*
Y146597D01*
Y146906D01*
Y147215D01*
Y147524D01*
Y147833D01*
Y148142D01*
Y148451D01*
Y148759D01*
Y149068D01*
X48393D01*
Y149377D01*
Y149686D01*
Y149995D01*
Y150304D01*
Y150612D01*
Y150921D01*
Y151230D01*
Y151539D01*
Y151848D01*
Y152157D01*
Y152465D01*
Y152774D01*
Y153083D01*
Y153392D01*
Y153701D01*
Y154010D01*
Y154319D01*
Y154628D01*
Y154936D01*
Y155245D01*
Y155554D01*
Y155863D01*
Y156172D01*
Y156481D01*
Y156789D01*
Y157098D01*
Y157407D01*
Y157716D01*
Y158025D01*
Y158334D01*
Y158642D01*
Y158951D01*
Y159260D01*
Y159569D01*
Y159878D01*
Y160187D01*
Y160496D01*
Y160804D01*
Y161113D01*
Y161422D01*
Y161731D01*
Y162040D01*
Y162349D01*
Y162657D01*
Y162966D01*
Y163275D01*
Y163584D01*
X47775D01*
Y163893D01*
Y164202D01*
Y164511D01*
Y164820D01*
Y165128D01*
Y165437D01*
Y165746D01*
Y166055D01*
Y166364D01*
Y166673D01*
Y166981D01*
Y167290D01*
Y167599D01*
Y167908D01*
Y168217D01*
Y168526D01*
Y168834D01*
Y169143D01*
Y169452D01*
Y169761D01*
Y170070D01*
Y170379D01*
Y170688D01*
Y170996D01*
Y171305D01*
Y171614D01*
Y171923D01*
Y172232D01*
Y172541D01*
Y172850D01*
Y173158D01*
Y173467D01*
Y173776D01*
Y174085D01*
Y174394D01*
Y174703D01*
Y175012D01*
Y175320D01*
Y175629D01*
Y175938D01*
X48393D01*
Y176247D01*
Y176556D01*
Y176865D01*
Y177173D01*
Y177482D01*
X48702D01*
Y177791D01*
Y178100D01*
Y178409D01*
X49010D01*
Y178718D01*
X49319D01*
Y179026D01*
X49628D01*
Y179335D01*
X49937D01*
Y179644D01*
X50246D01*
Y179953D01*
X51172D01*
Y180262D01*
Y180571D01*
X51481D01*
Y180880D01*
X52099D01*
Y181188D01*
Y181497D01*
X52408D01*
Y181806D01*
X53334D01*
Y182115D01*
X53643D01*
Y182424D01*
X53952D01*
Y182733D01*
X54261D01*
Y183042D01*
X54878D01*
Y183350D01*
X55805D01*
Y183659D01*
Y183968D01*
X56114D01*
Y184277D01*
X57658D01*
Y184586D01*
X58276D01*
Y184895D01*
Y185204D01*
X59511D01*
Y185512D01*
X60747D01*
Y185821D01*
X61055D01*
Y186130D01*
X62291D01*
Y186439D01*
X63526D01*
Y186748D01*
X65070D01*
Y187057D01*
Y187365D01*
X66924D01*
Y187674D01*
X68468D01*
Y187983D01*
X70012D01*
Y188292D01*
X70321D01*
Y188601D01*
X72483D01*
Y188910D01*
X74954D01*
Y189218D01*
Y189527D01*
X77424D01*
Y189836D01*
X80822D01*
Y190145D01*
X85454D01*
Y190454D01*
Y190763D01*
X106456D01*
Y190454D01*
D02*
G37*
G36*
X154328Y156172D02*
Y155863D01*
X155872D01*
Y155554D01*
Y155245D01*
Y154936D01*
Y154628D01*
X155563D01*
Y154319D01*
X154945D01*
Y154010D01*
Y153701D01*
Y153392D01*
X154637D01*
Y153083D01*
X154019D01*
Y152774D01*
X153710D01*
Y152465D01*
X153401D01*
Y152157D01*
X152475D01*
Y151848D01*
X152166D01*
Y151539D01*
Y151230D01*
X151239D01*
Y150921D01*
X150930D01*
Y150612D01*
X150004D01*
Y150304D01*
Y149995D01*
X149077D01*
Y149686D01*
X148768D01*
Y149377D01*
Y149068D01*
X147842D01*
Y148759D01*
X147533D01*
Y148451D01*
X146607D01*
Y148142D01*
Y147833D01*
X145680D01*
Y147524D01*
X145371D01*
Y147215D01*
X144753D01*
Y146906D01*
X144445D01*
Y146597D01*
X143827D01*
Y146289D01*
X142900D01*
Y145980D01*
X142592D01*
Y145671D01*
X142283D01*
Y145362D01*
X141665D01*
Y145053D01*
X140738D01*
Y144744D01*
Y144436D01*
X139812D01*
Y144127D01*
X139194D01*
Y143818D01*
X138268D01*
Y143509D01*
Y143200D01*
X137650D01*
Y142891D01*
X137032D01*
Y142582D01*
X136106D01*
Y142273D01*
Y141965D01*
X135179D01*
Y141656D01*
X134561D01*
Y141347D01*
X134253D01*
Y141038D01*
X133635D01*
Y140729D01*
X132399D01*
Y140420D01*
X131782D01*
Y140112D01*
Y139803D01*
X130855D01*
Y139494D01*
X130237D01*
Y139185D01*
X129002D01*
Y138876D01*
X128693D01*
Y138567D01*
X128076D01*
Y138259D01*
X127149D01*
Y137950D01*
Y137641D01*
X126840D01*
Y137332D01*
X125914D01*
Y137023D01*
X124987D01*
Y136714D01*
Y136405D01*
X124369D01*
Y136097D01*
Y135788D01*
Y135479D01*
Y135170D01*
Y134861D01*
Y134552D01*
Y134243D01*
Y133935D01*
Y133626D01*
X124987D01*
Y133317D01*
Y133008D01*
X124061D01*
Y132699D01*
Y132390D01*
Y132081D01*
Y131773D01*
Y131464D01*
Y131155D01*
Y130846D01*
X124678D01*
Y130537D01*
X124369D01*
Y130228D01*
X124678D01*
Y129920D01*
X124987D01*
Y129611D01*
Y129302D01*
X125296D01*
Y128993D01*
Y128684D01*
Y128375D01*
X125914D01*
Y128067D01*
Y127758D01*
Y127449D01*
X126223D01*
Y127140D01*
Y126831D01*
Y126522D01*
Y126213D01*
Y125905D01*
Y125596D01*
Y125287D01*
Y124978D01*
Y124669D01*
Y124360D01*
Y124051D01*
Y123743D01*
Y123434D01*
Y123125D01*
Y122816D01*
Y122507D01*
Y122198D01*
Y121889D01*
Y121581D01*
Y121272D01*
Y120963D01*
Y120654D01*
Y120345D01*
Y120036D01*
Y119728D01*
Y119419D01*
Y119110D01*
Y118801D01*
Y118492D01*
Y118183D01*
Y117875D01*
Y117566D01*
Y117257D01*
Y116948D01*
Y116639D01*
Y116330D01*
Y116021D01*
Y115712D01*
Y115404D01*
Y115095D01*
Y114786D01*
Y114477D01*
Y114168D01*
Y113859D01*
Y113551D01*
Y113242D01*
Y112933D01*
Y112624D01*
Y112315D01*
Y112006D01*
Y111697D01*
Y111389D01*
Y111080D01*
Y110771D01*
Y110462D01*
Y110153D01*
Y109844D01*
Y109536D01*
Y109227D01*
X125914D01*
Y108918D01*
X125605D01*
Y108609D01*
X124987D01*
Y108300D01*
Y107991D01*
X124061D01*
Y107683D01*
X122825D01*
Y107374D01*
X122516D01*
Y107065D01*
Y106756D01*
X121899D01*
Y106447D01*
Y106138D01*
Y105829D01*
X121590D01*
Y105520D01*
Y105212D01*
Y104903D01*
Y104594D01*
X120972D01*
Y104285D01*
Y103976D01*
X121281D01*
Y103667D01*
Y103359D01*
X120663D01*
Y103050D01*
Y102741D01*
Y102432D01*
Y102123D01*
X120354D01*
Y101814D01*
Y101505D01*
Y101197D01*
X119737D01*
Y100888D01*
Y100579D01*
Y100270D01*
Y99961D01*
X119428D01*
Y99652D01*
Y99344D01*
X119119D01*
Y99035D01*
Y98726D01*
Y98417D01*
Y98108D01*
Y97799D01*
X118501D01*
Y97490D01*
Y97182D01*
Y96873D01*
Y96564D01*
X118193D01*
Y96255D01*
Y95946D01*
Y95637D01*
Y95328D01*
X117884D01*
Y95020D01*
Y94711D01*
Y94402D01*
Y94093D01*
X117266D01*
Y93784D01*
Y93475D01*
Y93167D01*
Y92858D01*
X116957D01*
Y92549D01*
Y92240D01*
Y91931D01*
Y91622D01*
Y91313D01*
Y91005D01*
X116339D01*
Y90696D01*
Y90387D01*
Y90078D01*
Y89769D01*
X116648D01*
Y89460D01*
X116031D01*
Y89152D01*
Y88843D01*
Y88534D01*
Y88225D01*
Y87916D01*
Y87607D01*
Y87299D01*
Y86990D01*
Y86681D01*
Y86372D01*
X115722D01*
Y86063D01*
Y85754D01*
Y85445D01*
Y85136D01*
Y84828D01*
Y84519D01*
Y84210D01*
Y83901D01*
Y83592D01*
Y83283D01*
Y82975D01*
Y82666D01*
Y82357D01*
Y82048D01*
Y81739D01*
Y81430D01*
Y81121D01*
Y80813D01*
Y80504D01*
Y80195D01*
Y79886D01*
Y79577D01*
Y79268D01*
Y78960D01*
Y78651D01*
Y78342D01*
X115104D01*
Y78033D01*
Y77724D01*
Y77415D01*
Y77106D01*
Y76798D01*
Y76489D01*
Y76180D01*
Y75871D01*
Y75562D01*
Y75253D01*
Y74945D01*
Y74636D01*
Y74327D01*
Y74018D01*
Y73709D01*
X115722D01*
Y73400D01*
Y73091D01*
Y72783D01*
Y72474D01*
Y72165D01*
Y71856D01*
Y71547D01*
X116648D01*
Y71856D01*
Y72165D01*
Y72474D01*
Y72783D01*
Y73091D01*
Y73400D01*
Y73709D01*
Y74018D01*
Y74327D01*
Y74636D01*
Y74945D01*
X116957D01*
Y75253D01*
Y75562D01*
Y75871D01*
Y76180D01*
Y76489D01*
Y76798D01*
Y77106D01*
Y77415D01*
Y77724D01*
Y78033D01*
Y78342D01*
X118810D01*
Y78033D01*
X120354D01*
Y77724D01*
Y77415D01*
X121281D01*
Y77106D01*
X121899D01*
Y76798D01*
X122207D01*
Y76489D01*
X122825D01*
Y76180D01*
X123443D01*
Y75871D01*
X123752D01*
Y75562D01*
Y75253D01*
X124987D01*
Y74945D01*
X126223D01*
Y74636D01*
X127458D01*
Y74327D01*
X127767D01*
Y74018D01*
X129002D01*
Y73709D01*
X130546D01*
Y73400D01*
X130855D01*
Y73091D01*
X131782D01*
Y72783D01*
X133017D01*
Y72474D01*
X134253D01*
Y72165D01*
X134561D01*
Y71856D01*
X135797D01*
Y71547D01*
X137341D01*
Y71238D01*
X138576D01*
Y70929D01*
Y70621D01*
X139812D01*
Y70312D01*
X141047D01*
Y70003D01*
X142900D01*
Y69694D01*
Y69385D01*
X144136D01*
Y69076D01*
X145371D01*
Y68767D01*
Y68459D01*
X146607D01*
Y68150D01*
X147842D01*
Y67841D01*
X148768D01*
Y67532D01*
Y67223D01*
X150004D01*
Y66914D01*
X150930D01*
Y66606D01*
X152166D01*
Y66297D01*
Y65988D01*
X153401D01*
Y65679D01*
X154328D01*
Y65370D01*
Y65061D01*
X155563D01*
Y64753D01*
X156490D01*
Y64444D01*
X157725D01*
Y64135D01*
Y63826D01*
X158652D01*
Y63517D01*
X159887D01*
Y63208D01*
X160505D01*
Y62899D01*
X160814D01*
Y62591D01*
X161122D01*
Y62282D01*
X160814D01*
Y61973D01*
X160196D01*
Y61664D01*
Y61355D01*
Y61046D01*
Y60738D01*
X159887D01*
Y60429D01*
X159578D01*
Y60120D01*
X159269D01*
Y59811D01*
X158960D01*
Y59502D01*
X159269D01*
Y59193D01*
X158960D01*
Y58884D01*
X158652D01*
Y58575D01*
X158343D01*
Y58267D01*
X158034D01*
Y57958D01*
X157725D01*
Y57649D01*
X157416D01*
Y57340D01*
X156181D01*
Y57031D01*
Y56722D01*
Y56414D01*
X156799D01*
Y56105D01*
X155872D01*
Y55796D01*
X156181D01*
Y55487D01*
X155872D01*
Y55796D01*
X155563D01*
Y55487D01*
X155254D01*
Y55178D01*
X155563D01*
Y54869D01*
X154637D01*
Y54561D01*
X154945D01*
Y54252D01*
X154637D01*
Y54561D01*
X154328D01*
Y54252D01*
X154019D01*
Y53943D01*
X154328D01*
Y53634D01*
X153401D01*
Y53325D01*
X153710D01*
Y53016D01*
X153401D01*
Y53325D01*
X153092D01*
Y53016D01*
X152784D01*
Y52707D01*
X153092D01*
Y52399D01*
X152166D01*
Y52090D01*
X152475D01*
Y51781D01*
X151548D01*
Y51472D01*
X151857D01*
Y51163D01*
X150930D01*
Y50854D01*
X151239D01*
Y50546D01*
X150313D01*
Y50237D01*
X150622D01*
Y49928D01*
X149077D01*
Y49619D01*
Y49310D01*
Y49001D01*
X148768D01*
Y48692D01*
X148460D01*
Y48384D01*
X148151D01*
Y48075D01*
X147842D01*
Y47766D01*
X147533D01*
Y47457D01*
X147224D01*
Y47148D01*
X146915D01*
Y47457D01*
X146607D01*
Y47148D01*
X146298D01*
Y46839D01*
X145989D01*
Y46530D01*
X145680D01*
Y46222D01*
X144445D01*
Y45913D01*
Y45604D01*
X144136D01*
Y45295D01*
X144445D01*
Y44986D01*
X142592D01*
Y44677D01*
Y44368D01*
Y44060D01*
Y43751D01*
X142283D01*
Y43442D01*
X141974D01*
Y43133D01*
X141665D01*
Y43442D01*
X141356D01*
Y43133D01*
X141047D01*
Y42824D01*
X140738D01*
Y42515D01*
X139812D01*
Y42207D01*
X140121D01*
Y41898D01*
X139812D01*
Y42207D01*
X139503D01*
Y41898D01*
X139194D01*
Y41589D01*
X138885D01*
Y41280D01*
X138576D01*
Y40971D01*
X138268D01*
Y40662D01*
X137959D01*
Y40971D01*
X137650D01*
Y40662D01*
X137341D01*
Y40353D01*
X137032D01*
Y40662D01*
X136723D01*
Y40353D01*
X137032D01*
Y40045D01*
X136723D01*
Y40353D01*
X136415D01*
Y40045D01*
X136106D01*
Y39736D01*
X136415D01*
Y39427D01*
X136106D01*
Y39736D01*
X135797D01*
Y39427D01*
X135488D01*
Y39118D01*
X135179D01*
Y39427D01*
X134870D01*
Y39118D01*
X134561D01*
Y38809D01*
X133635D01*
Y38500D01*
X132708D01*
Y38192D01*
X131782D01*
Y37883D01*
X130855D01*
Y37574D01*
Y37265D01*
X129929D01*
Y36956D01*
Y36647D01*
X129620D01*
Y36956D01*
X129311D01*
Y36647D01*
X129620D01*
Y36338D01*
X129311D01*
Y36030D01*
X129002D01*
Y36338D01*
X128693D01*
Y36030D01*
X128384D01*
Y35721D01*
X127458D01*
Y35412D01*
X127767D01*
Y35103D01*
X127458D01*
Y35412D01*
X127149D01*
Y35721D01*
X126840D01*
Y35412D01*
X127149D01*
Y35103D01*
X126840D01*
Y34794D01*
X126531D01*
Y35103D01*
X126223D01*
Y34794D01*
X125914D01*
Y35103D01*
X125605D01*
Y34794D01*
Y34485D01*
X124369D01*
Y34176D01*
X124678D01*
Y33868D01*
X124369D01*
Y34176D01*
X124061D01*
Y33868D01*
X123134D01*
Y33559D01*
X122825D01*
Y33868D01*
X121899D01*
Y33559D01*
Y33250D01*
X121281D01*
Y32941D01*
X120972D01*
Y32632D01*
X120663D01*
Y32941D01*
X120354D01*
Y32632D01*
X120045D01*
Y32323D01*
X119737D01*
Y32632D01*
X119428D01*
Y32323D01*
X119119D01*
Y32632D01*
X118193D01*
Y32323D01*
Y32015D01*
X116957D01*
Y31706D01*
X117266D01*
Y31397D01*
X116957D01*
Y31706D01*
X116648D01*
Y31397D01*
X116339D01*
Y31706D01*
X115104D01*
Y31397D01*
Y31088D01*
X114486D01*
Y31397D01*
X113560D01*
Y31088D01*
Y30779D01*
X113251D01*
Y30470D01*
X112942D01*
Y30779D01*
X112015D01*
Y30470D01*
X112324D01*
Y30161D01*
X112015D01*
Y30470D01*
X111707D01*
Y30161D01*
X110780D01*
Y30470D01*
X109545D01*
Y30161D01*
Y29853D01*
X109236D01*
Y30161D01*
X108927D01*
Y29853D01*
X109236D01*
Y29544D01*
X108927D01*
Y29853D01*
X108001D01*
Y29544D01*
X107074D01*
Y29235D01*
X106765D01*
Y29544D01*
X105839D01*
Y29235D01*
X105530D01*
Y29544D01*
X104603D01*
Y29235D01*
Y28926D01*
X101206D01*
Y29235D01*
X100279D01*
Y28926D01*
Y28617D01*
X99970D01*
Y28308D01*
X99661D01*
Y28617D01*
X99353D01*
Y28926D01*
X99044D01*
Y28617D01*
X99353D01*
Y28308D01*
X99044D01*
Y28617D01*
X98735D01*
Y28308D01*
X98426D01*
Y28617D01*
X98117D01*
Y28308D01*
X97808D01*
Y28617D01*
X97500D01*
Y28308D01*
X97191D01*
Y28617D01*
X96882D01*
Y28926D01*
X96573D01*
Y28617D01*
X96882D01*
Y28308D01*
X96573D01*
Y28617D01*
X96264D01*
Y28308D01*
X95955D01*
Y28617D01*
X95647D01*
Y28308D01*
X95338D01*
Y28617D01*
X95029D01*
Y28308D01*
X94720D01*
Y28617D01*
X94411D01*
Y28926D01*
X94102D01*
Y28617D01*
X94411D01*
Y28308D01*
X94102D01*
Y28617D01*
X93793D01*
Y28308D01*
X93484D01*
Y28617D01*
X93176D01*
Y28308D01*
X92867D01*
Y28617D01*
X92558D01*
Y28308D01*
X92249D01*
Y28617D01*
X91940D01*
Y28926D01*
X91632D01*
Y28617D01*
X91940D01*
Y28308D01*
X91632D01*
Y28617D01*
X91323D01*
Y28308D01*
X91014D01*
Y28617D01*
X90705D01*
Y28308D01*
X90396D01*
Y28617D01*
X90087D01*
Y28308D01*
X89778D01*
Y28617D01*
X89469D01*
Y28926D01*
X89161D01*
Y28617D01*
X89469D01*
Y28308D01*
X89161D01*
Y28617D01*
X88852D01*
Y28308D01*
X88543D01*
Y28617D01*
X88234D01*
Y28308D01*
X87925D01*
Y28617D01*
X87616D01*
Y28926D01*
Y29235D01*
X86690D01*
Y28926D01*
X83601D01*
Y29235D01*
Y29544D01*
X82366D01*
Y29235D01*
X82057D01*
Y29544D01*
X81131D01*
Y29235D01*
X80822D01*
Y29544D01*
X80204D01*
Y29853D01*
X79586D01*
Y30161D01*
X79277D01*
Y29853D01*
X79586D01*
Y29544D01*
X79277D01*
Y29853D01*
X78351D01*
Y30161D01*
Y30470D01*
X77116D01*
Y30161D01*
X76189D01*
Y30470D01*
X75880D01*
Y30779D01*
X74645D01*
Y31088D01*
Y31397D01*
X73718D01*
Y31088D01*
X73409D01*
Y31397D01*
X73101D01*
Y31088D01*
X73409D01*
Y30779D01*
X73101D01*
Y31088D01*
X72792D01*
Y31397D01*
Y31706D01*
X71556D01*
Y31397D01*
X71248D01*
Y31706D01*
X70939D01*
Y32015D01*
X70012D01*
Y32323D01*
Y32632D01*
X68777D01*
Y32323D01*
X68468D01*
Y32632D01*
X68159D01*
Y32323D01*
X67850D01*
Y32632D01*
X67541D01*
Y32941D01*
X67232D01*
Y32632D01*
X66924D01*
Y32941D01*
X66615D01*
Y33250D01*
X65997D01*
Y33559D01*
Y33868D01*
X65070D01*
Y33559D01*
X64762D01*
Y33868D01*
X64453D01*
Y34176D01*
X64144D01*
Y33868D01*
X63835D01*
Y34176D01*
X63526D01*
Y34485D01*
X62600D01*
Y34794D01*
X62291D01*
Y35103D01*
X61982D01*
Y34794D01*
X61673D01*
Y35103D01*
X60747D01*
Y35412D01*
X60438D01*
Y35721D01*
X59511D01*
Y36030D01*
X59202D01*
Y36338D01*
X58276D01*
Y36647D01*
X57967D01*
Y36956D01*
Y37265D01*
X57349D01*
Y37574D01*
X57040D01*
Y37883D01*
X56423D01*
Y38192D01*
X55496D01*
Y38500D01*
X54261D01*
Y38809D01*
X53334D01*
Y39118D01*
X53025D01*
Y39427D01*
X52716D01*
Y39736D01*
X52408D01*
Y39427D01*
X52099D01*
Y39736D01*
X51790D01*
Y40045D01*
X51481D01*
Y40353D01*
X51172D01*
Y40662D01*
X50863D01*
Y40353D01*
X50555D01*
Y40662D01*
X50246D01*
Y40971D01*
X49937D01*
Y41280D01*
X49010D01*
Y41589D01*
X48702D01*
Y41898D01*
X48393D01*
Y42207D01*
X48084D01*
Y42515D01*
X47157D01*
Y42824D01*
X46848D01*
Y43133D01*
X46540D01*
Y43442D01*
X46231D01*
Y43751D01*
X45304D01*
Y44060D01*
X45613D01*
Y44368D01*
X45304D01*
Y44677D01*
Y44986D01*
X44069D01*
Y45295D01*
X43760D01*
Y45604D01*
Y45913D01*
Y46222D01*
X42833D01*
Y45913D01*
X42524D01*
Y46222D01*
X42216D01*
Y46530D01*
X41907D01*
Y46839D01*
X41598D01*
Y47148D01*
X41289D01*
Y47457D01*
X40363D01*
Y47766D01*
X40671D01*
Y48075D01*
X39745D01*
Y48384D01*
X40054D01*
Y48692D01*
X39127D01*
Y49001D01*
X39436D01*
Y49310D01*
X39127D01*
Y49619D01*
Y49928D01*
X37892D01*
Y50237D01*
X37583D01*
Y50546D01*
X37274D01*
Y50854D01*
X36965D01*
Y51163D01*
X36656D01*
Y51472D01*
X36348D01*
Y51781D01*
X36039D01*
Y52090D01*
X35730D01*
Y52399D01*
X35421D01*
Y52707D01*
X35112D01*
Y53016D01*
X34803D01*
Y53325D01*
X34495D01*
Y53634D01*
X34186D01*
Y53943D01*
X33877D01*
Y54252D01*
X33568D01*
Y54561D01*
X33259D01*
Y54869D01*
X32950D01*
Y55178D01*
X32641D01*
Y55487D01*
X32333D01*
Y55796D01*
X32024D01*
Y56105D01*
X31715D01*
Y56414D01*
Y56722D01*
Y57031D01*
Y57340D01*
X30479D01*
Y57649D01*
X30788D01*
Y57958D01*
X29862D01*
Y58267D01*
X30171D01*
Y58575D01*
X29244D01*
Y58884D01*
X29553D01*
Y59193D01*
X28935D01*
Y59502D01*
Y59811D01*
X28626D01*
Y60120D01*
X28317D01*
Y60429D01*
X28009D01*
Y60738D01*
X27700D01*
Y61046D01*
X28009D01*
Y61355D01*
Y61664D01*
Y61973D01*
X27082D01*
Y62282D01*
X26773D01*
Y62591D01*
Y62899D01*
Y63208D01*
Y63517D01*
X25538D01*
Y63826D01*
X25847D01*
Y64135D01*
X24920D01*
Y64444D01*
X25229D01*
Y64753D01*
X25847D01*
Y65061D01*
X26155D01*
Y65370D01*
Y65679D01*
X26464D01*
Y65988D01*
X27391D01*
Y66297D01*
Y66606D01*
X28626D01*
Y66914D01*
X29862D01*
Y67223D01*
X31097D01*
Y67532D01*
X31406D01*
Y67841D01*
X32950D01*
Y68150D01*
X34495D01*
Y68459D01*
X36656D01*
Y68767D01*
Y69076D01*
X38510D01*
Y69385D01*
X40671D01*
Y69694D01*
Y70003D01*
X42833D01*
Y70312D01*
X45304D01*
Y70621D01*
X47466D01*
Y70929D01*
Y71238D01*
X49628D01*
Y71547D01*
X51172D01*
Y71856D01*
X52716D01*
Y72165D01*
X53025D01*
Y72474D01*
X54261D01*
Y72783D01*
X54878D01*
Y73091D01*
X55805D01*
Y73400D01*
X56423D01*
Y73709D01*
X57040D01*
Y74018D01*
X57967D01*
Y74327D01*
Y74636D01*
X58276D01*
Y74945D01*
X58894D01*
Y75253D01*
X59202D01*
Y75562D01*
Y75871D01*
X59511D01*
Y76180D01*
X59820D01*
Y75871D01*
Y75562D01*
X59511D01*
Y75253D01*
Y74945D01*
Y74636D01*
Y74327D01*
Y74018D01*
Y73709D01*
Y73400D01*
Y73091D01*
X59820D01*
Y72783D01*
X60129D01*
Y72474D01*
Y72165D01*
Y71856D01*
Y71547D01*
Y71238D01*
Y70929D01*
Y70621D01*
X60438D01*
Y70312D01*
Y70003D01*
Y69694D01*
Y69385D01*
X61055D01*
Y69076D01*
Y68767D01*
Y68459D01*
Y68150D01*
X61364D01*
Y67841D01*
Y67532D01*
Y67223D01*
Y66914D01*
X61982D01*
Y66606D01*
X62291D01*
Y66297D01*
Y65988D01*
Y65679D01*
X62600D01*
Y65370D01*
X62909D01*
Y65061D01*
X63217D01*
Y64753D01*
X63526D01*
Y64444D01*
X63835D01*
Y64135D01*
X64144D01*
Y63826D01*
X64453D01*
Y63517D01*
Y63208D01*
X64762D01*
Y62899D01*
Y62591D01*
X65070D01*
Y62282D01*
Y61973D01*
X65379D01*
Y61664D01*
X65688D01*
Y61355D01*
X65997D01*
Y61046D01*
Y60738D01*
Y60429D01*
X66615D01*
Y60120D01*
X66306D01*
Y59811D01*
X66924D01*
Y59502D01*
Y59193D01*
X67232D01*
Y58884D01*
Y58575D01*
Y58267D01*
X67850D01*
Y57958D01*
X68159D01*
Y57649D01*
X68468D01*
Y57340D01*
X68777D01*
Y57031D01*
X69086D01*
Y56722D01*
X69394D01*
Y56414D01*
X70012D01*
Y56105D01*
Y55796D01*
X70321D01*
Y55487D01*
X71248D01*
Y55178D01*
X71556D01*
Y54869D01*
Y54561D01*
X72483D01*
Y54252D01*
X73409D01*
Y53943D01*
Y53634D01*
X74336D01*
Y53325D01*
X74645D01*
Y53016D01*
X74954D01*
Y52707D01*
Y52399D01*
X75571D01*
Y52090D01*
X75880D01*
Y51781D01*
Y51472D01*
Y51163D01*
X76189D01*
Y50854D01*
X76807D01*
Y50546D01*
Y50237D01*
X77116D01*
Y49928D01*
Y49619D01*
X77424D01*
Y49310D01*
X77733D01*
Y49001D01*
X78042D01*
Y48692D01*
X78351D01*
Y48384D01*
Y48075D01*
Y47766D01*
X78969D01*
Y47457D01*
X79277D01*
Y47148D01*
Y46839D01*
Y46530D01*
X79586D01*
Y46222D01*
X79895D01*
Y45913D01*
Y45604D01*
Y45295D01*
X80513D01*
Y44986D01*
X80822D01*
Y44677D01*
X81131D01*
Y44368D01*
X81439D01*
Y44060D01*
X81131D01*
Y43751D01*
X81439D01*
Y43442D01*
X81748D01*
Y43133D01*
X82057D01*
Y42824D01*
Y42515D01*
Y42207D01*
X82675D01*
Y41898D01*
X82984D01*
Y41589D01*
X83293D01*
Y41280D01*
Y40971D01*
Y40662D01*
X83910D01*
Y40353D01*
X84219D01*
Y40045D01*
Y39736D01*
Y39427D01*
X84837D01*
Y39118D01*
Y38809D01*
X85146D01*
Y38500D01*
X85454D01*
Y38192D01*
Y37883D01*
Y37574D01*
X86072D01*
Y37265D01*
X86381D01*
Y36956D01*
Y36647D01*
Y36338D01*
X86999D01*
Y36030D01*
X87308D01*
Y35721D01*
Y35412D01*
Y35103D01*
X87616D01*
Y34794D01*
X88234D01*
Y34485D01*
Y34176D01*
X88543D01*
Y33868D01*
Y33559D01*
Y33250D01*
X89161D01*
Y32941D01*
X89469D01*
Y32632D01*
Y32323D01*
Y32015D01*
X89778D01*
Y31706D01*
X91014D01*
Y32015D01*
X91632D01*
Y32323D01*
Y32632D01*
Y32941D01*
X90396D01*
Y33250D01*
Y33559D01*
X90705D01*
Y33868D01*
X91014D01*
Y34176D01*
X91632D01*
Y34485D01*
Y34794D01*
Y35103D01*
X91940D01*
Y35412D01*
X92249D01*
Y35721D01*
Y36030D01*
Y36338D01*
X92558D01*
Y36647D01*
X93176D01*
Y36956D01*
Y37265D01*
Y37574D01*
X93484D01*
Y37883D01*
X93793D01*
Y38192D01*
X94102D01*
Y38500D01*
Y38809D01*
X94411D01*
Y39118D01*
Y39427D01*
X95029D01*
Y39736D01*
Y40045D01*
Y40353D01*
X95338D01*
Y40662D01*
X95647D01*
Y40971D01*
X96264D01*
Y41280D01*
Y41589D01*
Y41898D01*
X96573D01*
Y42207D01*
X97191D01*
Y42515D01*
Y42824D01*
X96882D01*
Y43133D01*
X97500D01*
Y43442D01*
X97808D01*
Y43751D01*
Y44060D01*
X98117D01*
Y44368D01*
X98735D01*
Y44677D01*
Y44986D01*
Y45295D01*
X99044D01*
Y45604D01*
X99353D01*
Y45913D01*
X99661D01*
Y46222D01*
X99970D01*
Y46530D01*
Y46839D01*
X100279D01*
Y47148D01*
Y47457D01*
X100897D01*
Y47766D01*
X101206D01*
Y48075D01*
Y48384D01*
Y48692D01*
X101515D01*
Y49001D01*
X102132D01*
Y49310D01*
Y49619D01*
Y49928D01*
X102441D01*
Y50237D01*
X103059D01*
Y50546D01*
Y50854D01*
Y51163D01*
X103368D01*
Y51472D01*
X103676D01*
Y51781D01*
X103985D01*
Y52090D01*
X103676D01*
Y52399D01*
X104294D01*
Y52707D01*
Y53016D01*
Y53325D01*
X104603D01*
Y53634D01*
Y53943D01*
Y54252D01*
X104912D01*
Y54561D01*
X105530D01*
Y54869D01*
Y55178D01*
Y55487D01*
X105839D01*
Y55796D01*
Y56105D01*
Y56414D01*
X106456D01*
Y56722D01*
Y57031D01*
X106765D01*
Y57340D01*
Y57649D01*
Y57958D01*
X107383D01*
Y58267D01*
X107074D01*
Y58575D01*
Y58884D01*
X107692D01*
Y59193D01*
Y59502D01*
Y59811D01*
X108001D01*
Y60120D01*
Y60429D01*
X108618D01*
Y60738D01*
Y61046D01*
X108309D01*
Y61355D01*
X108927D01*
Y61664D01*
Y61973D01*
Y62282D01*
X109236D01*
Y62591D01*
Y62899D01*
Y63208D01*
Y63517D01*
X109853D01*
Y63826D01*
Y64135D01*
Y64444D01*
X110162D01*
Y64753D01*
Y65061D01*
Y65370D01*
Y65679D01*
Y65988D01*
X110471D01*
Y66297D01*
X110780D01*
Y66606D01*
Y66914D01*
Y67223D01*
Y67532D01*
Y67841D01*
Y68150D01*
Y68459D01*
Y68767D01*
Y69076D01*
Y69385D01*
Y69694D01*
Y70003D01*
Y70312D01*
Y70621D01*
Y70929D01*
X110471D01*
Y71238D01*
X110162D01*
Y71547D01*
Y71856D01*
Y72165D01*
X109545D01*
Y72474D01*
X109236D01*
Y72783D01*
X106765D01*
Y72474D01*
X105839D01*
Y72165D01*
X104603D01*
Y71856D01*
Y71547D01*
X103368D01*
Y71238D01*
X102132D01*
Y70929D01*
X101515D01*
Y70621D01*
X101206D01*
Y70312D01*
X99970D01*
Y70003D01*
X98735D01*
Y69694D01*
Y69385D01*
X97500D01*
Y69076D01*
X96882D01*
Y69385D01*
X96573D01*
Y69694D01*
Y70003D01*
X95955D01*
Y70312D01*
X95647D01*
Y70621D01*
Y70929D01*
X94720D01*
Y71238D01*
X94102D01*
Y71547D01*
X93176D01*
Y71856D01*
Y72165D01*
X92249D01*
Y72474D01*
X91014D01*
Y72783D01*
X89469D01*
Y73091D01*
X89161D01*
Y73400D01*
X82984D01*
Y73091D01*
Y72783D01*
X81439D01*
Y72474D01*
X79586D01*
Y72165D01*
X78351D01*
Y71856D01*
Y71547D01*
X77424D01*
Y71238D01*
X77116D01*
Y70929D01*
X76807D01*
Y70621D01*
Y70312D01*
X76189D01*
Y70003D01*
X75880D01*
Y69694D01*
Y69385D01*
X75262D01*
Y69076D01*
Y68767D01*
X74954D01*
Y68459D01*
Y68150D01*
Y67841D01*
X74645D01*
Y67532D01*
Y67223D01*
Y66914D01*
Y66606D01*
Y66297D01*
Y65988D01*
Y65679D01*
Y65370D01*
Y65061D01*
Y64753D01*
Y64444D01*
Y64135D01*
Y63826D01*
Y63517D01*
Y63208D01*
Y62899D01*
Y62591D01*
Y62282D01*
Y61973D01*
Y61664D01*
X74954D01*
Y61355D01*
Y61046D01*
Y60738D01*
Y60429D01*
Y60120D01*
X75262D01*
Y59811D01*
Y59502D01*
Y59193D01*
Y58884D01*
X75880D01*
Y58575D01*
Y58267D01*
Y57958D01*
Y57649D01*
X76189D01*
Y57340D01*
Y57031D01*
Y56722D01*
Y56414D01*
X76498D01*
Y56105D01*
X76807D01*
Y55796D01*
X76189D01*
Y56105D01*
Y56414D01*
X74645D01*
Y56722D01*
X73718D01*
Y57031D01*
Y57340D01*
X72792D01*
Y57649D01*
X72483D01*
Y57958D01*
X72174D01*
Y58267D01*
X71865D01*
Y58575D01*
X71556D01*
Y58884D01*
X71248D01*
Y59193D01*
X70939D01*
Y59502D01*
X70630D01*
Y59811D01*
X70321D01*
Y60120D01*
X70012D01*
Y60429D01*
Y60738D01*
Y61046D01*
X69394D01*
Y61355D01*
X69086D01*
Y61664D01*
Y61973D01*
X68468D01*
Y62282D01*
X68159D01*
Y62591D01*
Y62899D01*
Y63208D01*
X67850D01*
Y63517D01*
X67232D01*
Y63826D01*
Y64135D01*
X66924D01*
Y64444D01*
Y64753D01*
X66615D01*
Y65061D01*
X66306D01*
Y65370D01*
X65997D01*
Y65679D01*
Y65988D01*
X65688D01*
Y66297D01*
Y66606D01*
X65070D01*
Y66914D01*
X65379D01*
Y67223D01*
Y67532D01*
X64762D01*
Y67841D01*
Y68150D01*
X64453D01*
Y68459D01*
X64144D01*
Y68767D01*
X63835D01*
Y69076D01*
X64144D01*
Y69385D01*
Y69694D01*
X63835D01*
Y70003D01*
X63526D01*
Y70312D01*
Y70621D01*
Y70929D01*
X63217D01*
Y71238D01*
Y71547D01*
Y71856D01*
Y72165D01*
X62600D01*
Y72474D01*
Y72783D01*
Y73091D01*
Y73400D01*
Y73709D01*
Y74018D01*
Y74327D01*
Y74636D01*
X62291D01*
Y74945D01*
Y75253D01*
Y75562D01*
Y75871D01*
Y76180D01*
Y76489D01*
Y76798D01*
Y77106D01*
Y77415D01*
Y77724D01*
Y78033D01*
Y78342D01*
Y78651D01*
Y78960D01*
Y79268D01*
Y79577D01*
Y79886D01*
Y80195D01*
Y80504D01*
Y80813D01*
Y81121D01*
Y81430D01*
Y81739D01*
Y82048D01*
Y82357D01*
Y82666D01*
Y82975D01*
Y83283D01*
Y83592D01*
Y83901D01*
Y84210D01*
Y84519D01*
Y84828D01*
Y85136D01*
Y85445D01*
Y85754D01*
Y86063D01*
Y86372D01*
Y86681D01*
Y86990D01*
Y87299D01*
Y87607D01*
Y87916D01*
Y88225D01*
Y88534D01*
X62600D01*
Y88843D01*
Y89152D01*
Y89460D01*
Y89769D01*
Y90078D01*
Y90387D01*
Y90696D01*
Y91005D01*
Y91313D01*
Y91622D01*
Y91931D01*
Y92240D01*
Y92549D01*
X62291D01*
Y92858D01*
X61982D01*
Y93167D01*
Y93475D01*
Y93784D01*
X61364D01*
Y94093D01*
Y94402D01*
X61055D01*
Y94711D01*
Y95020D01*
Y95328D01*
Y95637D01*
Y95946D01*
Y96255D01*
Y96564D01*
Y96873D01*
Y97182D01*
X60438D01*
Y97490D01*
X60747D01*
Y97799D01*
Y98108D01*
Y98417D01*
Y98726D01*
Y99035D01*
X60438D01*
Y99344D01*
X60129D01*
Y99652D01*
Y99961D01*
Y100270D01*
Y100579D01*
Y100888D01*
X59820D01*
Y101197D01*
Y101505D01*
Y101814D01*
Y102123D01*
Y102432D01*
X59511D01*
Y102741D01*
X59202D01*
Y103050D01*
Y103359D01*
X55496D01*
Y103667D01*
X55187D01*
Y103976D01*
X54261D01*
Y104285D01*
X53643D01*
Y104594D01*
X53025D01*
Y104903D01*
X52716D01*
Y105212D01*
X52408D01*
Y105520D01*
X52099D01*
Y105829D01*
X51790D01*
Y106138D01*
Y106447D01*
Y106756D01*
X51172D01*
Y107065D01*
Y107374D01*
X50863D01*
Y107683D01*
X50246D01*
Y107991D01*
X50555D01*
Y108300D01*
Y108609D01*
X49937D01*
Y108918D01*
X49628D01*
Y109227D01*
Y109536D01*
Y109844D01*
X49010D01*
Y110153D01*
Y110462D01*
Y110771D01*
X48702D01*
Y111080D01*
Y111389D01*
Y111697D01*
Y112006D01*
X48393D01*
Y112315D01*
Y112624D01*
Y112933D01*
Y113242D01*
X47775D01*
Y113551D01*
Y113859D01*
Y114168D01*
Y114477D01*
X47466D01*
Y114786D01*
Y115095D01*
Y115404D01*
Y115712D01*
Y116021D01*
Y116330D01*
Y116639D01*
X46848D01*
Y116948D01*
X47157D01*
Y117257D01*
Y117566D01*
Y117875D01*
X46848D01*
Y118183D01*
X47466D01*
Y118492D01*
Y118801D01*
Y119110D01*
X46848D01*
Y119419D01*
X47157D01*
Y119728D01*
Y120036D01*
X46540D01*
Y120345D01*
Y120654D01*
Y120963D01*
X45922D01*
Y121272D01*
X42216D01*
Y121581D01*
X39436D01*
Y121889D01*
X39127D01*
Y122198D01*
X37583D01*
Y122507D01*
X36039D01*
Y122816D01*
X35112D01*
Y123125D01*
Y123434D01*
X33877D01*
Y123743D01*
X32950D01*
Y124051D01*
X32641D01*
Y124360D01*
X31715D01*
Y124669D01*
X30788D01*
Y124978D01*
X30171D01*
Y125287D01*
X29862D01*
Y125596D01*
X29244D01*
Y125905D01*
X28317D01*
Y126213D01*
X28009D01*
Y126522D01*
X27700D01*
Y126831D01*
X27082D01*
Y127140D01*
X26155D01*
Y127449D01*
X25538D01*
Y127758D01*
X25229D01*
Y128067D01*
X24920D01*
Y128375D01*
X24611D01*
Y128684D01*
X24303D01*
Y128993D01*
X23685D01*
Y129302D01*
Y129611D01*
X23376D01*
Y129920D01*
X23067D01*
Y130228D01*
X22758D01*
Y130537D01*
X22449D01*
Y130846D01*
Y131155D01*
Y131464D01*
X21832D01*
Y131773D01*
X22140D01*
Y132081D01*
Y132390D01*
X21523D01*
Y132699D01*
Y133008D01*
X21214D01*
Y133317D01*
Y133626D01*
Y133935D01*
Y134243D01*
X20905D01*
Y134552D01*
X20596D01*
Y134861D01*
X20905D01*
Y135170D01*
Y135479D01*
Y135788D01*
Y136097D01*
X20596D01*
Y136405D01*
X21214D01*
Y136714D01*
Y137023D01*
Y137332D01*
Y137641D01*
X21523D01*
Y137950D01*
Y138259D01*
Y138567D01*
X22140D01*
Y138876D01*
Y139185D01*
Y139494D01*
X22449D01*
Y139803D01*
X22758D01*
Y140112D01*
X23685D01*
Y140420D01*
Y140729D01*
X23994D01*
Y141038D01*
X24303D01*
Y141347D01*
X25229D01*
Y141656D01*
Y141965D01*
X26155D01*
Y142273D01*
X27391D01*
Y142582D01*
Y142891D01*
X36656D01*
Y142582D01*
X36965D01*
Y142273D01*
X67232D01*
Y142582D01*
Y142891D01*
X72483D01*
Y143200D01*
X76189D01*
Y143509D01*
X80204D01*
Y143818D01*
X80513D01*
Y144127D01*
X84528D01*
Y144436D01*
X88543D01*
Y144744D01*
X92558D01*
Y145053D01*
X92867D01*
Y145362D01*
X96573D01*
Y145671D01*
X99970D01*
Y145980D01*
Y146289D01*
X103368D01*
Y146597D01*
X106765D01*
Y146906D01*
X110471D01*
Y147215D01*
Y147524D01*
X113560D01*
Y147833D01*
X116339D01*
Y148142D01*
X118810D01*
Y148451D01*
X119119D01*
Y148759D01*
X120972D01*
Y149068D01*
X122825D01*
Y149377D01*
Y149686D01*
X124987D01*
Y149995D01*
X126531D01*
Y150304D01*
X128693D01*
Y150612D01*
Y150921D01*
X130546D01*
Y151230D01*
X132091D01*
Y151539D01*
X133635D01*
Y151848D01*
X133944D01*
Y152157D01*
X135488D01*
Y152465D01*
X137341D01*
Y152774D01*
Y153083D01*
X138885D01*
Y153392D01*
X140121D01*
Y153701D01*
X141974D01*
Y154010D01*
Y154319D01*
X144445D01*
Y154628D01*
X146607D01*
Y154936D01*
X148151D01*
Y155245D01*
Y155554D01*
X149386D01*
Y155863D01*
X151548D01*
Y156172D01*
X151857D01*
Y156481D01*
X154328D01*
Y156172D01*
D02*
G37*
%LPC*%
G36*
X119428Y155863D02*
X118193D01*
Y155554D01*
X117266D01*
Y155245D01*
Y154936D01*
Y154628D01*
Y154319D01*
X119428D01*
Y154628D01*
X120045D01*
Y154936D01*
Y155245D01*
Y155554D01*
X119428D01*
Y155863D01*
D02*
G37*
G36*
X111089Y155554D02*
X108309D01*
Y155245D01*
Y154936D01*
Y154628D01*
Y154319D01*
Y154010D01*
Y153701D01*
X109545D01*
Y154010D01*
X109853D01*
Y154319D01*
X111089D01*
Y154628D01*
Y154936D01*
Y155245D01*
Y155554D01*
D02*
G37*
G36*
X103368Y154628D02*
X100897D01*
Y154319D01*
X100279D01*
Y154010D01*
Y153701D01*
Y153392D01*
X103985D01*
Y153701D01*
Y154010D01*
Y154319D01*
X103368D01*
Y154628D01*
D02*
G37*
G36*
X96264Y154010D02*
X94720D01*
Y153701D01*
X94411D01*
Y153392D01*
X92867D01*
Y153083D01*
Y152774D01*
Y152465D01*
Y152157D01*
X96264D01*
Y152465D01*
Y152774D01*
Y153083D01*
Y153392D01*
Y153701D01*
Y154010D01*
D02*
G37*
G36*
X87308Y152465D02*
X86072D01*
Y152157D01*
X85146D01*
Y151848D01*
Y151539D01*
Y151230D01*
Y150921D01*
X87308D01*
Y151230D01*
Y151539D01*
Y151848D01*
Y152157D01*
Y152465D01*
D02*
G37*
G36*
X79895Y150921D02*
X78351D01*
Y150612D01*
X78042D01*
Y150304D01*
X77733D01*
Y149995D01*
Y149686D01*
Y149377D01*
X78042D01*
Y149068D01*
X79895D01*
Y149377D01*
X80204D01*
Y149686D01*
X80513D01*
Y149995D01*
Y150304D01*
Y150612D01*
X79895D01*
Y150921D01*
D02*
G37*
G36*
X74645Y149686D02*
X73409D01*
Y149377D01*
X73101D01*
Y149068D01*
X71556D01*
Y148759D01*
Y148451D01*
Y148142D01*
Y147833D01*
X73718D01*
Y148142D01*
X74027D01*
Y148451D01*
Y148759D01*
X74645D01*
Y149068D01*
Y149377D01*
Y149686D01*
D02*
G37*
G36*
X68159Y148759D02*
X67232D01*
Y148451D01*
X66306D01*
Y148142D01*
Y147833D01*
Y147524D01*
Y147215D01*
X66615D01*
Y146906D01*
X68159D01*
Y147215D01*
Y147524D01*
X68777D01*
Y147833D01*
Y148142D01*
Y148451D01*
X68159D01*
Y148759D01*
D02*
G37*
G36*
X63217Y147524D02*
X61673D01*
Y147215D01*
Y146906D01*
Y146597D01*
Y146289D01*
X62600D01*
Y146597D01*
X63217D01*
Y146906D01*
Y147215D01*
Y147524D01*
D02*
G37*
G36*
X104294Y187674D02*
X88234D01*
Y187365D01*
X82984D01*
Y187057D01*
X79895D01*
Y186748D01*
X79586D01*
Y186439D01*
X76807D01*
Y186130D01*
X74645D01*
Y185821D01*
X72792D01*
Y185512D01*
X72483D01*
Y185204D01*
X70321D01*
Y184895D01*
X68777D01*
Y184586D01*
X68468D01*
Y184277D01*
X66924D01*
Y183968D01*
X65688D01*
Y183659D01*
X64144D01*
Y183350D01*
X63835D01*
Y183042D01*
X62600D01*
Y182733D01*
X61364D01*
Y182424D01*
X60438D01*
Y182115D01*
X60129D01*
Y181806D01*
X59202D01*
Y181497D01*
X57967D01*
Y181188D01*
Y180880D01*
X57658D01*
Y180571D01*
X56732D01*
Y180262D01*
X56114D01*
Y179953D01*
X55805D01*
Y179644D01*
X55496D01*
Y179335D01*
X55187D01*
Y179026D01*
X54261D01*
Y178718D01*
Y178409D01*
X53952D01*
Y178100D01*
X53334D01*
Y177791D01*
Y177482D01*
X53025D01*
Y177173D01*
X52716D01*
Y176865D01*
X51481D01*
Y176556D01*
Y176247D01*
X51790D01*
Y175938D01*
X51172D01*
Y175629D01*
Y175320D01*
Y175012D01*
Y174703D01*
Y174394D01*
Y174085D01*
Y173776D01*
X50863D01*
Y173467D01*
Y173158D01*
Y172850D01*
Y172541D01*
Y172232D01*
Y171923D01*
X51172D01*
Y171614D01*
Y171305D01*
Y170996D01*
Y170688D01*
Y170379D01*
Y170070D01*
Y169761D01*
Y169452D01*
Y169143D01*
Y168834D01*
Y168526D01*
Y168217D01*
Y167908D01*
Y167599D01*
Y167290D01*
Y166981D01*
Y166673D01*
Y166364D01*
Y166055D01*
Y165746D01*
Y165437D01*
Y165128D01*
Y164820D01*
Y164511D01*
Y164202D01*
Y163893D01*
Y163584D01*
Y163275D01*
Y162966D01*
Y162657D01*
Y162349D01*
Y162040D01*
Y161731D01*
Y161422D01*
Y161113D01*
Y160804D01*
Y160496D01*
Y160187D01*
Y159878D01*
Y159569D01*
Y159260D01*
Y158951D01*
Y158642D01*
Y158334D01*
Y158025D01*
Y157716D01*
Y157407D01*
Y157098D01*
Y156789D01*
Y156481D01*
Y156172D01*
Y155863D01*
Y155554D01*
Y155245D01*
Y154936D01*
Y154628D01*
Y154319D01*
Y154010D01*
Y153701D01*
Y153392D01*
Y153083D01*
X51481D01*
Y152774D01*
X51790D01*
Y152465D01*
X51481D01*
Y152157D01*
Y151848D01*
Y151539D01*
Y151230D01*
Y150921D01*
Y150612D01*
Y150304D01*
Y149995D01*
Y149686D01*
Y149377D01*
Y149068D01*
Y148759D01*
Y148451D01*
Y148142D01*
Y147833D01*
Y147524D01*
Y147215D01*
Y146906D01*
Y146597D01*
Y146289D01*
X52408D01*
Y146597D01*
X52716D01*
Y146906D01*
X53952D01*
Y147215D01*
X54261D01*
Y147524D01*
X56423D01*
Y147833D01*
X57967D01*
Y148142D01*
X59820D01*
Y148451D01*
X60129D01*
Y148759D01*
X62291D01*
Y149068D01*
X63835D01*
Y149377D01*
Y149686D01*
X65997D01*
Y149995D01*
X68159D01*
Y150304D01*
X70321D01*
Y150612D01*
Y150921D01*
X72483D01*
Y151230D01*
X74954D01*
Y151539D01*
X77424D01*
Y151848D01*
Y152157D01*
X79586D01*
Y152465D01*
X81748D01*
Y152774D01*
Y153083D01*
X83910D01*
Y153392D01*
X86072D01*
Y153701D01*
X88543D01*
Y154010D01*
Y154319D01*
X90705D01*
Y154628D01*
X93484D01*
Y154936D01*
X96573D01*
Y155245D01*
Y155554D01*
X99353D01*
Y155863D01*
X103368D01*
Y156172D01*
Y156481D01*
X107692D01*
Y156789D01*
X111707D01*
Y157098D01*
X118193D01*
Y157407D01*
Y157716D01*
X121590D01*
Y158025D01*
Y158334D01*
Y158642D01*
X121281D01*
Y158951D01*
Y159260D01*
Y159569D01*
Y159878D01*
X120663D01*
Y160187D01*
Y160496D01*
Y160804D01*
X120354D01*
Y161113D01*
Y161422D01*
Y161731D01*
Y162040D01*
X120045D01*
Y162349D01*
Y162657D01*
X119428D01*
Y162966D01*
Y163275D01*
Y163584D01*
Y163893D01*
Y164202D01*
X119119D01*
Y164511D01*
Y164820D01*
X118501D01*
Y165128D01*
X118810D01*
Y165437D01*
Y165746D01*
Y166055D01*
X118193D01*
Y166364D01*
Y166673D01*
Y166981D01*
Y167290D01*
Y167599D01*
X117884D01*
Y167908D01*
Y168217D01*
X117266D01*
Y168526D01*
Y168834D01*
Y169143D01*
Y169452D01*
X116957D01*
Y169761D01*
Y170070D01*
Y170379D01*
X116648D01*
Y170688D01*
Y170996D01*
Y171305D01*
Y171614D01*
X116031D01*
Y171923D01*
Y172232D01*
Y172541D01*
X115722D01*
Y172850D01*
Y173158D01*
Y173467D01*
Y173776D01*
X115104D01*
Y174085D01*
X115413D01*
Y174394D01*
Y174703D01*
X114795D01*
Y175012D01*
Y175320D01*
Y175629D01*
X114486D01*
Y175938D01*
Y176247D01*
X113869D01*
Y176556D01*
Y176865D01*
Y177173D01*
X113560D01*
Y177482D01*
Y177791D01*
Y178100D01*
X113251D01*
Y178409D01*
Y178718D01*
Y179026D01*
X112633D01*
Y179335D01*
Y179644D01*
X112324D01*
Y179953D01*
Y180262D01*
Y180571D01*
X111707D01*
Y180880D01*
X112015D01*
Y181188D01*
Y181497D01*
X111398D01*
Y181806D01*
X111089D01*
Y182115D01*
Y182424D01*
Y182733D01*
X110471D01*
Y183042D01*
Y183350D01*
Y183659D01*
X110162D01*
Y183968D01*
X109545D01*
Y184277D01*
X109236D01*
Y184586D01*
Y184895D01*
Y185204D01*
X108927D01*
Y185512D01*
X108618D01*
Y185821D01*
X108309D01*
Y186130D01*
X108001D01*
Y186439D01*
X107692D01*
Y186748D01*
X107383D01*
Y187057D01*
X106147D01*
Y187365D01*
X104294D01*
Y187674D01*
D02*
G37*
G36*
X29553Y141965D02*
X28626D01*
Y141656D01*
Y141347D01*
Y141038D01*
X29553D01*
Y141347D01*
Y141656D01*
Y141965D01*
D02*
G37*
G36*
X104294Y144436D02*
X103059D01*
Y144127D01*
X99353D01*
Y143818D01*
X95338D01*
Y143509D01*
Y143200D01*
X91632D01*
Y142891D01*
X87616D01*
Y142582D01*
X84219D01*
Y142273D01*
X83910D01*
Y141965D01*
X79586D01*
Y141656D01*
X75880D01*
Y141347D01*
Y141038D01*
X73409D01*
Y140729D01*
X71248D01*
Y140420D01*
X69703D01*
Y140112D01*
Y139803D01*
Y139494D01*
Y139185D01*
Y138876D01*
X70321D01*
Y138567D01*
Y138259D01*
Y137950D01*
X70939D01*
Y137641D01*
X71556D01*
Y137332D01*
X88543D01*
Y137641D01*
X89778D01*
Y137332D01*
X90087D01*
Y137023D01*
Y136714D01*
Y136405D01*
Y136097D01*
X90705D01*
Y135788D01*
Y135479D01*
Y135170D01*
Y134861D01*
X91014D01*
Y134552D01*
Y134243D01*
X90705D01*
Y134552D01*
Y134861D01*
X87308D01*
Y135170D01*
X83293D01*
Y135479D01*
Y135788D01*
X79586D01*
Y136097D01*
X74954D01*
Y135788D01*
X73718D01*
Y135479D01*
Y135170D01*
X72792D01*
Y134861D01*
X72174D01*
Y134552D01*
X71865D01*
Y134243D01*
X71248D01*
Y133935D01*
X70939D01*
Y133626D01*
X70321D01*
Y133317D01*
Y133008D01*
X69394D01*
Y132699D01*
X69086D01*
Y132390D01*
Y132081D01*
Y131773D01*
X68777D01*
Y131464D01*
X68159D01*
Y131155D01*
Y130846D01*
X67850D01*
Y130537D01*
Y130228D01*
X67232D01*
Y129920D01*
Y129611D01*
Y129302D01*
X66924D01*
Y128993D01*
Y128684D01*
Y128375D01*
Y128067D01*
X66306D01*
Y127758D01*
Y127449D01*
Y127140D01*
Y126831D01*
Y126522D01*
Y126213D01*
Y125905D01*
Y125596D01*
Y125287D01*
Y124978D01*
Y124669D01*
Y124360D01*
Y124051D01*
Y123743D01*
Y123434D01*
Y123125D01*
Y122816D01*
Y122507D01*
Y122198D01*
X66615D01*
Y121889D01*
X66924D01*
Y121581D01*
Y121272D01*
Y120963D01*
Y120654D01*
X67232D01*
Y120345D01*
Y120036D01*
Y119728D01*
Y119419D01*
Y119110D01*
Y118801D01*
Y118492D01*
Y118183D01*
Y117875D01*
Y117566D01*
Y117257D01*
Y116948D01*
X67850D01*
Y116639D01*
Y116330D01*
Y116021D01*
Y115712D01*
Y115404D01*
Y115095D01*
Y114786D01*
Y114477D01*
Y114168D01*
Y113859D01*
Y113551D01*
Y113242D01*
X68159D01*
Y112933D01*
Y112624D01*
Y112315D01*
Y112006D01*
Y111697D01*
Y111389D01*
Y111080D01*
Y110771D01*
Y110462D01*
Y110153D01*
Y109844D01*
Y109536D01*
Y109227D01*
X68468D01*
Y108918D01*
Y108609D01*
Y108300D01*
Y107991D01*
Y107683D01*
Y107374D01*
Y107065D01*
Y106756D01*
Y106447D01*
X69086D01*
Y106138D01*
Y105829D01*
Y105520D01*
Y105212D01*
Y104903D01*
Y104594D01*
Y104285D01*
Y103976D01*
Y103667D01*
Y103359D01*
X69394D01*
Y103050D01*
Y102741D01*
Y102432D01*
Y102123D01*
Y101814D01*
Y101505D01*
Y101197D01*
Y100888D01*
Y100579D01*
Y100270D01*
X70012D01*
Y99961D01*
X69703D01*
Y99652D01*
Y99344D01*
Y99035D01*
Y98726D01*
Y98417D01*
Y98108D01*
Y97799D01*
Y97490D01*
X70321D01*
Y97182D01*
Y96873D01*
Y96564D01*
Y96255D01*
Y95946D01*
Y95637D01*
Y95328D01*
X70630D01*
Y95020D01*
Y94711D01*
Y94402D01*
Y94093D01*
X71248D01*
Y93784D01*
Y93475D01*
Y93167D01*
Y92858D01*
X71556D01*
Y92549D01*
Y92240D01*
Y91931D01*
X71865D01*
Y91622D01*
Y91313D01*
Y91005D01*
Y90696D01*
X72483D01*
Y90387D01*
Y90078D01*
Y89769D01*
X72792D01*
Y89460D01*
X73101D01*
Y89152D01*
Y88843D01*
Y88534D01*
X73718D01*
Y88225D01*
X74027D01*
Y87916D01*
Y87607D01*
Y87299D01*
X74645D01*
Y86990D01*
Y86681D01*
X74954D01*
Y86372D01*
X75262D01*
Y86063D01*
Y85754D01*
Y85445D01*
X75880D01*
Y85136D01*
X76189D01*
Y84828D01*
X76498D01*
Y84519D01*
X76807D01*
Y84210D01*
X77116D01*
Y83901D01*
X77424D01*
Y83592D01*
X77733D01*
Y83283D01*
X78042D01*
Y82975D01*
X78969D01*
Y82666D01*
X79277D01*
Y82357D01*
Y82048D01*
X79586D01*
Y81739D01*
X80513D01*
Y81430D01*
X81748D01*
Y81121D01*
Y80813D01*
X82984D01*
Y80504D01*
X83910D01*
Y80195D01*
X84219D01*
Y79886D01*
X84837D01*
Y79577D01*
X85763D01*
Y79268D01*
X86381D01*
Y78960D01*
X86690D01*
Y78651D01*
X87308D01*
Y78342D01*
X87616D01*
Y78033D01*
X88543D01*
Y77724D01*
Y77415D01*
X89469D01*
Y77106D01*
X90396D01*
Y76798D01*
Y76489D01*
X91940D01*
Y76180D01*
X101206D01*
Y76489D01*
X102132D01*
Y76798D01*
X102441D01*
Y77106D01*
X103676D01*
Y77415D01*
X103985D01*
Y77724D01*
X104294D01*
Y78033D01*
X104912D01*
Y78342D01*
X105530D01*
Y78651D01*
X105839D01*
Y78960D01*
Y79268D01*
X106147D01*
Y79577D01*
X107074D01*
Y79886D01*
X107383D01*
Y80195D01*
X107692D01*
Y80504D01*
X108001D01*
Y80813D01*
X108309D01*
Y81121D01*
X108618D01*
Y81430D01*
X108927D01*
Y81739D01*
X109236D01*
Y82048D01*
X109545D01*
Y82357D01*
X109853D01*
Y82666D01*
X110162D01*
Y82975D01*
X110471D01*
Y83283D01*
Y83592D01*
Y83901D01*
X111089D01*
Y84210D01*
X111398D01*
Y84519D01*
Y84828D01*
Y85136D01*
X112015D01*
Y85445D01*
Y85754D01*
Y86063D01*
X112324D01*
Y86372D01*
Y86681D01*
X112633D01*
Y86990D01*
Y87299D01*
Y87607D01*
X113251D01*
Y87916D01*
Y88225D01*
Y88534D01*
X113560D01*
Y88843D01*
Y89152D01*
Y89460D01*
Y89769D01*
X113869D01*
Y90078D01*
Y90387D01*
Y90696D01*
X114486D01*
Y91005D01*
X114795D01*
Y91313D01*
Y91622D01*
Y91931D01*
X115413D01*
Y92240D01*
Y92549D01*
Y92858D01*
X115722D01*
Y93167D01*
Y93475D01*
X116031D01*
Y93784D01*
Y94093D01*
Y94402D01*
X116648D01*
Y94711D01*
Y95020D01*
Y95328D01*
X116957D01*
Y95637D01*
Y95946D01*
Y96255D01*
Y96564D01*
X117266D01*
Y96873D01*
Y97182D01*
Y97490D01*
Y97799D01*
X117884D01*
Y98108D01*
Y98417D01*
Y98726D01*
Y99035D01*
Y99344D01*
Y99652D01*
X118193D01*
Y99961D01*
Y100270D01*
Y100579D01*
Y100888D01*
Y101197D01*
Y101505D01*
Y101814D01*
Y102123D01*
Y102432D01*
Y102741D01*
Y103050D01*
X118810D01*
Y103359D01*
Y103667D01*
Y103976D01*
Y104285D01*
Y104594D01*
Y104903D01*
Y105212D01*
Y105520D01*
Y105829D01*
Y106138D01*
Y106447D01*
Y106756D01*
Y107065D01*
Y107374D01*
Y107683D01*
Y107991D01*
Y108300D01*
Y108609D01*
Y108918D01*
X118501D01*
Y109227D01*
X119119D01*
Y109536D01*
Y109844D01*
Y110153D01*
Y110462D01*
Y110771D01*
Y111080D01*
Y111389D01*
Y111697D01*
Y112006D01*
Y112315D01*
Y112624D01*
Y112933D01*
Y113242D01*
Y113551D01*
Y113859D01*
Y114168D01*
Y114477D01*
X119428D01*
Y114786D01*
Y115095D01*
Y115404D01*
Y115712D01*
Y116021D01*
Y116330D01*
Y116639D01*
Y116948D01*
Y117257D01*
Y117566D01*
Y117875D01*
Y118183D01*
Y118492D01*
Y118801D01*
Y119110D01*
X120045D01*
Y119419D01*
Y119728D01*
Y120036D01*
Y120345D01*
Y120654D01*
Y120963D01*
Y121272D01*
Y121581D01*
Y121889D01*
Y122198D01*
Y122507D01*
Y122816D01*
Y123125D01*
Y123434D01*
Y123743D01*
Y124051D01*
Y124360D01*
Y124669D01*
Y124978D01*
Y125287D01*
Y125596D01*
Y125905D01*
Y126213D01*
Y126522D01*
Y126831D01*
Y127140D01*
Y127449D01*
X119737D01*
Y127758D01*
X119428D01*
Y128067D01*
Y128375D01*
X119119D01*
Y128684D01*
X118810D01*
Y128993D01*
X118501D01*
Y129302D01*
X118193D01*
Y129611D01*
X117884D01*
Y129920D01*
X117575D01*
Y130228D01*
X116957D01*
Y130537D01*
X116339D01*
Y130846D01*
X115722D01*
Y131155D01*
Y131464D01*
X114795D01*
Y131773D01*
X113560D01*
Y132081D01*
X113251D01*
Y132390D01*
X111398D01*
Y132081D01*
Y131773D01*
Y131464D01*
X111089D01*
Y131155D01*
Y130846D01*
Y130537D01*
X110780D01*
Y130228D01*
X110162D01*
Y129920D01*
Y129611D01*
X107074D01*
Y129920D01*
Y130228D01*
X106765D01*
Y130537D01*
X106456D01*
Y130846D01*
Y131155D01*
Y131464D01*
Y131773D01*
Y132081D01*
Y132390D01*
Y132699D01*
Y133008D01*
X103985D01*
Y132699D01*
X102750D01*
Y132390D01*
Y132081D01*
Y131773D01*
X103059D01*
Y131464D01*
X102441D01*
Y131155D01*
Y130846D01*
Y130537D01*
Y130228D01*
Y129920D01*
Y129611D01*
Y129302D01*
Y128993D01*
Y128684D01*
X103059D01*
Y128375D01*
X102750D01*
Y128067D01*
Y127758D01*
X103059D01*
Y127449D01*
X103368D01*
Y127140D01*
Y126831D01*
Y126522D01*
X103985D01*
Y126213D01*
X104294D01*
Y125905D01*
Y125596D01*
Y125287D01*
X104603D01*
Y124978D01*
X105221D01*
Y124669D01*
X104912D01*
Y124360D01*
Y124051D01*
X105530D01*
Y123743D01*
X105839D01*
Y123434D01*
Y123125D01*
Y122816D01*
X106456D01*
Y122507D01*
X106147D01*
Y122198D01*
Y121889D01*
Y121581D01*
X106765D01*
Y121272D01*
Y120963D01*
Y120654D01*
Y120345D01*
Y120036D01*
Y119728D01*
Y119419D01*
X106147D01*
Y119110D01*
X106456D01*
Y118801D01*
X105839D01*
Y118492D01*
Y118183D01*
Y117875D01*
X105530D01*
Y117566D01*
X105221D01*
Y117257D01*
Y116948D01*
X104603D01*
Y116639D01*
X104294D01*
Y116330D01*
Y116021D01*
X103985D01*
Y115712D01*
X103368D01*
Y115404D01*
X103059D01*
Y115712D01*
Y116021D01*
Y116330D01*
Y116639D01*
Y116948D01*
X103368D01*
Y117257D01*
Y117566D01*
Y117875D01*
Y118183D01*
Y118492D01*
Y118801D01*
Y119110D01*
Y119419D01*
Y119728D01*
Y120036D01*
Y120345D01*
X103059D01*
Y120654D01*
Y120963D01*
Y121272D01*
Y121581D01*
X102441D01*
Y121889D01*
Y122198D01*
Y122507D01*
Y122816D01*
X102132D01*
Y123125D01*
Y123434D01*
X101823D01*
Y123743D01*
Y124051D01*
X101515D01*
Y124360D01*
X101206D01*
Y124669D01*
Y124978D01*
X100897D01*
Y125287D01*
Y125596D01*
Y125905D01*
X100279D01*
Y126213D01*
X100588D01*
Y126522D01*
Y126831D01*
Y127140D01*
X99970D01*
Y127449D01*
Y127758D01*
Y128067D01*
Y128375D01*
Y128684D01*
Y128993D01*
Y129302D01*
Y129611D01*
Y129920D01*
X100279D01*
Y130228D01*
X100588D01*
Y130537D01*
Y130846D01*
Y131155D01*
Y131464D01*
X100279D01*
Y131773D01*
X100897D01*
Y132081D01*
Y132390D01*
Y132699D01*
X101206D01*
Y133008D01*
Y133317D01*
X101515D01*
Y133626D01*
Y133935D01*
X102132D01*
Y134243D01*
Y134552D01*
Y134861D01*
Y135170D01*
X102441D01*
Y135479D01*
Y135788D01*
Y136097D01*
Y136405D01*
Y136714D01*
X102750D01*
Y137023D01*
X103059D01*
Y137332D01*
X103985D01*
Y137641D01*
Y137950D01*
X103676D01*
Y138259D01*
Y138567D01*
X104294D01*
Y138876D01*
X104912D01*
Y139185D01*
X105221D01*
Y139494D01*
X106147D01*
Y139803D01*
X108309D01*
Y140112D01*
X111089D01*
Y140420D01*
Y140729D01*
Y141038D01*
Y141347D01*
Y141656D01*
X110162D01*
Y141965D01*
X109236D01*
Y142273D01*
X108927D01*
Y142582D01*
Y142891D01*
X108001D01*
Y143200D01*
X107074D01*
Y143509D01*
Y143818D01*
X105839D01*
Y144127D01*
X104294D01*
Y144436D01*
D02*
G37*
G36*
X114177Y137332D02*
X113251D01*
Y137023D01*
X108618D01*
Y136714D01*
X108309D01*
Y136405D01*
X106765D01*
Y136097D01*
X106147D01*
Y135788D01*
X105530D01*
Y135479D01*
Y135170D01*
Y134861D01*
Y134552D01*
Y134243D01*
Y133935D01*
X111398D01*
Y133626D01*
X111707D01*
Y133317D01*
X113251D01*
Y133008D01*
X115722D01*
Y133317D01*
X116031D01*
Y133626D01*
Y133935D01*
X116339D01*
Y134243D01*
X116957D01*
Y134552D01*
Y134861D01*
Y135170D01*
X116648D01*
Y135479D01*
Y135788D01*
Y136097D01*
X116031D01*
Y136405D01*
X115722D01*
Y136714D01*
X115413D01*
Y137023D01*
X114177D01*
Y137332D01*
D02*
G37*
G36*
X109236Y132699D02*
X108001D01*
Y132390D01*
Y132081D01*
Y131773D01*
Y131464D01*
Y131155D01*
Y130846D01*
X109853D01*
Y131155D01*
Y131464D01*
Y131773D01*
Y132081D01*
Y132390D01*
X109236D01*
Y132699D01*
D02*
G37*
G36*
X24920Y130228D02*
X23994D01*
Y129920D01*
Y129611D01*
Y129302D01*
X24611D01*
Y128993D01*
Y128684D01*
X24920D01*
Y128375D01*
X25538D01*
Y128067D01*
X26155D01*
Y127758D01*
Y127449D01*
X27082D01*
Y127758D01*
Y128067D01*
Y128375D01*
X26773D01*
Y128684D01*
X26464D01*
Y128993D01*
X25847D01*
Y129302D01*
X25229D01*
Y129611D01*
X24920D01*
Y129920D01*
Y130228D01*
D02*
G37*
G36*
X51481Y129611D02*
X49010D01*
Y129302D01*
X48393D01*
Y128993D01*
X48084D01*
Y128684D01*
X47775D01*
Y128375D01*
X47466D01*
Y128067D01*
Y127758D01*
X47157D01*
Y127449D01*
X46848D01*
Y127140D01*
Y126831D01*
Y126522D01*
Y126213D01*
Y125905D01*
Y125596D01*
Y125287D01*
Y124978D01*
Y124669D01*
Y124360D01*
Y124051D01*
Y123743D01*
Y123434D01*
Y123125D01*
Y122816D01*
Y122507D01*
Y122198D01*
Y121889D01*
X47775D01*
Y122198D01*
Y122507D01*
Y122816D01*
Y123125D01*
Y123434D01*
Y123743D01*
Y124051D01*
X48393D01*
Y124360D01*
Y124669D01*
Y124978D01*
X48702D01*
Y125287D01*
X49010D01*
Y125596D01*
Y125905D01*
X49628D01*
Y126213D01*
X50246D01*
Y125905D01*
Y125596D01*
Y125287D01*
Y124978D01*
Y124669D01*
Y124360D01*
Y124051D01*
Y123743D01*
X50863D01*
Y123434D01*
Y123125D01*
Y122816D01*
Y122507D01*
Y122198D01*
Y121889D01*
Y121581D01*
Y121272D01*
Y120963D01*
Y120654D01*
X53025D01*
Y120345D01*
X53334D01*
Y120036D01*
Y119728D01*
Y119419D01*
X53643D01*
Y119110D01*
Y118801D01*
Y118492D01*
Y118183D01*
Y117875D01*
X54261D01*
Y117566D01*
Y117257D01*
Y116948D01*
X54570D01*
Y116639D01*
Y116330D01*
Y116021D01*
Y115712D01*
X55187D01*
Y115404D01*
X54878D01*
Y115095D01*
Y114786D01*
X55496D01*
Y114477D01*
Y114168D01*
Y113859D01*
Y113551D01*
X55805D01*
Y113242D01*
Y112933D01*
Y112624D01*
Y112315D01*
X56423D01*
Y112006D01*
Y111697D01*
Y111389D01*
X56732D01*
Y111080D01*
Y110771D01*
Y110462D01*
X57040D01*
Y110153D01*
Y109844D01*
X57658D01*
Y109536D01*
Y109227D01*
Y108918D01*
X58585D01*
Y109227D01*
Y109536D01*
Y109844D01*
X58894D01*
Y110153D01*
Y110462D01*
Y110771D01*
Y111080D01*
Y111389D01*
X58585D01*
Y111697D01*
Y112006D01*
Y112315D01*
Y112624D01*
Y112933D01*
Y113242D01*
Y113551D01*
Y113859D01*
Y114168D01*
Y114477D01*
Y114786D01*
Y115095D01*
Y115404D01*
Y115712D01*
Y116021D01*
Y116330D01*
Y116639D01*
Y116948D01*
X57967D01*
Y117257D01*
Y117566D01*
Y117875D01*
Y118183D01*
Y118492D01*
Y118801D01*
Y119110D01*
Y119419D01*
Y119728D01*
Y120036D01*
Y120345D01*
Y120654D01*
Y120963D01*
Y121272D01*
Y121581D01*
Y121889D01*
Y122198D01*
Y122507D01*
Y122816D01*
Y123125D01*
Y123434D01*
Y123743D01*
X57658D01*
Y124051D01*
Y124360D01*
Y124669D01*
X57040D01*
Y124978D01*
X56732D01*
Y125287D01*
Y125596D01*
X56114D01*
Y125905D01*
X55805D01*
Y126213D01*
X55496D01*
Y126522D01*
Y126831D01*
X54878D01*
Y127140D01*
X54570D01*
Y127449D01*
X54261D01*
Y127758D01*
Y128067D01*
X53334D01*
Y128375D01*
X53025D01*
Y128684D01*
X52716D01*
Y128993D01*
X52408D01*
Y129302D01*
X51481D01*
Y129611D01*
D02*
G37*
G36*
X124987Y123434D02*
X124061D01*
Y123125D01*
Y122816D01*
Y122507D01*
Y122198D01*
Y121889D01*
Y121581D01*
Y121272D01*
Y120963D01*
Y120654D01*
Y120345D01*
X123752D01*
Y120036D01*
Y119728D01*
Y119419D01*
Y119110D01*
Y118801D01*
Y118492D01*
Y118183D01*
Y117875D01*
Y117566D01*
Y117257D01*
Y116948D01*
Y116639D01*
Y116330D01*
Y116021D01*
Y115712D01*
X123134D01*
Y115404D01*
Y115095D01*
Y114786D01*
Y114477D01*
Y114168D01*
Y113859D01*
Y113551D01*
Y113242D01*
Y112933D01*
Y112624D01*
Y112315D01*
Y112006D01*
Y111697D01*
Y111389D01*
Y111080D01*
Y110771D01*
X122825D01*
Y110462D01*
Y110153D01*
Y109844D01*
Y109536D01*
Y109227D01*
Y108918D01*
Y108609D01*
Y108300D01*
Y107991D01*
X123752D01*
Y108300D01*
X124061D01*
Y108609D01*
Y108918D01*
X124678D01*
Y109227D01*
Y109536D01*
Y109844D01*
X124987D01*
Y110153D01*
Y110462D01*
X125296D01*
Y110771D01*
X125605D01*
Y111080D01*
Y111389D01*
X125296D01*
Y111697D01*
X125914D01*
Y112006D01*
Y112315D01*
Y112624D01*
Y112933D01*
Y113242D01*
Y113551D01*
Y113859D01*
Y114168D01*
Y114477D01*
Y114786D01*
Y115095D01*
Y115404D01*
Y115712D01*
Y116021D01*
Y116330D01*
Y116639D01*
Y116948D01*
Y117257D01*
Y117566D01*
Y117875D01*
Y118183D01*
Y118492D01*
Y118801D01*
Y119110D01*
Y119419D01*
X125296D01*
Y119728D01*
Y120036D01*
X125605D01*
Y120345D01*
Y120654D01*
Y120963D01*
Y121272D01*
Y121581D01*
X124987D01*
Y121889D01*
Y122198D01*
Y122507D01*
Y122816D01*
Y123125D01*
Y123434D01*
D02*
G37*
G36*
X49319Y41898D02*
X49010D01*
Y41589D01*
X49319D01*
Y41898D01*
D02*
G37*
G36*
X53643Y39427D02*
X53334D01*
Y39118D01*
X53643D01*
Y39427D01*
D02*
G37*
%LPD*%
G36*
X87308Y132390D02*
Y132081D01*
X88234D01*
Y131773D01*
X88543D01*
Y131464D01*
X88234D01*
Y131155D01*
X87925D01*
Y130846D01*
X86999D01*
Y131155D01*
X86690D01*
Y131464D01*
X86072D01*
Y131773D01*
X85146D01*
Y132081D01*
X84837D01*
Y132390D01*
X84528D01*
Y132081D01*
X84219D01*
Y131773D01*
Y131464D01*
Y131155D01*
Y130846D01*
Y130537D01*
Y130228D01*
Y129920D01*
Y129611D01*
Y129302D01*
X83910D01*
Y128993D01*
X83601D01*
Y128684D01*
Y128375D01*
X82675D01*
Y128067D01*
X82057D01*
Y128375D01*
X79277D01*
Y128684D01*
X78969D01*
Y128993D01*
X76498D01*
Y129302D01*
X75880D01*
Y129611D01*
X76189D01*
Y129920D01*
X76498D01*
Y130228D01*
Y130537D01*
X77424D01*
Y130846D01*
X77733D01*
Y131155D01*
X78042D01*
Y131464D01*
X78660D01*
Y131773D01*
X79895D01*
Y132081D01*
X81131D01*
Y132390D01*
X81439D01*
Y132699D01*
X87308D01*
Y132390D01*
D02*
G37*
G36*
X103059Y115095D02*
Y114786D01*
X102441D01*
Y115095D01*
X102750D01*
Y115404D01*
X103059D01*
Y115095D01*
D02*
G37*
G36*
X95338Y114786D02*
X95647D01*
Y114477D01*
X96264D01*
Y114168D01*
Y113859D01*
X96573D01*
Y113551D01*
X95647D01*
Y113859D01*
Y114168D01*
X93484D01*
Y114477D01*
X94102D01*
Y114786D01*
X94411D01*
Y115095D01*
X95338D01*
Y114786D01*
D02*
G37*
G36*
X105530Y111080D02*
X106765D01*
Y110771D01*
Y110462D01*
X107692D01*
Y110153D01*
X108618D01*
Y109844D01*
X109236D01*
Y109536D01*
X109545D01*
Y109227D01*
X109853D01*
Y108918D01*
X110162D01*
Y108609D01*
X110471D01*
Y108300D01*
X110780D01*
Y107991D01*
X111089D01*
Y107683D01*
X111398D01*
Y107374D01*
Y107065D01*
X112015D01*
Y106756D01*
X112324D01*
Y106447D01*
X112633D01*
Y106138D01*
X112942D01*
Y105829D01*
X113251D01*
Y105520D01*
X113560D01*
Y105212D01*
Y104903D01*
Y104594D01*
X113869D01*
Y104285D01*
X114486D01*
Y103976D01*
X112942D01*
Y103667D01*
X112633D01*
Y103359D01*
X112015D01*
Y103050D01*
X111398D01*
Y102741D01*
Y102432D01*
X111089D01*
Y102123D01*
X110780D01*
Y101814D01*
X110162D01*
Y101505D01*
Y101197D01*
X109545D01*
Y100888D01*
X109853D01*
Y100579D01*
X109236D01*
Y100270D01*
Y99961D01*
Y99652D01*
Y99344D01*
X108927D01*
Y99035D01*
Y98726D01*
Y98417D01*
Y98108D01*
Y97799D01*
X108309D01*
Y97490D01*
Y97182D01*
Y96873D01*
Y96564D01*
X108001D01*
Y96255D01*
Y95946D01*
Y95637D01*
Y95328D01*
X107692D01*
Y95020D01*
Y94711D01*
Y94402D01*
X107074D01*
Y94711D01*
Y95020D01*
Y95328D01*
X106765D01*
Y95637D01*
Y95946D01*
Y96255D01*
X106147D01*
Y96564D01*
X105839D01*
Y96873D01*
Y97182D01*
Y97490D01*
X104603D01*
Y97182D01*
X102750D01*
Y96873D01*
X102441D01*
Y96564D01*
X91014D01*
Y96873D01*
Y97182D01*
X89161D01*
Y97490D01*
X88543D01*
Y97799D01*
X87616D01*
Y98108D01*
Y98417D01*
X86690D01*
Y98726D01*
X86381D01*
Y99035D01*
X86072D01*
Y99344D01*
X85763D01*
Y99652D01*
X85454D01*
Y99961D01*
X85146D01*
Y100270D01*
Y100579D01*
X84528D01*
Y100888D01*
X84219D01*
Y101197D01*
X83910D01*
Y101505D01*
Y101814D01*
X82984D01*
Y102123D01*
X82675D01*
Y102432D01*
X82366D01*
Y102741D01*
X81131D01*
Y103050D01*
X79895D01*
Y103359D01*
X80513D01*
Y103667D01*
X80822D01*
Y103976D01*
Y104285D01*
X81131D01*
Y104594D01*
X81748D01*
Y104903D01*
X82057D01*
Y105212D01*
Y105520D01*
X82984D01*
Y105829D01*
X83293D01*
Y106138D01*
X83601D01*
Y106447D01*
X84219D01*
Y106756D01*
X84528D01*
Y107065D01*
X85454D01*
Y107374D01*
Y107683D01*
X86381D01*
Y107991D01*
X86690D01*
Y108300D01*
X87616D01*
Y108609D01*
Y108918D01*
X88543D01*
Y109227D01*
X89161D01*
Y109536D01*
X89469D01*
Y109844D01*
X90705D01*
Y110153D01*
X91940D01*
Y110462D01*
X93484D01*
Y110771D01*
Y111080D01*
X96882D01*
Y110771D01*
X97191D01*
Y110462D01*
X98426D01*
Y110153D01*
X98735D01*
Y109844D01*
X99044D01*
Y109536D01*
X99353D01*
Y109227D01*
X99970D01*
Y109536D01*
Y109844D01*
Y110153D01*
X100279D01*
Y110462D01*
X100588D01*
Y110771D01*
X100897D01*
Y111080D01*
X101515D01*
Y111389D01*
X105530D01*
Y111080D01*
D02*
G37*
G36*
X99044Y92858D02*
X100279D01*
Y92549D01*
Y92240D01*
X99970D01*
Y91931D01*
X96264D01*
Y92240D01*
X95955D01*
Y92549D01*
X95338D01*
Y92858D01*
X94720D01*
Y93167D01*
X99044D01*
Y92858D01*
D02*
G37*
%LPC*%
G36*
X82057Y131464D02*
X81131D01*
Y131155D01*
X80822D01*
Y130846D01*
X80513D01*
Y130537D01*
Y130228D01*
Y129920D01*
Y129611D01*
X80822D01*
Y129302D01*
X82057D01*
Y129611D01*
X82675D01*
Y129920D01*
Y130228D01*
Y130537D01*
Y130846D01*
X82366D01*
Y131155D01*
X82057D01*
Y131464D01*
D02*
G37*
G36*
X106765Y105212D02*
X103676D01*
Y104903D01*
Y104594D01*
Y104285D01*
X104603D01*
Y103976D01*
X104912D01*
Y103667D01*
X105530D01*
Y103359D01*
X106147D01*
Y103667D01*
X107692D01*
Y103976D01*
Y104285D01*
Y104594D01*
X106765D01*
Y104903D01*
Y105212D01*
D02*
G37*
G36*
X96264Y105520D02*
X93793D01*
Y105212D01*
X90705D01*
Y104903D01*
Y104594D01*
X88234D01*
Y104285D01*
X86072D01*
Y103976D01*
Y103667D01*
Y103359D01*
Y103050D01*
Y102741D01*
Y102432D01*
X88852D01*
Y102741D01*
Y103050D01*
X90705D01*
Y103359D01*
X92558D01*
Y103667D01*
X94411D01*
Y103976D01*
Y104285D01*
X95338D01*
Y104594D01*
X96264D01*
Y104903D01*
Y105212D01*
Y105520D01*
D02*
G37*
G36*
X102132Y103359D02*
X97500D01*
Y103050D01*
X94411D01*
Y102741D01*
X91323D01*
Y102432D01*
X91014D01*
Y102123D01*
X88543D01*
Y101814D01*
X87308D01*
Y101505D01*
Y101197D01*
X86690D01*
Y100888D01*
Y100579D01*
Y100270D01*
X87308D01*
Y99961D01*
X87616D01*
Y99652D01*
X88543D01*
Y99344D01*
Y99035D01*
X89778D01*
Y98726D01*
X102441D01*
Y99035D01*
X104603D01*
Y99344D01*
Y99652D01*
X105530D01*
Y99961D01*
X105839D01*
Y100270D01*
X106456D01*
Y100579D01*
Y100888D01*
Y101197D01*
Y101505D01*
Y101814D01*
X105839D01*
Y102123D01*
X105530D01*
Y102432D01*
X105221D01*
Y102741D01*
X104603D01*
Y103050D01*
X102132D01*
Y103359D01*
D02*
G37*
%LPD*%
M02*
