G04*
G04 #@! TF.GenerationSoftware,Altium Limited,Altium Designer,20.2.4 (192)*
G04*
G04 Layer_Physical_Order=1*
G04 Layer_Color=255*
%FSLAX25Y25*%
%MOIN*%
G70*
G04*
G04 #@! TF.SameCoordinates,916D3FFB-3ED2-40BB-BA98-F56BCE00B8A7*
G04*
G04*
G04 #@! TF.FilePolarity,Positive*
G04*
G01*
G75*
%ADD13C,0.01000*%
%ADD15O,0.05709X0.00984*%
%ADD16R,0.12205X0.03937*%
%ADD17R,0.02953X0.03347*%
%ADD18R,0.03150X0.03543*%
%ADD19R,0.03543X0.03937*%
%ADD20R,0.03347X0.03740*%
%ADD21R,0.02756X0.03347*%
%ADD22R,0.03765X0.04749*%
%ADD23R,0.02953X0.03543*%
%ADD24R,0.05118X0.02756*%
%ADD25R,0.02362X0.01575*%
%ADD26R,0.06299X0.06299*%
%ADD27R,0.06299X0.04331*%
%ADD28R,0.02480X0.03268*%
%ADD29R,0.07480X0.02362*%
%ADD48C,0.01600*%
%ADD49R,0.05906X0.05906*%
%ADD50C,0.05906*%
%ADD51C,0.06000*%
%ADD52C,0.06299*%
%ADD53R,0.06299X0.06299*%
%ADD54C,0.02900*%
G36*
X203384Y223980D02*
X205119Y223635D01*
X206754Y222958D01*
X208225Y221976D01*
X209476Y220725D01*
X210458Y219254D01*
X211135Y217619D01*
X211480Y215884D01*
X211480Y215000D01*
X211480Y205000D01*
X211480Y27000D01*
Y10000D01*
X211480Y9116D01*
X211135Y7380D01*
X210458Y5746D01*
X209476Y4275D01*
X208225Y3024D01*
X206754Y2042D01*
X205119Y1365D01*
X203384Y1020D01*
X9116D01*
X7380Y1365D01*
X5746Y2042D01*
X4275Y3024D01*
X3024Y4275D01*
X2042Y5746D01*
X1365Y7380D01*
X1020Y9116D01*
Y10000D01*
Y215000D01*
Y215884D01*
X1365Y217619D01*
X2042Y219254D01*
X3024Y220725D01*
X4275Y221976D01*
X5746Y222958D01*
X7380Y223635D01*
X9116Y223980D01*
X10000D01*
X27500Y223980D01*
X178500Y223980D01*
X202500D01*
X203384Y223980D01*
D02*
G37*
%LPC*%
G36*
X200000Y220589D02*
X198422Y220433D01*
X196905Y219973D01*
X195506Y219226D01*
X194280Y218220D01*
X193274Y216994D01*
X192527Y215596D01*
X192067Y214078D01*
X191911Y212500D01*
X192067Y210922D01*
X192527Y209404D01*
X193274Y208006D01*
X194280Y206780D01*
X195506Y205774D01*
X196905Y205027D01*
X198422Y204567D01*
X200000Y204411D01*
X201578Y204567D01*
X203096Y205027D01*
X204494Y205774D01*
X205720Y206780D01*
X206726Y208006D01*
X207473Y209404D01*
X207933Y210922D01*
X208089Y212500D01*
X207933Y214078D01*
X207473Y215596D01*
X206726Y216994D01*
X205720Y218220D01*
X204494Y219226D01*
X203096Y219973D01*
X201578Y220433D01*
X200000Y220589D01*
D02*
G37*
G36*
X12500D02*
X10922Y220433D01*
X9404Y219973D01*
X8006Y219226D01*
X6780Y218220D01*
X5774Y216994D01*
X5027Y215596D01*
X4566Y214078D01*
X4411Y212500D01*
X4566Y210922D01*
X5027Y209404D01*
X5774Y208006D01*
X6780Y206780D01*
X8006Y205774D01*
X9404Y205027D01*
X10922Y204567D01*
X12500Y204411D01*
X14078Y204567D01*
X15596Y205027D01*
X16994Y205774D01*
X18220Y206780D01*
X19226Y208006D01*
X19973Y209404D01*
X20434Y210922D01*
X20589Y212500D01*
X20434Y214078D01*
X19973Y215596D01*
X19226Y216994D01*
X18220Y218220D01*
X16994Y219226D01*
X15596Y219973D01*
X14078Y220433D01*
X12500Y220589D01*
D02*
G37*
G36*
X129122Y191772D02*
X127047D01*
Y189500D01*
X129122D01*
Y191772D01*
D02*
G37*
G36*
X168500Y190899D02*
Y189000D01*
X170398D01*
X170308Y189456D01*
X169766Y190266D01*
X168956Y190808D01*
X168500Y190899D01*
D02*
G37*
G36*
X167500D02*
X167044Y190808D01*
X166234Y190266D01*
X165692Y189456D01*
X165602Y189000D01*
X167500D01*
Y190899D01*
D02*
G37*
G36*
X129122Y188500D02*
X127047D01*
Y186228D01*
X129122D01*
Y188500D01*
D02*
G37*
G36*
X126047D02*
X123972D01*
Y186228D01*
X126047D01*
Y188500D01*
D02*
G37*
G36*
X170398Y188000D02*
X168500D01*
Y186101D01*
X168956Y186192D01*
X169766Y186734D01*
X170308Y187544D01*
X170398Y188000D01*
D02*
G37*
G36*
X167500D02*
X165602D01*
X165692Y187544D01*
X166234Y186734D01*
X167044Y186192D01*
X167500Y186101D01*
Y188000D01*
D02*
G37*
G36*
X124000Y198631D02*
X123376Y198507D01*
X122846Y198153D01*
X113324Y188631D01*
X101430D01*
Y189434D01*
X97350D01*
Y184566D01*
X101430D01*
Y185369D01*
X114000D01*
X114624Y185493D01*
X115154Y185846D01*
X119988Y190681D01*
X120450Y190490D01*
Y180918D01*
X118417D01*
Y177378D01*
X118217D01*
Y175500D01*
X121776D01*
X125335D01*
Y177378D01*
X125135D01*
Y180918D01*
X123101D01*
Y190727D01*
X123511Y191136D01*
X123972Y190945D01*
Y189500D01*
X126047D01*
Y191772D01*
X124799D01*
X124608Y192234D01*
X125549Y193175D01*
X139392D01*
X140665Y191902D01*
Y189027D01*
X143255D01*
X143446Y188565D01*
X141110Y186229D01*
X140823Y185799D01*
X140722Y185292D01*
Y185146D01*
X139385D01*
Y181972D01*
X143347D01*
Y183718D01*
X143373Y183846D01*
Y184742D01*
X147657Y189027D01*
X150335D01*
Y193973D01*
X145783D01*
Y191296D01*
X145717Y191253D01*
X145217Y191520D01*
Y193973D01*
X142342D01*
X141409Y194907D01*
X141600Y195369D01*
X184324D01*
X187869Y191824D01*
Y185694D01*
X187369Y185595D01*
X187278Y185814D01*
X186677Y186598D01*
X185893Y187199D01*
X184980Y187577D01*
X184000Y187706D01*
X183020Y187577D01*
X182107Y187199D01*
X181324Y186598D01*
X180722Y185814D01*
X180344Y184901D01*
X180215Y183921D01*
X180334Y183017D01*
X179948Y182631D01*
X149634D01*
X149413Y182587D01*
X147653D01*
Y179413D01*
X149413D01*
X149634Y179369D01*
X180624D01*
X181248Y179493D01*
X181778Y179847D01*
X182438Y180506D01*
X183020Y180265D01*
X184000Y180136D01*
X184980Y180265D01*
X185893Y180643D01*
X186677Y181245D01*
X187278Y182029D01*
X187369Y182247D01*
X187869Y182148D01*
Y180254D01*
X185446Y177831D01*
X180247D01*
Y170326D01*
X185446D01*
X187369Y168403D01*
Y143938D01*
X186869Y143769D01*
X186677Y144019D01*
X185893Y144621D01*
X184980Y144999D01*
X184000Y145128D01*
X183020Y144999D01*
X182107Y144621D01*
X181324Y144019D01*
X181189Y143844D01*
X152115D01*
Y144087D01*
X148153D01*
Y140913D01*
X149487D01*
X149797Y140705D01*
X150421Y140581D01*
X180315D01*
X180344Y140363D01*
X180722Y139450D01*
X181324Y138666D01*
X182107Y138065D01*
X183020Y137686D01*
X184000Y137557D01*
X184980Y137686D01*
X185893Y138065D01*
X186677Y138666D01*
X186869Y138917D01*
X187369Y138747D01*
Y137176D01*
X185446Y135253D01*
X180247D01*
Y127747D01*
X185446D01*
X186869Y126324D01*
Y103517D01*
X186369Y103347D01*
X186177Y103598D01*
X185393Y104199D01*
X184480Y104577D01*
X183500Y104706D01*
X182520Y104577D01*
X182160Y104428D01*
X181435Y105154D01*
X180906Y105507D01*
X180282Y105631D01*
X148634D01*
X148413Y105587D01*
X146653D01*
Y102413D01*
X148413D01*
X148634Y102369D01*
X179563D01*
X179877Y101981D01*
X179844Y101901D01*
X179715Y100921D01*
X179844Y99941D01*
X180222Y99029D01*
X180824Y98245D01*
X181607Y97643D01*
X182520Y97265D01*
X183500Y97136D01*
X184480Y97265D01*
X185393Y97643D01*
X186177Y98245D01*
X186369Y98495D01*
X186869Y98325D01*
Y96754D01*
X184946Y94832D01*
X179747D01*
Y87326D01*
X187253D01*
Y92524D01*
X189654Y94925D01*
X190007Y95455D01*
X190131Y96079D01*
Y127000D01*
X190007Y127624D01*
X189654Y128154D01*
X187753Y130054D01*
Y132946D01*
X190154Y135346D01*
X190507Y135876D01*
X190631Y136500D01*
Y169079D01*
X190507Y169703D01*
X190154Y170232D01*
X187753Y172633D01*
Y175524D01*
X190654Y178425D01*
X191007Y178955D01*
X191131Y179579D01*
Y192500D01*
X191007Y193124D01*
X190654Y193654D01*
X186153Y198153D01*
X185624Y198507D01*
X185000Y198631D01*
X124000D01*
X124000Y198631D01*
D02*
G37*
G36*
X92650Y189434D02*
X88570D01*
Y188631D01*
X77079D01*
X76454Y188507D01*
X75925Y188154D01*
X70741Y182969D01*
X70480Y183077D01*
X69500Y183206D01*
X68520Y183077D01*
X67607Y182699D01*
X66824Y182098D01*
X66222Y181314D01*
X65844Y180401D01*
X65715Y179421D01*
X65844Y178442D01*
X66222Y177529D01*
X66824Y176745D01*
X67607Y176143D01*
X68520Y175765D01*
X69500Y175636D01*
X70480Y175765D01*
X71393Y176143D01*
X72176Y176745D01*
X72778Y177529D01*
X73156Y178442D01*
X73285Y179421D01*
X73156Y180401D01*
X73048Y180662D01*
X77754Y185369D01*
X88570D01*
Y184566D01*
X92650D01*
Y189434D01*
D02*
G37*
G36*
X134828Y191572D02*
X130078D01*
Y186428D01*
X130822D01*
Y180918D01*
X127865D01*
Y176562D01*
X134583D01*
Y177092D01*
X135901D01*
X135906Y177085D01*
X136650Y176588D01*
X137528Y176413D01*
X138406Y176588D01*
X138885Y176908D01*
X139385Y176854D01*
X139385Y176854D01*
X139385Y176854D01*
X140041D01*
Y172585D01*
X134583D01*
Y173438D01*
X127865D01*
Y169082D01*
X134583D01*
Y169934D01*
X140361D01*
Y168527D01*
X141214D01*
Y166174D01*
X138782D01*
Y159826D01*
X144147D01*
Y166174D01*
X143865D01*
Y168173D01*
X144218Y168527D01*
X144666Y168527D01*
X145083Y168327D01*
X145134Y168327D01*
X146961D01*
Y171000D01*
Y173673D01*
X145134D01*
X145083Y173673D01*
X144666Y173473D01*
X144583Y173473D01*
X142692D01*
Y176854D01*
X143347D01*
Y180028D01*
X139698D01*
X139255Y180172D01*
X139255Y180172D01*
X139150Y180329D01*
X139056Y180392D01*
X139056Y180392D01*
X138898Y180498D01*
X138406Y180827D01*
X137528Y181001D01*
X136650Y180827D01*
X135944Y180355D01*
X134583D01*
Y180918D01*
X134084D01*
Y186428D01*
X134828D01*
Y191572D01*
D02*
G37*
G36*
X147961Y173673D02*
Y171500D01*
X149839D01*
Y173673D01*
X147961D01*
D02*
G37*
G36*
X73453Y173531D02*
X70000D01*
Y170079D01*
X73453D01*
Y173531D01*
D02*
G37*
G36*
X69000D02*
X65547D01*
Y170079D01*
X69000D01*
Y173531D01*
D02*
G37*
G36*
X100941Y172638D02*
X97291D01*
Y169972D01*
X100941D01*
Y172638D01*
D02*
G37*
G36*
X96291D02*
X92642D01*
Y169972D01*
X96291D01*
Y172638D01*
D02*
G37*
G36*
X112158Y177950D02*
X104259D01*
Y170050D01*
X110419D01*
X110442Y170035D01*
X110949Y169934D01*
X118417D01*
Y169082D01*
X125135D01*
Y172622D01*
X125335D01*
Y174500D01*
X121776D01*
X118217D01*
Y172622D01*
X117732Y172585D01*
X112158D01*
Y177950D01*
D02*
G37*
G36*
X149839Y170500D02*
X147961D01*
Y168327D01*
X149839D01*
Y170500D01*
D02*
G37*
G36*
X100941Y168972D02*
X97291D01*
Y166307D01*
X100941D01*
Y168972D01*
D02*
G37*
G36*
X96291D02*
X92642D01*
Y166307D01*
X96291D01*
Y168972D01*
D02*
G37*
G36*
X73453Y169079D02*
X70000D01*
Y165626D01*
X73453D01*
Y169079D01*
D02*
G37*
G36*
X69000D02*
X65547D01*
Y165626D01*
X69000D01*
Y169079D01*
D02*
G37*
G36*
X152418Y166374D02*
X150035D01*
Y163500D01*
X152418D01*
Y166374D01*
D02*
G37*
G36*
X149035D02*
X146653D01*
Y163500D01*
X149035D01*
Y166374D01*
D02*
G37*
G36*
X152418Y162500D02*
X150035D01*
Y159626D01*
X152418D01*
Y162500D01*
D02*
G37*
G36*
X149035D02*
X146653D01*
Y159626D01*
X149035D01*
Y162500D01*
D02*
G37*
G36*
X129122Y153772D02*
X127047D01*
Y151500D01*
X129122D01*
Y153772D01*
D02*
G37*
G36*
X126047D02*
X123972D01*
Y151500D01*
X126047D01*
Y153772D01*
D02*
G37*
G36*
X77000Y152899D02*
Y151000D01*
X78899D01*
X78808Y151456D01*
X78266Y152266D01*
X77456Y152808D01*
X77000Y152899D01*
D02*
G37*
G36*
X76000D02*
X75544Y152808D01*
X74734Y152266D01*
X74192Y151456D01*
X74102Y151000D01*
X76000D01*
Y152899D01*
D02*
G37*
G36*
X172000Y151399D02*
Y149500D01*
X173898D01*
X173808Y149956D01*
X173266Y150766D01*
X172456Y151308D01*
X172000Y151399D01*
D02*
G37*
G36*
X171000D02*
X170544Y151308D01*
X169734Y150766D01*
X169192Y149956D01*
X169102Y149500D01*
X171000D01*
Y151399D01*
D02*
G37*
G36*
X129122Y150500D02*
X127047D01*
Y148228D01*
X129122D01*
Y150500D01*
D02*
G37*
G36*
X126047D02*
X123972D01*
Y148228D01*
X126047D01*
Y150500D01*
D02*
G37*
G36*
X78899Y150000D02*
X77000D01*
Y148101D01*
X77456Y148192D01*
X78266Y148734D01*
X78808Y149544D01*
X78899Y150000D01*
D02*
G37*
G36*
X76000D02*
X74102D01*
X74192Y149544D01*
X74734Y148734D01*
X75544Y148192D01*
X76000Y148101D01*
Y150000D01*
D02*
G37*
G36*
X173898Y148500D02*
X172000D01*
Y146601D01*
X172456Y146692D01*
X173266Y147234D01*
X173808Y148044D01*
X173898Y148500D01*
D02*
G37*
G36*
X171000D02*
X169102D01*
X169192Y148044D01*
X169734Y147234D01*
X170544Y146692D01*
X171000Y146601D01*
Y148500D01*
D02*
G37*
G36*
X137941Y158326D02*
X123000D01*
X122493Y158225D01*
X122063Y157937D01*
X119838Y155713D01*
X119551Y155283D01*
X119450Y154776D01*
Y142918D01*
X117417D01*
Y139378D01*
X117217D01*
Y137500D01*
X120776D01*
X124335D01*
Y139378D01*
X124135D01*
Y142918D01*
X122101D01*
Y154227D01*
X123549Y155675D01*
X137392D01*
X140165Y152902D01*
Y150027D01*
X142755D01*
X142946Y149565D01*
X141610Y148229D01*
X141323Y147799D01*
X141222Y147291D01*
Y146646D01*
X139885D01*
Y143472D01*
X143847D01*
Y145219D01*
X143873Y145346D01*
Y146742D01*
X147157Y150027D01*
X149835D01*
Y154973D01*
X145283D01*
Y152296D01*
X145217Y152253D01*
X144717Y152520D01*
Y154973D01*
X141842D01*
X138878Y157937D01*
X138448Y158225D01*
X137941Y158326D01*
D02*
G37*
G36*
X134828Y153572D02*
X130078D01*
Y148428D01*
X130822D01*
Y142918D01*
X126865D01*
Y138562D01*
X133583D01*
Y139092D01*
X135901D01*
X135906Y139085D01*
X136650Y138588D01*
X137528Y138413D01*
X138406Y138588D01*
X139150Y139085D01*
X139385Y139437D01*
X139885Y139285D01*
Y138354D01*
X140627D01*
Y134973D01*
X139861D01*
Y134585D01*
X133583D01*
Y135438D01*
X126865D01*
Y131082D01*
X133583D01*
Y131934D01*
X139861D01*
Y130027D01*
X139908D01*
X140115Y129527D01*
X139527Y128939D01*
X139240Y128509D01*
X139139Y128002D01*
Y126674D01*
X137782D01*
Y120326D01*
X143147D01*
Y126674D01*
X141790D01*
Y127453D01*
X142726Y128390D01*
X143014Y128820D01*
X143115Y129327D01*
Y129673D01*
X143468Y130027D01*
X144166Y130027D01*
X144583Y129827D01*
X144634Y129827D01*
X146461D01*
Y132500D01*
Y135173D01*
X144634D01*
X144583Y135173D01*
X144166Y134973D01*
X144083Y134973D01*
X143278D01*
Y138354D01*
X143847D01*
Y141528D01*
X140129D01*
X139837Y141563D01*
X139500Y141806D01*
X139150Y142329D01*
X138406Y142827D01*
X137528Y143001D01*
X136650Y142827D01*
X135944Y142355D01*
X134084D01*
Y148428D01*
X134828D01*
Y153572D01*
D02*
G37*
G36*
X77000Y135898D02*
Y134000D01*
X78899D01*
X78808Y134456D01*
X78266Y135266D01*
X77456Y135808D01*
X77000Y135898D01*
D02*
G37*
G36*
X76000D02*
X75544Y135808D01*
X74734Y135266D01*
X74192Y134456D01*
X74102Y134000D01*
X76000D01*
Y135898D01*
D02*
G37*
G36*
X147461Y135173D02*
Y133000D01*
X149339D01*
Y135173D01*
X147461D01*
D02*
G37*
G36*
X100441Y134638D02*
X96791D01*
Y131972D01*
X100441D01*
Y134638D01*
D02*
G37*
G36*
X78899Y133000D02*
X77000D01*
Y131102D01*
X77456Y131192D01*
X78266Y131734D01*
X78808Y132544D01*
X78899Y133000D01*
D02*
G37*
G36*
X76000D02*
X74102D01*
X74192Y132544D01*
X74734Y131734D01*
X75544Y131192D01*
X76000Y131102D01*
Y133000D01*
D02*
G37*
G36*
X111658Y139950D02*
X103759D01*
Y132050D01*
X109919D01*
X109942Y132035D01*
X110449Y131934D01*
X117417D01*
Y131082D01*
X124135D01*
Y134622D01*
X124335D01*
Y136500D01*
X120776D01*
X117217D01*
Y134622D01*
X116732Y134585D01*
X111658D01*
Y139950D01*
D02*
G37*
G36*
X149339Y132000D02*
X147461D01*
Y129827D01*
X149339D01*
Y132000D01*
D02*
G37*
G36*
X100441Y130972D02*
X96791D01*
Y128307D01*
X100441D01*
Y130972D01*
D02*
G37*
G36*
X151418Y126874D02*
X149035D01*
Y124000D01*
X151418D01*
Y126874D01*
D02*
G37*
G36*
X148035D02*
X145653D01*
Y124000D01*
X148035D01*
Y126874D01*
D02*
G37*
G36*
X151418Y123000D02*
X149035D01*
Y120126D01*
X151418D01*
Y123000D01*
D02*
G37*
G36*
X148035D02*
X145653D01*
Y120126D01*
X148035D01*
Y123000D01*
D02*
G37*
G36*
X126622Y114772D02*
X124547D01*
Y112500D01*
X126622D01*
Y114772D01*
D02*
G37*
G36*
X137941Y118825D02*
X122000D01*
X121493Y118725D01*
X121063Y118437D01*
X117838Y115213D01*
X117551Y114783D01*
X117450Y114276D01*
Y103918D01*
X115417D01*
Y100378D01*
X115217D01*
Y98500D01*
X118776D01*
X122335D01*
Y100378D01*
X122135D01*
Y103918D01*
X120101D01*
Y113727D01*
X120972Y114598D01*
X121472Y114391D01*
Y112500D01*
X123547D01*
Y114772D01*
X121853D01*
X121646Y115272D01*
X122549Y116174D01*
X137392D01*
X138665Y114902D01*
Y112027D01*
X143217D01*
Y116973D01*
X140342D01*
X138878Y118437D01*
X138448Y118725D01*
X137941Y118825D01*
D02*
G37*
G36*
X170000Y111398D02*
Y109500D01*
X171898D01*
X171808Y109956D01*
X171266Y110766D01*
X170456Y111308D01*
X170000Y111398D01*
D02*
G37*
G36*
X169000D02*
X168544Y111308D01*
X167734Y110766D01*
X167192Y109956D01*
X167102Y109500D01*
X169000D01*
Y111398D01*
D02*
G37*
G36*
X126622Y111500D02*
X124547D01*
Y109228D01*
X126622D01*
Y111500D01*
D02*
G37*
G36*
X123547D02*
X121472D01*
Y109228D01*
X123547D01*
Y111500D01*
D02*
G37*
G36*
X171898Y108500D02*
X170000D01*
Y106602D01*
X170456Y106692D01*
X171266Y107234D01*
X171808Y108044D01*
X171898Y108500D01*
D02*
G37*
G36*
X169000D02*
X167102D01*
X167192Y108044D01*
X167734Y107234D01*
X168544Y106692D01*
X169000Y106602D01*
Y108500D01*
D02*
G37*
G36*
X148335Y116973D02*
X143783D01*
Y112027D01*
X143783D01*
X143853Y111527D01*
X140473Y108146D01*
X138385D01*
Y104972D01*
X142347D01*
Y106272D01*
X146465Y110390D01*
X146752Y110820D01*
X146853Y111327D01*
Y112027D01*
X148335D01*
Y116973D01*
D02*
G37*
G36*
X100741Y181493D02*
X92842D01*
Y177437D01*
X88563Y173158D01*
X88275Y172728D01*
X88174Y172220D01*
Y114349D01*
X79951Y106125D01*
X18800D01*
X18293Y106025D01*
X17863Y105737D01*
X3463Y91337D01*
X3175Y90907D01*
X3074Y90400D01*
Y42600D01*
X3175Y42093D01*
X3463Y41663D01*
X6094Y39031D01*
X6524Y38744D01*
X7032Y38643D01*
X8468D01*
Y35732D01*
X21653D01*
X21860Y35232D01*
X18567Y31938D01*
X18279Y31508D01*
X18232Y31269D01*
X8468D01*
Y25732D01*
X20398D01*
X37067Y9063D01*
X37497Y8775D01*
X38004Y8675D01*
X86000D01*
X86507Y8775D01*
X86937Y9063D01*
X90604Y12730D01*
X92965D01*
X93044Y12746D01*
X95335D01*
X95839Y12846D01*
X96266Y13131D01*
X96552Y13559D01*
X96652Y14063D01*
X96552Y14567D01*
X96495Y14652D01*
X96293Y15047D01*
X96495Y15443D01*
X96552Y15527D01*
X96652Y16032D01*
X96624Y16174D01*
X97015Y16675D01*
X100392D01*
X101165Y15902D01*
Y13027D01*
X105666Y13027D01*
X106083Y12827D01*
X106134Y12827D01*
X108059D01*
Y15500D01*
Y18173D01*
X106134D01*
X106083Y18173D01*
X105666Y17973D01*
X105583Y17973D01*
X102842D01*
X101878Y18937D01*
X101448Y19225D01*
X100941Y19326D01*
X97238D01*
X97120Y19469D01*
X92972D01*
Y20469D01*
X97121D01*
X97238Y20612D01*
X101476D01*
X101984Y20712D01*
X102012Y20731D01*
X105386D01*
Y20531D01*
X107657D01*
Y23500D01*
X108157D01*
Y24000D01*
X110929D01*
Y25869D01*
X117824D01*
X124709Y18984D01*
X124881Y18122D01*
X125378Y17378D01*
X126122Y16881D01*
X127000Y16706D01*
X127878Y16881D01*
X128622Y17378D01*
X129120Y18122D01*
X129294Y19000D01*
X129120Y19878D01*
X128622Y20622D01*
X127878Y21120D01*
X127016Y21291D01*
X119653Y28653D01*
X119124Y29007D01*
X118500Y29131D01*
X110831D01*
Y31000D01*
X108157D01*
Y31500D01*
X107657D01*
Y34370D01*
X105484D01*
Y34370D01*
X105316Y34170D01*
X100369D01*
Y28830D01*
X101211D01*
Y26269D01*
X100271D01*
Y23262D01*
X92972D01*
X92932Y23254D01*
X90725D01*
X90552Y23531D01*
X90507Y23744D01*
X93845Y27081D01*
X94195Y27011D01*
X95073Y27186D01*
X95817Y27683D01*
X96314Y28428D01*
X96489Y29305D01*
X96314Y30183D01*
X95817Y30928D01*
X95073Y31425D01*
X94948Y31450D01*
X94803Y31928D01*
X98049Y35175D01*
X116951D01*
X133303Y18823D01*
X133733Y18535D01*
X134240Y18434D01*
X140917D01*
Y17582D01*
X147635D01*
Y21122D01*
X147835D01*
Y21584D01*
X148335Y21791D01*
X149011Y21115D01*
X149441Y20827D01*
X149641Y20788D01*
X150365Y20063D01*
Y17582D01*
X157083D01*
Y18434D01*
X162260D01*
X162767Y18535D01*
X163197Y18823D01*
X168925Y24550D01*
X174950D01*
Y32450D01*
X167050D01*
Y26425D01*
X161711Y21085D01*
X157083D01*
Y21938D01*
X152240D01*
X151188Y22989D01*
X150758Y23277D01*
X150558Y23316D01*
X150326Y23549D01*
Y24579D01*
X150365Y25062D01*
X157083D01*
Y29418D01*
X155245D01*
Y36143D01*
X155430Y36369D01*
X156392D01*
X157122Y35881D01*
X158000Y35706D01*
X158878Y35881D01*
X159622Y36378D01*
X160119Y37122D01*
X160294Y38000D01*
X160119Y38878D01*
X159622Y39622D01*
X158878Y40119D01*
X158000Y40294D01*
X157122Y40119D01*
X156392Y39631D01*
X154328D01*
Y40572D01*
X151885D01*
X146803Y45654D01*
X146274Y46007D01*
X145650Y46131D01*
X110831D01*
Y48500D01*
X108157D01*
Y49000D01*
X107657D01*
Y51870D01*
X105484D01*
Y51870D01*
X105316Y51670D01*
X104474D01*
Y54732D01*
X105386D01*
Y54532D01*
X107657D01*
Y57500D01*
X108157D01*
Y58000D01*
X110929D01*
Y60469D01*
X111344Y60675D01*
X126451D01*
X138803Y48323D01*
X139233Y48035D01*
X139740Y47934D01*
X141417D01*
Y47082D01*
X148135D01*
Y50304D01*
X148348Y50432D01*
X148580Y50480D01*
X148738Y50388D01*
X149925Y49200D01*
X150355Y48913D01*
X150862Y48812D01*
X150865D01*
Y47082D01*
X157583D01*
Y47554D01*
X167141D01*
X167152Y47469D01*
X167550Y46508D01*
X168183Y45683D01*
X169008Y45050D01*
X169969Y44652D01*
X171000Y44516D01*
X172031Y44652D01*
X172992Y45050D01*
X173817Y45683D01*
X174450Y46508D01*
X174848Y47469D01*
X174984Y48500D01*
X174848Y49531D01*
X174450Y50492D01*
X173817Y51317D01*
X172992Y51950D01*
X172031Y52348D01*
X171000Y52484D01*
X169969Y52348D01*
X169008Y51950D01*
X168183Y51317D01*
X167550Y50492D01*
X167431Y50205D01*
X157583D01*
Y51438D01*
X153475D01*
X153346Y51463D01*
X151411D01*
X150826Y52049D01*
Y54079D01*
X150865Y54562D01*
X157583D01*
Y58918D01*
X155856D01*
Y59777D01*
X156344Y60508D01*
X156518Y61386D01*
X156344Y62264D01*
X155856Y62994D01*
Y65032D01*
X155732Y65656D01*
X155378Y66185D01*
X155378Y66185D01*
X153828Y67735D01*
Y70572D01*
X151385D01*
X146303Y75653D01*
X145774Y76007D01*
X145150Y76131D01*
X106500D01*
X105876Y76007D01*
X105347Y75653D01*
X102140Y72447D01*
X102008Y72250D01*
X101368Y72183D01*
X94398Y79154D01*
X93868Y79507D01*
X93244Y79631D01*
X43532D01*
Y81269D01*
X29728D01*
Y79631D01*
X22272D01*
Y81269D01*
X8925D01*
Y87551D01*
X21077Y99702D01*
X92842D01*
Y98062D01*
X100741D01*
Y103993D01*
X92842D01*
Y102353D01*
X83881D01*
X83689Y102815D01*
X92237Y111363D01*
X92525Y111793D01*
X92625Y112300D01*
Y128307D01*
X95791D01*
Y131472D01*
Y134638D01*
X92625D01*
Y135971D01*
X94216Y137562D01*
X100241D01*
Y143493D01*
X92342D01*
Y139437D01*
X91287Y138382D01*
X90825Y138574D01*
Y171671D01*
X94716Y175562D01*
X100741D01*
Y181493D01*
D02*
G37*
G36*
X132328Y114572D02*
X127578D01*
Y109428D01*
X128322D01*
Y103918D01*
X124865D01*
Y99562D01*
X131583D01*
Y99932D01*
X133990D01*
X134102Y99764D01*
X134846Y99266D01*
X135724Y99092D01*
X136602Y99266D01*
X137347Y99764D01*
X137844Y100508D01*
X137885Y100715D01*
X138385Y100666D01*
Y99854D01*
X139127D01*
Y96473D01*
X138361D01*
Y95585D01*
X131583D01*
Y96438D01*
X124865D01*
Y92082D01*
X131583D01*
Y92934D01*
X138361D01*
Y91527D01*
X138361Y91527D01*
X138361D01*
X138361Y91527D01*
X138187Y91099D01*
X137527Y90439D01*
X137240Y90009D01*
X137139Y89502D01*
Y88674D01*
X135782D01*
Y82326D01*
X141147D01*
Y88674D01*
X140218D01*
X140011Y89174D01*
X140726Y89890D01*
X141014Y90320D01*
X141115Y90827D01*
Y91527D01*
X142666Y91527D01*
X143083Y91327D01*
X143134Y91327D01*
X144961D01*
Y94000D01*
Y96673D01*
X143134D01*
X143083Y96673D01*
X142666Y96473D01*
X142583Y96473D01*
X141778D01*
Y99854D01*
X142347D01*
Y103028D01*
X138385D01*
Y102106D01*
X137885Y102056D01*
X137844Y102264D01*
X137347Y103008D01*
X136602Y103505D01*
X135724Y103680D01*
X134846Y103505D01*
X134381Y103194D01*
X131584D01*
Y109428D01*
X132328D01*
Y114572D01*
D02*
G37*
G36*
X145961Y96673D02*
Y94500D01*
X147839D01*
Y96673D01*
X145961D01*
D02*
G37*
G36*
X81500Y94898D02*
Y93000D01*
X83398D01*
X83308Y93456D01*
X82766Y94266D01*
X81956Y94808D01*
X81500Y94898D01*
D02*
G37*
G36*
X80500D02*
X80044Y94808D01*
X79234Y94266D01*
X78692Y93456D01*
X78601Y93000D01*
X80500D01*
Y94898D01*
D02*
G37*
G36*
X66000Y94398D02*
Y92500D01*
X67898D01*
X67808Y92956D01*
X67266Y93766D01*
X66456Y94308D01*
X66000Y94398D01*
D02*
G37*
G36*
X65000D02*
X64544Y94308D01*
X63734Y93766D01*
X63192Y92956D01*
X63102Y92500D01*
X65000D01*
Y94398D01*
D02*
G37*
G36*
X51000D02*
Y92500D01*
X52899D01*
X52808Y92956D01*
X52266Y93766D01*
X51456Y94308D01*
X51000Y94398D01*
D02*
G37*
G36*
X50000D02*
X49544Y94308D01*
X48734Y93766D01*
X48192Y92956D01*
X48101Y92500D01*
X50000D01*
Y94398D01*
D02*
G37*
G36*
X100941Y95138D02*
X97291D01*
Y92472D01*
X100941D01*
Y95138D01*
D02*
G37*
G36*
X96291D02*
X92642D01*
Y92472D01*
X96291D01*
Y95138D01*
D02*
G37*
G36*
X112158Y100450D02*
X104259D01*
Y92550D01*
X112158D01*
Y92934D01*
X115417D01*
Y92082D01*
X122135D01*
Y95622D01*
X122335D01*
Y97500D01*
X118776D01*
X115217D01*
Y95622D01*
X114732Y95585D01*
X112158D01*
Y100450D01*
D02*
G37*
G36*
X147839Y93500D02*
X145961D01*
Y91327D01*
X147839D01*
Y93500D01*
D02*
G37*
G36*
X83398Y92000D02*
X81500D01*
Y90101D01*
X81956Y90192D01*
X82766Y90734D01*
X83308Y91544D01*
X83398Y92000D01*
D02*
G37*
G36*
X80500D02*
X78601D01*
X78692Y91544D01*
X79234Y90734D01*
X80044Y90192D01*
X80500Y90101D01*
Y92000D01*
D02*
G37*
G36*
X67898Y91500D02*
X66000D01*
Y89601D01*
X66456Y89692D01*
X67266Y90234D01*
X67808Y91044D01*
X67898Y91500D01*
D02*
G37*
G36*
X65000D02*
X63102D01*
X63192Y91044D01*
X63734Y90234D01*
X64544Y89692D01*
X65000Y89601D01*
Y91500D01*
D02*
G37*
G36*
X52899D02*
X51000D01*
Y89601D01*
X51456Y89692D01*
X52266Y90234D01*
X52808Y91044D01*
X52899Y91500D01*
D02*
G37*
G36*
X50000D02*
X48101D01*
X48192Y91044D01*
X48734Y90234D01*
X49544Y89692D01*
X50000Y89601D01*
Y91500D01*
D02*
G37*
G36*
X100941Y91472D02*
X97291D01*
Y88807D01*
X100941D01*
Y91472D01*
D02*
G37*
G36*
X96291D02*
X92642D01*
Y88807D01*
X96291D01*
Y91472D01*
D02*
G37*
G36*
X149418Y88874D02*
X147035D01*
Y86000D01*
X149418D01*
Y88874D01*
D02*
G37*
G36*
X146035D02*
X143653D01*
Y86000D01*
X146035D01*
Y88874D01*
D02*
G37*
G36*
X114000Y85899D02*
Y84000D01*
X115899D01*
X115808Y84456D01*
X115266Y85266D01*
X114456Y85808D01*
X114000Y85899D01*
D02*
G37*
G36*
X113000D02*
X112544Y85808D01*
X111734Y85266D01*
X111192Y84456D01*
X111101Y84000D01*
X113000D01*
Y85899D01*
D02*
G37*
G36*
X149418Y85000D02*
X147035D01*
Y82126D01*
X149418D01*
Y85000D01*
D02*
G37*
G36*
X146035D02*
X143653D01*
Y82126D01*
X146035D01*
Y85000D01*
D02*
G37*
G36*
X115899Y83000D02*
X114000D01*
Y81102D01*
X114456Y81192D01*
X115266Y81734D01*
X115808Y82544D01*
X115899Y83000D01*
D02*
G37*
G36*
X113000D02*
X111101D01*
X111192Y82544D01*
X111734Y81734D01*
X112544Y81192D01*
X113000Y81102D01*
Y83000D01*
D02*
G37*
G36*
X172500Y73899D02*
Y72000D01*
X174399D01*
X174308Y72456D01*
X173766Y73266D01*
X172956Y73808D01*
X172500Y73899D01*
D02*
G37*
G36*
X171500D02*
X171044Y73808D01*
X170234Y73266D01*
X169692Y72456D01*
X169602Y72000D01*
X171500D01*
Y73899D01*
D02*
G37*
G36*
X188000Y73399D02*
Y71500D01*
X189899D01*
X189808Y71956D01*
X189266Y72766D01*
X188456Y73308D01*
X188000Y73399D01*
D02*
G37*
G36*
X187000D02*
X186544Y73308D01*
X185734Y72766D01*
X185192Y71956D01*
X185101Y71500D01*
X187000D01*
Y73399D01*
D02*
G37*
G36*
X174399Y71000D02*
X172500D01*
Y69102D01*
X172956Y69192D01*
X173766Y69734D01*
X174308Y70544D01*
X174399Y71000D01*
D02*
G37*
G36*
X171500D02*
X169602D01*
X169692Y70544D01*
X170234Y69734D01*
X171044Y69192D01*
X171500Y69102D01*
Y71000D01*
D02*
G37*
G36*
X189899Y70500D02*
X188000D01*
Y68602D01*
X188456Y68692D01*
X189266Y69234D01*
X189808Y70044D01*
X189899Y70500D01*
D02*
G37*
G36*
X187000D02*
X185101D01*
X185192Y70044D01*
X185734Y69234D01*
X186544Y68692D01*
X187000Y68602D01*
Y70500D01*
D02*
G37*
G36*
X171500Y62620D02*
Y59000D01*
X175120D01*
X175043Y59583D01*
X174625Y60593D01*
X173960Y61459D01*
X173093Y62125D01*
X172083Y62543D01*
X171500Y62620D01*
D02*
G37*
G36*
X170500D02*
X169917Y62543D01*
X168907Y62125D01*
X168041Y61459D01*
X167375Y60593D01*
X166957Y59583D01*
X166880Y59000D01*
X170500D01*
Y62620D01*
D02*
G37*
G36*
X110929Y57000D02*
X108657D01*
Y54532D01*
X110929D01*
Y57000D01*
D02*
G37*
G36*
X175120Y58000D02*
X171500D01*
Y54380D01*
X172083Y54457D01*
X173093Y54875D01*
X173960Y55541D01*
X174625Y56407D01*
X175043Y57417D01*
X175120Y58000D01*
D02*
G37*
G36*
X170500D02*
X166880D01*
X166957Y57417D01*
X167375Y56407D01*
X168041Y55541D01*
X168907Y54875D01*
X169917Y54457D01*
X170500Y54380D01*
Y58000D01*
D02*
G37*
G36*
X133000Y51898D02*
Y50000D01*
X134898D01*
X134808Y50456D01*
X134266Y51266D01*
X133456Y51808D01*
X133000Y51898D01*
D02*
G37*
G36*
X132000D02*
X131544Y51808D01*
X130734Y51266D01*
X130192Y50456D01*
X130102Y50000D01*
X132000D01*
Y51898D01*
D02*
G37*
G36*
X110831Y51870D02*
X108657D01*
Y49500D01*
X110831D01*
Y51870D01*
D02*
G37*
G36*
X134898Y49000D02*
X133000D01*
Y47102D01*
X133456Y47192D01*
X134266Y47734D01*
X134808Y48544D01*
X134898Y49000D01*
D02*
G37*
G36*
X132000D02*
X130102D01*
X130192Y48544D01*
X130734Y47734D01*
X131544Y47192D01*
X132000Y47102D01*
Y49000D01*
D02*
G37*
G36*
X171500Y42620D02*
Y39000D01*
X175120D01*
X175043Y39583D01*
X174625Y40593D01*
X173960Y41460D01*
X173093Y42125D01*
X172083Y42543D01*
X171500Y42620D01*
D02*
G37*
G36*
X170500D02*
X169917Y42543D01*
X168907Y42125D01*
X168041Y41460D01*
X167375Y40593D01*
X166957Y39583D01*
X166880Y39000D01*
X170500D01*
Y42620D01*
D02*
G37*
G36*
X175120Y38000D02*
X171500D01*
Y34380D01*
X172083Y34457D01*
X173093Y34875D01*
X173960Y35541D01*
X174625Y36407D01*
X175043Y37417D01*
X175120Y38000D01*
D02*
G37*
G36*
X170500D02*
X166880D01*
X166957Y37417D01*
X167375Y36407D01*
X168041Y35541D01*
X168907Y34875D01*
X169917Y34457D01*
X170500Y34380D01*
Y38000D01*
D02*
G37*
G36*
X110831Y34370D02*
X108657D01*
Y32000D01*
X110831D01*
Y34370D01*
D02*
G37*
G36*
X110929Y23000D02*
X108657D01*
Y20531D01*
X110929D01*
Y23000D01*
D02*
G37*
G36*
X109059Y18173D02*
Y16000D01*
X111035D01*
Y18173D01*
X109059D01*
D02*
G37*
G36*
X138000Y15398D02*
Y13500D01*
X139899D01*
X139808Y13956D01*
X139266Y14766D01*
X138456Y15308D01*
X138000Y15398D01*
D02*
G37*
G36*
X137000D02*
X136544Y15308D01*
X135734Y14766D01*
X135192Y13956D01*
X135101Y13500D01*
X137000D01*
Y15398D01*
D02*
G37*
G36*
X171500Y14898D02*
Y13000D01*
X173398D01*
X173308Y13456D01*
X172766Y14266D01*
X171956Y14808D01*
X171500Y14898D01*
D02*
G37*
G36*
X170500D02*
X170044Y14808D01*
X169234Y14266D01*
X168692Y13456D01*
X168602Y13000D01*
X170500D01*
Y14898D01*
D02*
G37*
G36*
X111035Y15000D02*
X109059D01*
Y12827D01*
X111035D01*
Y15000D01*
D02*
G37*
G36*
X139899Y12500D02*
X138000D01*
Y10601D01*
X138456Y10692D01*
X139266Y11234D01*
X139808Y12044D01*
X139899Y12500D01*
D02*
G37*
G36*
X137000D02*
X135101D01*
X135192Y12044D01*
X135734Y11234D01*
X136544Y10692D01*
X137000Y10601D01*
Y12500D01*
D02*
G37*
G36*
X27000Y12398D02*
Y10500D01*
X28899D01*
X28808Y10956D01*
X28266Y11766D01*
X27456Y12308D01*
X27000Y12398D01*
D02*
G37*
G36*
X26000D02*
X25544Y12308D01*
X24734Y11766D01*
X24192Y10956D01*
X24102Y10500D01*
X26000D01*
Y12398D01*
D02*
G37*
G36*
X173398Y12000D02*
X171500D01*
Y10102D01*
X171956Y10192D01*
X172766Y10734D01*
X173308Y11544D01*
X173398Y12000D01*
D02*
G37*
G36*
X170500D02*
X168602D01*
X168692Y11544D01*
X169234Y10734D01*
X170044Y10192D01*
X170500Y10102D01*
Y12000D01*
D02*
G37*
G36*
X98500Y11399D02*
Y9500D01*
X100399D01*
X100308Y9956D01*
X99766Y10766D01*
X98956Y11308D01*
X98500Y11399D01*
D02*
G37*
G36*
X97500D02*
X97044Y11308D01*
X96234Y10766D01*
X95692Y9956D01*
X95601Y9500D01*
X97500D01*
Y11399D01*
D02*
G37*
G36*
X28899Y9500D02*
X27000D01*
Y7602D01*
X27456Y7692D01*
X28266Y8234D01*
X28808Y9044D01*
X28899Y9500D01*
D02*
G37*
G36*
X26000D02*
X24102D01*
X24192Y9044D01*
X24734Y8234D01*
X25544Y7692D01*
X26000Y7602D01*
Y9500D01*
D02*
G37*
G36*
X100399Y8500D02*
X98500D01*
Y6601D01*
X98956Y6692D01*
X99766Y7234D01*
X100308Y8044D01*
X100399Y8500D01*
D02*
G37*
G36*
X97500D02*
X95601D01*
X95692Y8044D01*
X96234Y7234D01*
X97044Y6692D01*
X97500Y6601D01*
Y8500D01*
D02*
G37*
G36*
X200000Y20589D02*
X198422Y20434D01*
X196905Y19973D01*
X195506Y19226D01*
X194280Y18220D01*
X193274Y16994D01*
X192527Y15596D01*
X192067Y14078D01*
X191911Y12500D01*
X192067Y10922D01*
X192527Y9404D01*
X193274Y8006D01*
X194280Y6780D01*
X195506Y5774D01*
X196905Y5027D01*
X198422Y4566D01*
X200000Y4411D01*
X201578Y4566D01*
X203096Y5027D01*
X204494Y5774D01*
X205720Y6780D01*
X206726Y8006D01*
X207473Y9404D01*
X207933Y10922D01*
X208089Y12500D01*
X207933Y14078D01*
X207473Y15596D01*
X206726Y16994D01*
X205720Y18220D01*
X204494Y19226D01*
X203096Y19973D01*
X201578Y20434D01*
X200000Y20589D01*
D02*
G37*
G36*
X12500D02*
X10922Y20434D01*
X9404Y19973D01*
X8006Y19226D01*
X6780Y18220D01*
X5774Y16994D01*
X5027Y15596D01*
X4566Y14078D01*
X4411Y12500D01*
X4566Y10922D01*
X5027Y9404D01*
X5774Y8006D01*
X6780Y6780D01*
X8006Y5774D01*
X9404Y5027D01*
X10922Y4566D01*
X12500Y4411D01*
X14078Y4566D01*
X15596Y5027D01*
X16994Y5774D01*
X18220Y6780D01*
X19226Y8006D01*
X19973Y9404D01*
X20434Y10922D01*
X20589Y12500D01*
X20434Y14078D01*
X19973Y15596D01*
X19226Y16994D01*
X18220Y18220D01*
X16994Y19226D01*
X15596Y19973D01*
X14078Y20434D01*
X12500Y20589D01*
D02*
G37*
%LPD*%
G36*
X59799Y74500D02*
X62276D01*
Y74000D01*
X62776D01*
Y71228D01*
X64752D01*
Y71428D01*
X65675D01*
Y69549D01*
X55563Y59437D01*
X55275Y59007D01*
X55174Y58500D01*
Y46417D01*
X55236Y46110D01*
X54775Y45863D01*
X51701Y48937D01*
X51271Y49225D01*
X50764Y49325D01*
X43532D01*
Y51269D01*
X29728D01*
Y45731D01*
X43532D01*
Y46674D01*
X50215D01*
X52230Y44659D01*
X52219Y44631D01*
X51936Y44247D01*
X51539Y44326D01*
X31503D01*
X30996Y44225D01*
X30566Y43937D01*
X22772Y36143D01*
X22272Y36351D01*
Y41269D01*
X14660D01*
X14532Y41294D01*
X7581D01*
X5725Y43149D01*
Y50247D01*
X6187Y50438D01*
X7594Y49031D01*
X8024Y48744D01*
X8468Y48656D01*
Y45731D01*
X22272D01*
Y51269D01*
X14030D01*
X13902Y51294D01*
X9081D01*
X7326Y53049D01*
Y59883D01*
X7787Y60074D01*
X8468Y59394D01*
Y55731D01*
X22272D01*
Y61269D01*
X10342D01*
X8925Y62685D01*
Y65531D01*
X14870D01*
Y68500D01*
Y71469D01*
X8925D01*
Y75731D01*
X22272D01*
Y76369D01*
X29728D01*
Y75731D01*
X43532D01*
Y76369D01*
X59799D01*
Y74500D01*
D02*
G37*
G36*
X96844Y72093D02*
X96652Y71631D01*
X95320D01*
Y71981D01*
X87761D01*
Y75761D01*
X78680D01*
Y75105D01*
X69276D01*
Y76369D01*
X92568D01*
X96844Y72093D01*
D02*
G37*
G36*
X146109Y71234D02*
X146047Y71084D01*
Y68500D01*
X148122D01*
Y68567D01*
X148584Y68759D01*
X149078Y68265D01*
Y65428D01*
X151521D01*
X152593Y64356D01*
Y62994D01*
X152105Y62264D01*
X151930Y61386D01*
X152105Y60508D01*
X152593Y59777D01*
Y58918D01*
X150865D01*
Y57196D01*
X150652Y57068D01*
X150365Y57009D01*
X149697Y57677D01*
X149267Y57965D01*
X148760Y58066D01*
X148135D01*
Y58918D01*
X141417D01*
Y55378D01*
X141217D01*
Y53500D01*
X144776D01*
Y52500D01*
X141217D01*
Y50622D01*
X140732Y50585D01*
X140289D01*
X127937Y62937D01*
X127507Y63225D01*
X127000Y63326D01*
X100151D01*
X100123Y63355D01*
X99919Y63739D01*
X99908Y63789D01*
X102047Y65928D01*
X104922D01*
Y69427D01*
X104925Y69444D01*
Y70618D01*
X105378Y71071D01*
X105878Y70864D01*
Y69000D01*
X107953D01*
Y71272D01*
X106286D01*
X106079Y71772D01*
X107176Y72869D01*
X144474D01*
X146109Y71234D01*
D02*
G37*
G36*
X78680Y71798D02*
X86239D01*
Y68401D01*
X83720D01*
Y66720D01*
X87961D01*
Y68019D01*
X95320D01*
Y68369D01*
X100172D01*
Y67803D01*
X83632Y51262D01*
X70131D01*
Y52170D01*
X68983D01*
Y53732D01*
X70229D01*
Y59268D01*
X65114D01*
Y59469D01*
X62843D01*
Y56500D01*
Y53531D01*
X65114D01*
Y53732D01*
X66332D01*
Y52170D01*
X65433D01*
X65016Y52370D01*
X65016Y52370D01*
X65016Y52370D01*
X62843D01*
Y49500D01*
X62343D01*
Y49000D01*
X59669D01*
Y46630D01*
X61641D01*
X62484Y45787D01*
X62292Y45325D01*
X59466D01*
X57825Y46966D01*
Y57951D01*
X59071Y59197D01*
X59571Y58989D01*
Y57000D01*
X61843D01*
Y59469D01*
X60050D01*
X59843Y59969D01*
X67937Y68063D01*
X68225Y68493D01*
X68326Y69000D01*
Y71428D01*
X69276D01*
Y72454D01*
X72675D01*
Y71320D01*
X72378Y71122D01*
X71881Y70378D01*
X71706Y69500D01*
X71881Y68622D01*
X72378Y67878D01*
X73122Y67381D01*
X74000Y67206D01*
X74878Y67381D01*
X75622Y67878D01*
X76119Y68622D01*
X76294Y69500D01*
X76119Y70378D01*
X75622Y71122D01*
X75326Y71320D01*
Y72454D01*
X78680D01*
Y71798D01*
D02*
G37*
G36*
X100271Y59604D02*
Y55146D01*
X96388Y51262D01*
X92972D01*
X92932Y51254D01*
X91921D01*
X91729Y51716D01*
X99809Y59796D01*
X100271Y59604D01*
D02*
G37*
G36*
X58917Y42674D02*
X69850D01*
X69899Y42175D01*
X69622Y42120D01*
X68878Y41622D01*
X68381Y40878D01*
X68206Y40000D01*
X68381Y39122D01*
X68878Y38378D01*
X68956Y38326D01*
X68805Y37826D01*
X62813D01*
X58363Y42275D01*
X58610Y42736D01*
X58917Y42674D01*
D02*
G37*
G36*
X100665Y41099D02*
Y38027D01*
X100248Y37826D01*
X97500D01*
X96993Y37725D01*
X96563Y37437D01*
X81191Y22066D01*
X80649Y22230D01*
X80607Y22441D01*
X80321Y22869D01*
X79894Y23154D01*
X79390Y23254D01*
X77068D01*
X77028Y23262D01*
X71573D01*
X70729Y24106D01*
Y25265D01*
X72333Y26869D01*
X74892D01*
X75622Y26381D01*
X76500Y26206D01*
X77378Y26381D01*
X78122Y26878D01*
X78619Y27622D01*
X78794Y28500D01*
X78619Y29378D01*
X78122Y30122D01*
X77378Y30619D01*
X76500Y30794D01*
X75622Y30619D01*
X74892Y30131D01*
X71657D01*
X71033Y30007D01*
X70504Y29653D01*
X68619Y27768D01*
X65614D01*
Y27968D01*
X63343D01*
Y25000D01*
Y22031D01*
X65614D01*
Y22231D01*
X66832D01*
Y20670D01*
X65933D01*
X65516Y20870D01*
X65516Y20870D01*
X65516Y20870D01*
X63343D01*
Y18000D01*
X62843D01*
Y17500D01*
X60169D01*
Y15412D01*
X59669Y15205D01*
X58224Y16650D01*
X58294Y17000D01*
X58119Y17878D01*
X57622Y18622D01*
X56878Y19119D01*
X56000Y19294D01*
X55650Y19225D01*
X45437Y29437D01*
X45007Y29725D01*
X44500Y29825D01*
X43532D01*
Y31269D01*
X30480D01*
Y34610D01*
X31602Y35732D01*
X43532D01*
Y41269D01*
X43759Y41675D01*
X50990D01*
X60102Y32563D01*
X60532Y32275D01*
X61039Y32175D01*
X76528D01*
X77035Y32275D01*
X77465Y32563D01*
X85640Y40738D01*
X92972D01*
X93013Y40746D01*
X95335D01*
X95839Y40846D01*
X96266Y41131D01*
X96552Y41559D01*
X96652Y42063D01*
X96552Y42567D01*
X96495Y42652D01*
X96293Y43047D01*
X96495Y43443D01*
X96552Y43527D01*
X96652Y44032D01*
X97069Y44340D01*
X97403Y44360D01*
X100665Y41099D01*
D02*
G37*
G36*
X29728Y38696D02*
Y37606D01*
X28218Y36096D01*
X27930Y35666D01*
X27829Y35159D01*
Y22702D01*
X27367Y22511D01*
X22272Y27606D01*
Y31269D01*
X22272D01*
X22089Y31711D01*
X29266Y38888D01*
X29728Y38696D01*
D02*
G37*
G36*
X146609Y41234D02*
X146547Y41084D01*
Y38500D01*
X148622D01*
Y38567D01*
X149084Y38759D01*
X149578Y38265D01*
Y35428D01*
X151982D01*
Y29418D01*
X150365D01*
Y27851D01*
X150152Y27722D01*
X149865Y27663D01*
X149351Y28177D01*
X148921Y28465D01*
X148414Y28566D01*
X147635D01*
Y29418D01*
X140917D01*
Y25878D01*
X140717D01*
Y24000D01*
X144276D01*
Y23000D01*
X140717D01*
Y21122D01*
X140232Y21085D01*
X134789D01*
X118437Y37437D01*
X118007Y37725D01*
X117500Y37826D01*
X111035D01*
X110535Y37827D01*
Y40000D01*
X108059D01*
Y41000D01*
X110535D01*
Y42869D01*
X144974D01*
X146609Y41234D01*
D02*
G37*
G36*
X53776Y17350D02*
X53706Y17000D01*
X53881Y16122D01*
X54378Y15378D01*
X55122Y14881D01*
X56000Y14706D01*
X56350Y14775D01*
X57508Y13617D01*
X57317Y13155D01*
X39219D01*
X30480Y21894D01*
Y25732D01*
X43532D01*
Y26978D01*
X44032Y27093D01*
X53776Y17350D01*
D02*
G37*
%LPC*%
G36*
X61776Y73500D02*
X59799D01*
Y71228D01*
X61776D01*
Y73500D01*
D02*
G37*
G36*
X43732Y71469D02*
X37130D01*
Y69000D01*
X43732D01*
Y71469D01*
D02*
G37*
G36*
X22472D02*
X15870D01*
Y69000D01*
X22472D01*
Y71469D01*
D02*
G37*
G36*
X56500Y70898D02*
Y69000D01*
X58398D01*
X58308Y69456D01*
X57766Y70266D01*
X56956Y70808D01*
X56500Y70898D01*
D02*
G37*
G36*
X55500D02*
X55044Y70808D01*
X54234Y70266D01*
X53692Y69456D01*
X53601Y69000D01*
X55500D01*
Y70898D01*
D02*
G37*
G36*
X49500D02*
Y69000D01*
X51398D01*
X51308Y69456D01*
X50766Y70266D01*
X49956Y70808D01*
X49500Y70898D01*
D02*
G37*
G36*
X48500D02*
X48044Y70808D01*
X47234Y70266D01*
X46692Y69456D01*
X46602Y69000D01*
X48500D01*
Y70898D01*
D02*
G37*
G36*
X36130Y71469D02*
X29528D01*
Y69000D01*
X36130D01*
Y71469D01*
D02*
G37*
G36*
X58398Y68000D02*
X56500D01*
Y66101D01*
X56956Y66192D01*
X57766Y66734D01*
X58308Y67544D01*
X58398Y68000D01*
D02*
G37*
G36*
X55500D02*
X53601D01*
X53692Y67544D01*
X54234Y66734D01*
X55044Y66192D01*
X55500Y66101D01*
Y68000D01*
D02*
G37*
G36*
X51398D02*
X49500D01*
Y66101D01*
X49956Y66192D01*
X50766Y66734D01*
X51308Y67544D01*
X51398Y68000D01*
D02*
G37*
G36*
X48500D02*
X46602D01*
X46692Y67544D01*
X47234Y66734D01*
X48044Y66192D01*
X48500Y66101D01*
Y68000D01*
D02*
G37*
G36*
X43732D02*
X37130D01*
Y65531D01*
X43732D01*
Y68000D01*
D02*
G37*
G36*
X36130D02*
X29528D01*
Y65531D01*
X36130D01*
Y68000D01*
D02*
G37*
G36*
X22472D02*
X15870D01*
Y65531D01*
X22472D01*
Y68000D01*
D02*
G37*
G36*
X49500Y62398D02*
Y60500D01*
X51398D01*
X51308Y60956D01*
X50766Y61766D01*
X49956Y62308D01*
X49500Y62398D01*
D02*
G37*
G36*
X48500D02*
X48044Y62308D01*
X47234Y61766D01*
X46692Y60956D01*
X46602Y60500D01*
X48500D01*
Y62398D01*
D02*
G37*
G36*
X51398Y59500D02*
X49500D01*
Y57601D01*
X49956Y57692D01*
X50766Y58234D01*
X51308Y59044D01*
X51398Y59500D01*
D02*
G37*
G36*
X48500D02*
X46602D01*
X46692Y59044D01*
X47234Y58234D01*
X48044Y57692D01*
X48500Y57601D01*
Y59500D01*
D02*
G37*
G36*
X43532Y61269D02*
X29728D01*
Y55731D01*
X43532D01*
Y61269D01*
D02*
G37*
G36*
X111028Y71272D02*
X108953D01*
Y69000D01*
X111028D01*
Y71272D01*
D02*
G37*
G36*
X127000Y70398D02*
Y68500D01*
X128899D01*
X128808Y68956D01*
X128266Y69766D01*
X127456Y70308D01*
X127000Y70398D01*
D02*
G37*
G36*
X126000D02*
X125544Y70308D01*
X124734Y69766D01*
X124192Y68956D01*
X124101Y68500D01*
X126000D01*
Y70398D01*
D02*
G37*
G36*
X145047Y70772D02*
X142972D01*
Y68500D01*
X145047D01*
Y70772D01*
D02*
G37*
G36*
X111028Y68000D02*
X108953D01*
Y65728D01*
X111028D01*
Y68000D01*
D02*
G37*
G36*
X107953D02*
X105878D01*
Y65728D01*
X107953D01*
Y68000D01*
D02*
G37*
G36*
X128899Y67500D02*
X127000D01*
Y65601D01*
X127456Y65692D01*
X128266Y66234D01*
X128808Y67044D01*
X128899Y67500D01*
D02*
G37*
G36*
X126000D02*
X124101D01*
X124192Y67044D01*
X124734Y66234D01*
X125544Y65692D01*
X126000Y65601D01*
Y67500D01*
D02*
G37*
G36*
X148122D02*
X146047D01*
Y65228D01*
X148122D01*
Y67500D01*
D02*
G37*
G36*
X145047D02*
X142972D01*
Y65228D01*
X145047D01*
Y67500D01*
D02*
G37*
G36*
X82720Y68401D02*
X78480D01*
Y66720D01*
X82720D01*
Y68401D01*
D02*
G37*
G36*
X87961Y65720D02*
X83720D01*
Y64039D01*
X87961D01*
Y65720D01*
D02*
G37*
G36*
X82720D02*
X78480D01*
Y64813D01*
X78000Y64419D01*
Y62500D01*
X79899D01*
X79808Y62956D01*
X79418Y63539D01*
X79685Y64039D01*
X82720D01*
Y65720D01*
D02*
G37*
G36*
X77000Y64398D02*
X76544Y64308D01*
X75734Y63766D01*
X75192Y62956D01*
X75102Y62500D01*
X77000D01*
Y64398D01*
D02*
G37*
G36*
X79899Y61500D02*
X78000D01*
Y59601D01*
X78456Y59692D01*
X79266Y60234D01*
X79808Y61044D01*
X79899Y61500D01*
D02*
G37*
G36*
X77000D02*
X75102D01*
X75192Y61044D01*
X75734Y60234D01*
X76544Y59692D01*
X77000Y59601D01*
Y61500D01*
D02*
G37*
G36*
X61843Y56000D02*
X59571D01*
Y53531D01*
X61843D01*
Y56000D01*
D02*
G37*
G36*
Y52370D02*
X59669D01*
Y50000D01*
X61843D01*
Y52370D01*
D02*
G37*
G36*
X50271Y32123D02*
Y30225D01*
X52170D01*
X52079Y30681D01*
X51537Y31491D01*
X50727Y32032D01*
X50271Y32123D01*
D02*
G37*
G36*
X49271D02*
X48815Y32032D01*
X48005Y31491D01*
X47463Y30681D01*
X47373Y30225D01*
X49271D01*
Y32123D01*
D02*
G37*
G36*
X52170Y29225D02*
X50271D01*
Y27326D01*
X50727Y27417D01*
X51537Y27958D01*
X52079Y28769D01*
X52170Y29225D01*
D02*
G37*
G36*
X49271D02*
X47373D01*
X47463Y28769D01*
X48005Y27958D01*
X48815Y27417D01*
X49271Y27326D01*
Y29225D01*
D02*
G37*
G36*
X56500Y27398D02*
Y25500D01*
X58398D01*
X58308Y25956D01*
X57766Y26766D01*
X56956Y27308D01*
X56500Y27398D01*
D02*
G37*
G36*
X55500D02*
X55044Y27308D01*
X54234Y26766D01*
X53692Y25956D01*
X53601Y25500D01*
X55500D01*
Y27398D01*
D02*
G37*
G36*
X62343Y27968D02*
X60071D01*
Y25500D01*
X62343D01*
Y27968D01*
D02*
G37*
G36*
X58398Y24500D02*
X56500D01*
Y22602D01*
X56956Y22692D01*
X57766Y23234D01*
X58308Y24044D01*
X58398Y24500D01*
D02*
G37*
G36*
X55500D02*
X53601D01*
X53692Y24044D01*
X54234Y23234D01*
X55044Y22692D01*
X55500Y22602D01*
Y24500D01*
D02*
G37*
G36*
X62343D02*
X60071D01*
Y22031D01*
X62343D01*
Y24500D01*
D02*
G37*
G36*
Y20870D02*
X60169D01*
Y18500D01*
X62343D01*
Y20870D01*
D02*
G37*
G36*
X140500Y40398D02*
Y38500D01*
X142399D01*
X142308Y38956D01*
X141766Y39766D01*
X140956Y40308D01*
X140500Y40398D01*
D02*
G37*
G36*
X139500D02*
X139044Y40308D01*
X138234Y39766D01*
X137692Y38956D01*
X137601Y38500D01*
X139500D01*
Y40398D01*
D02*
G37*
G36*
X145547Y40772D02*
X143472D01*
Y38500D01*
X145547D01*
Y40772D01*
D02*
G37*
G36*
X142399Y37500D02*
X140500D01*
Y35601D01*
X140956Y35692D01*
X141766Y36234D01*
X142308Y37044D01*
X142399Y37500D01*
D02*
G37*
G36*
X139500D02*
X137601D01*
X137692Y37044D01*
X138234Y36234D01*
X139044Y35692D01*
X139500Y35601D01*
Y37500D01*
D02*
G37*
G36*
X148622D02*
X146547D01*
Y35228D01*
X148622D01*
Y37500D01*
D02*
G37*
G36*
X145547D02*
X143472D01*
Y35228D01*
X145547D01*
Y37500D01*
D02*
G37*
G36*
X48500Y19399D02*
Y17500D01*
X50398D01*
X50308Y17956D01*
X49766Y18766D01*
X48956Y19308D01*
X48500Y19399D01*
D02*
G37*
G36*
X47500D02*
X47044Y19308D01*
X46234Y18766D01*
X45692Y17956D01*
X45601Y17500D01*
X47500D01*
Y19399D01*
D02*
G37*
G36*
X50398Y16500D02*
X48500D01*
Y14602D01*
X48956Y14692D01*
X49766Y15234D01*
X50308Y16044D01*
X50398Y16500D01*
D02*
G37*
G36*
X47500D02*
X45601D01*
X45692Y16044D01*
X46234Y15234D01*
X47044Y14692D01*
X47500Y14602D01*
Y16500D01*
D02*
G37*
%LPD*%
D13*
X77028Y49937D02*
X84181D01*
X72609Y42063D02*
X77028D01*
X70546Y40000D02*
X72609Y42063D01*
X70500Y40000D02*
X70546D01*
X74681Y44032D02*
X77028D01*
X58917Y44000D02*
X74650D01*
X74681Y44032D01*
X56500Y46417D02*
X58917Y44000D01*
X62343Y47803D02*
X64146Y46000D01*
X77028D01*
X68094Y49937D02*
X77028D01*
X67657D02*
Y55500D01*
Y49500D02*
X68094Y49937D01*
X59570Y13430D02*
X73915D01*
X56000Y17000D02*
X59570Y13430D01*
X36630Y28500D02*
X44500D01*
X56000Y17000D01*
X73915Y13430D02*
X74549Y14063D01*
X77028D01*
X19504Y28500D02*
Y31000D01*
X31503Y43000D01*
X15370Y28500D02*
X19504D01*
X31503Y43000D02*
X51539D01*
X36630Y48500D02*
X37130Y48000D01*
X50764D01*
X32496Y38500D02*
X36630D01*
X29155Y35159D02*
X32496Y38500D01*
X29155Y21345D02*
Y35159D01*
Y21345D02*
X38670Y11830D01*
X81830D01*
X19504Y28500D02*
X38004Y10000D01*
X86000D01*
X14532Y39968D02*
X15685Y38815D01*
X7032Y39968D02*
X14532D01*
X4400Y42600D02*
X7032Y39968D01*
X6000Y89454D02*
X19546Y103000D01*
X6000Y52500D02*
Y89454D01*
Y52500D02*
X8531Y49968D01*
X4400Y90400D02*
X18800Y104800D01*
X4400Y42600D02*
Y90400D01*
X7600Y62136D02*
Y88100D01*
X13902Y49968D02*
X15370Y48500D01*
X8531Y49968D02*
X13902D01*
X7600Y88100D02*
X20528Y101028D01*
X7600Y62136D02*
X11236Y58500D01*
X20528Y101028D02*
X96791D01*
X16300Y59700D02*
X18000Y58000D01*
X11236Y58500D02*
X15370D01*
X121776Y178740D02*
Y191276D01*
X125000Y194500D02*
X139941D01*
X121776Y191276D02*
X125000Y194500D01*
X92972Y47969D02*
X98775D01*
X108059Y40500D02*
Y40697D01*
X98775Y47969D02*
X101923Y44821D01*
X103935D01*
X108059Y40697D01*
X62343Y47803D02*
Y48000D01*
X64470Y15030D02*
X70530D01*
X64004Y15496D02*
Y16839D01*
X62843Y18000D02*
X64004Y16839D01*
Y15496D02*
X64470Y15030D01*
X73500Y18000D02*
X77028D01*
X70530Y15030D02*
X73500Y18000D01*
X81830Y11830D02*
X86032Y16032D01*
X86000Y10000D02*
X90055Y14055D01*
X102843Y23303D02*
Y23500D01*
X135547Y101563D02*
X135724Y101386D01*
X137511Y140724D02*
X137528Y140707D01*
X131224Y178740D02*
X131241Y178724D01*
X137511D02*
X137528Y178707D01*
X84181Y49937D02*
X102547Y68303D01*
Y68500D01*
X74000Y69500D02*
Y73780D01*
X80928Y16039D02*
X94195Y29305D01*
X96937Y49937D02*
X102843Y55843D01*
X170620Y48880D02*
X171000Y48500D01*
X154224Y49260D02*
X154604Y48880D01*
X170620D01*
X76528Y33500D02*
X85091Y42063D01*
X51539Y43000D02*
X61039Y33500D01*
X62264Y36500D02*
X76361D01*
X83893Y44032D01*
X61039Y33500D02*
X76528D01*
X50764Y48000D02*
X62264Y36500D01*
X117500D02*
X134240Y19760D01*
X144276D01*
X77028Y16032D02*
X77035Y16039D01*
X80928D01*
X80969Y19969D02*
X97500Y36500D01*
X117500D01*
X77028Y19969D02*
X80969D01*
X85091Y42063D02*
X92972D01*
X83893Y44032D02*
X92972D01*
X74000Y73780D02*
X83220D01*
X67220D02*
X74000D01*
X86032Y16032D02*
X90304D01*
X89500Y172220D02*
X94142Y176862D01*
Y176862D01*
X89500Y113800D02*
Y172220D01*
X94142Y176862D02*
X95807Y178528D01*
X96791D01*
X95307Y140528D02*
X96291D01*
X91300Y136521D02*
X95307Y140528D01*
X91300Y112300D02*
Y136521D01*
X80500Y104800D02*
X89500Y113800D01*
X82000Y103000D02*
X91300Y112300D01*
X18800Y104800D02*
X80500D01*
X19546Y103000D02*
X82000D01*
X56500Y46417D02*
Y58500D01*
X150862Y50138D02*
X153346D01*
X162260Y19760D02*
X171000Y28500D01*
X140465Y128002D02*
X141789Y129327D01*
Y132250D02*
X141953Y132413D01*
X105709Y96500D02*
X107949Y94260D01*
X139941Y194500D02*
X141768Y192673D01*
X101476Y21937D02*
X102843Y23303D01*
X102941Y40500D02*
Y40697D01*
X150251Y22052D02*
X152543Y19760D01*
X118776Y114276D02*
X122000Y117500D01*
X141866Y145059D02*
X142260D01*
X138465Y85500D02*
Y89502D01*
X108209Y174000D02*
X110949Y171260D01*
X141366Y172468D02*
X142539Y171295D01*
X71024Y21937D02*
X77028D01*
X68157Y18000D02*
Y24803D01*
X92972Y49937D02*
X96937D01*
X122000Y117500D02*
X137941D01*
X141280Y133260D02*
X141953Y132587D01*
X140465Y123500D02*
Y128002D01*
X140366Y106559D02*
X140760D01*
X67000Y74000D02*
X67220Y73780D01*
X148059Y191303D02*
Y191500D01*
X153346Y50138D02*
X154224Y49260D01*
X153724Y19760D02*
X162260D01*
X183360Y100921D02*
X183500D01*
X142260Y145059D02*
X142547Y145346D01*
X140366Y101441D02*
X140453Y101354D01*
X110949Y171260D02*
X121776D01*
X142941Y191500D02*
Y191697D01*
X102941Y40303D02*
Y40500D01*
X152543Y19760D02*
X153724D01*
X140760Y106559D02*
X145528Y111327D01*
X141953Y132587D02*
Y139854D01*
X107709Y136000D02*
X110449Y133260D01*
X131224Y178740D02*
X131575D01*
X103441Y15500D02*
Y15697D01*
X148414Y27240D02*
X149000Y26654D01*
X141465Y153673D02*
X142441Y152697D01*
X150134Y142500D02*
X150421Y142213D01*
X139789Y93250D02*
X140539Y94000D01*
X130224Y140740D02*
X131406D01*
X141953Y132413D02*
Y132587D01*
X149000Y23000D02*
Y26654D01*
X142547Y147291D02*
X147559Y152303D01*
X137941Y157000D02*
X141268Y153673D01*
X107949Y94260D02*
X118776D01*
X141965Y192673D02*
X142941Y191697D01*
X90055Y14055D02*
X92965D01*
X100941Y18000D02*
X102268Y16673D01*
X148760Y56740D02*
X149500Y56000D01*
X144776Y56740D02*
X148760D01*
X128224Y101740D02*
X129075D01*
X141268Y153673D02*
X141465D01*
X141866Y139941D02*
X141953Y139854D01*
X131406Y140740D02*
X132453Y141787D01*
X102465Y16673D02*
X103441Y15697D01*
X100139Y62000D02*
X127000D01*
X144276Y27240D02*
X148414D01*
X110449Y133260D02*
X120776D01*
X128224Y94260D02*
X140280D01*
X120776Y140740D02*
Y154776D01*
X123000Y157000D01*
X141366Y183559D02*
X141760D01*
X183545Y183921D02*
X184000D01*
X92972Y18000D02*
X92980Y17992D01*
X92972Y46000D02*
X97638D01*
X141789Y129327D02*
Y132250D01*
X141465Y163000D02*
X142539Y164075D01*
X92965Y14055D02*
X92972Y14063D01*
X139740Y49260D02*
X144776D01*
X149500Y51500D02*
Y56000D01*
X140453Y94087D02*
Y101354D01*
X118776Y101740D02*
Y114276D01*
X145528Y113969D02*
X146059Y114500D01*
X137941Y117500D02*
X139768Y115673D01*
X129075Y101740D02*
X129953Y102618D01*
X141366Y172468D02*
Y178441D01*
X102268Y16673D02*
X102465D01*
X86107Y47969D02*
X100139Y62000D01*
X149000Y23000D02*
X149948Y22052D01*
X147559Y152303D02*
Y152500D01*
X139965Y115673D02*
X140941Y114697D01*
X138465Y89502D02*
X139789Y90827D01*
X67000Y69000D02*
Y74000D01*
X142047Y185292D02*
X148059Y191303D01*
X131224Y171260D02*
X142280D01*
X68157Y24803D02*
Y25000D01*
X97638Y46000D02*
X102941Y40697D01*
X142441Y152500D02*
Y152697D01*
X142047Y183846D02*
Y185292D01*
X142539Y164075D02*
Y171000D01*
X92972Y46000D02*
X92980Y45992D01*
X92972Y21937D02*
X101476D01*
X127000Y62000D02*
X139740Y49260D01*
X149500Y51500D02*
X150862Y50138D01*
X142547Y145346D02*
Y147291D01*
X139768Y115673D02*
X139965D01*
X56500Y58500D02*
X67000Y69000D01*
X142539Y171000D02*
Y171295D01*
X131575Y178740D02*
X132453Y179618D01*
X141768Y192673D02*
X141965D01*
X103441Y15500D02*
X103492Y15551D01*
X77028Y47969D02*
X86107D01*
X149948Y22052D02*
X150251D01*
X183130Y142213D02*
X184000Y141343D01*
X123000Y157000D02*
X137941D01*
X130224Y133260D02*
X141280D01*
X139789Y90827D02*
Y93250D01*
X140280Y94260D02*
X140453Y94087D01*
X141760Y183559D02*
X142047Y183846D01*
X142280Y171260D02*
X142539Y171000D01*
X68157Y24803D02*
X71024Y21937D01*
X92972Y18000D02*
X100941D01*
X145528Y111327D02*
Y113969D01*
X140941Y114500D02*
Y114697D01*
X140453Y94087D02*
X140539Y94000D01*
D15*
X77028Y49937D02*
D03*
Y47969D02*
D03*
Y46000D02*
D03*
Y44032D02*
D03*
Y42063D02*
D03*
X92972Y49937D02*
D03*
Y47969D02*
D03*
Y46000D02*
D03*
Y44032D02*
D03*
Y42063D02*
D03*
X77028Y21937D02*
D03*
Y19969D02*
D03*
Y18000D02*
D03*
Y16032D02*
D03*
Y14063D02*
D03*
X92972Y21937D02*
D03*
Y19969D02*
D03*
Y18000D02*
D03*
Y16032D02*
D03*
Y14063D02*
D03*
D16*
X15370Y48500D02*
D03*
X36630D02*
D03*
X15370Y38500D02*
D03*
X36630D02*
D03*
X15370Y28500D02*
D03*
X36630D02*
D03*
Y58500D02*
D03*
X15370D02*
D03*
X36630Y68500D02*
D03*
Y78500D02*
D03*
X15370Y68500D02*
D03*
Y78500D02*
D03*
D17*
X102941Y40500D02*
D03*
X108059D02*
D03*
X140941Y114500D02*
D03*
X146059D02*
D03*
X142941Y191500D02*
D03*
X148059D02*
D03*
X108559Y15500D02*
D03*
X103441D02*
D03*
X142441Y152500D02*
D03*
X147559D02*
D03*
D18*
X145547Y68000D02*
D03*
X151453D02*
D03*
X146047Y38000D02*
D03*
X151953D02*
D03*
X126547Y151000D02*
D03*
X132453D02*
D03*
X124047Y112000D02*
D03*
X129953D02*
D03*
X126547Y189000D02*
D03*
X132453D02*
D03*
X108453Y68500D02*
D03*
X102547D02*
D03*
D19*
X62843Y25000D02*
D03*
X68157D02*
D03*
X108157Y57500D02*
D03*
X102843D02*
D03*
X108157Y23500D02*
D03*
X102843D02*
D03*
X62343Y56500D02*
D03*
X67657D02*
D03*
D20*
X68157Y18000D02*
D03*
X62843D02*
D03*
X102843Y49000D02*
D03*
X108157D02*
D03*
X67657Y49500D02*
D03*
X62343D02*
D03*
X102843Y31500D02*
D03*
X108157D02*
D03*
D21*
X145461Y94000D02*
D03*
X140539D02*
D03*
X146961Y132500D02*
D03*
X142039D02*
D03*
X147461Y171000D02*
D03*
X142539D02*
D03*
D22*
X146535Y85500D02*
D03*
X138465D02*
D03*
X149535Y163000D02*
D03*
X141465D02*
D03*
X148535Y123500D02*
D03*
X140465D02*
D03*
D23*
X62276Y74000D02*
D03*
X67000D02*
D03*
D24*
X154224Y56740D02*
D03*
Y49260D02*
D03*
X144776D02*
D03*
Y53000D02*
D03*
Y56740D02*
D03*
X120776Y140740D02*
D03*
Y137000D02*
D03*
Y133260D02*
D03*
X130224D02*
D03*
Y140740D02*
D03*
X121776Y178740D02*
D03*
Y175000D02*
D03*
Y171260D02*
D03*
X131224D02*
D03*
Y178740D02*
D03*
X153724Y27240D02*
D03*
Y19760D02*
D03*
X144276D02*
D03*
Y23500D02*
D03*
Y27240D02*
D03*
X118776Y101740D02*
D03*
Y98000D02*
D03*
Y94260D02*
D03*
X128224D02*
D03*
Y101740D02*
D03*
D25*
X148634Y104000D02*
D03*
X140366Y101441D02*
D03*
Y106559D02*
D03*
X150134Y142500D02*
D03*
X141866Y139941D02*
D03*
Y145059D02*
D03*
X149634Y181000D02*
D03*
X141366Y178441D02*
D03*
Y183559D02*
D03*
D26*
X107709Y136000D02*
D03*
X108209Y96500D02*
D03*
Y174000D02*
D03*
D27*
X96291Y131472D02*
D03*
Y140528D02*
D03*
X96791Y91972D02*
D03*
Y101028D02*
D03*
Y169472D02*
D03*
Y178528D02*
D03*
D28*
X90610Y187000D02*
D03*
X99390D02*
D03*
D29*
X90780Y70000D02*
D03*
X83220Y66220D02*
D03*
Y73780D02*
D03*
D48*
X101146Y70098D02*
X102547Y68697D01*
X36630Y78000D02*
X93244D01*
X15370Y78500D02*
X15870Y78000D01*
X124000Y197000D02*
X185000D01*
X99390Y187000D02*
X114000D01*
X124000Y197000D01*
X102843Y48803D02*
X105084Y46562D01*
Y46550D02*
Y46562D01*
Y46550D02*
X107134Y44500D01*
X145650D01*
X102843Y48803D02*
Y55843D01*
Y27500D02*
Y31500D01*
Y23500D02*
Y27500D01*
X118500D02*
X127000Y19000D01*
X102843Y27500D02*
X118500D01*
X128402Y101563D02*
X135547D01*
X130241Y140724D02*
X137511D01*
X131241Y178724D02*
X137511D01*
X93244Y78000D02*
X101146Y70098D01*
X106500Y74500D02*
X145150D01*
X102547Y68697D02*
X103294Y69444D01*
Y71294D01*
X106500Y74500D01*
X15870Y78000D02*
X36630D01*
X90780Y70000D02*
X101047D01*
X68157Y25000D02*
Y25197D01*
X69129Y26169D01*
X69326D01*
X71657Y28500D01*
X76500D01*
X151953Y38000D02*
Y38197D01*
X145650Y44500D02*
X151953Y38197D01*
X102843Y55843D02*
Y57500D01*
X154224Y61386D02*
Y65032D01*
Y57740D02*
Y61386D01*
X151953Y38000D02*
X158000D01*
X153613Y27351D02*
Y36143D01*
Y27351D02*
X153724Y27240D01*
X154224Y65032D02*
X154224D01*
X151953Y37803D02*
Y38000D01*
Y37803D02*
X153613Y36143D01*
X151453Y67803D02*
Y68000D01*
Y67803D02*
X154224Y65032D01*
X151453Y68000D02*
Y68197D01*
X102547Y68500D02*
Y68697D01*
X145150Y74500D02*
X151453Y68197D01*
X183500Y91079D02*
X188500Y96079D01*
X184000Y131500D02*
X188500Y127000D01*
Y96079D02*
Y127000D01*
X184000Y131500D02*
X189000Y136500D01*
X184000Y174079D02*
X189000Y169079D01*
Y136500D02*
Y169079D01*
X184000Y174079D02*
X189500Y179579D01*
Y192500D01*
X185000Y197000D02*
X189500Y192500D01*
X69500Y179421D02*
X77079Y187000D01*
X90610D01*
X149634Y181000D02*
X180624D01*
X132453Y179618D02*
Y189000D01*
X148634Y104000D02*
X180282D01*
X183360Y100921D01*
X150421Y142213D02*
X183130D01*
X129953Y102618D02*
Y112000D01*
X180624Y181000D02*
X183545Y183921D01*
X132453Y141787D02*
Y151000D01*
D49*
X69500Y169579D02*
D03*
X184000Y131500D02*
D03*
X183500Y91079D02*
D03*
X184000Y174079D02*
D03*
D50*
X69500Y179421D02*
D03*
X184000Y141343D02*
D03*
X183500Y100921D02*
D03*
X184000Y183921D02*
D03*
D51*
X12500Y212500D02*
D03*
Y12500D02*
D03*
X200000D02*
D03*
Y212500D02*
D03*
D52*
X171000Y58500D02*
D03*
Y48500D02*
D03*
Y38500D02*
D03*
D53*
Y28500D02*
D03*
D54*
X187500Y71000D02*
D03*
X26500Y10000D02*
D03*
X168000Y188500D02*
D03*
X76500Y150500D02*
D03*
X113500Y83500D02*
D03*
X81000Y92500D02*
D03*
X50500Y92000D02*
D03*
X49000Y60000D02*
D03*
X56000Y68500D02*
D03*
X49000D02*
D03*
X49771Y29725D02*
D03*
X56000Y25000D02*
D03*
X70500Y40000D02*
D03*
X56000Y17000D02*
D03*
X98000Y9000D02*
D03*
X171500Y149000D02*
D03*
X169500Y109000D02*
D03*
X171000Y12500D02*
D03*
X172000Y71500D02*
D03*
X76500Y133500D02*
D03*
X65500Y92000D02*
D03*
X77500Y62000D02*
D03*
X126500Y68000D02*
D03*
X140000Y38000D02*
D03*
X132500Y49500D02*
D03*
X137528Y178707D02*
D03*
Y140707D02*
D03*
X135724Y101386D02*
D03*
X74000Y69500D02*
D03*
X94195Y29305D02*
D03*
X76500Y28500D02*
D03*
X158000Y38000D02*
D03*
X154224Y61386D02*
D03*
X48000Y17000D02*
D03*
X137500Y13000D02*
D03*
X127000Y19000D02*
D03*
M02*
